SplineFontDB: 3.0
FontName: KottaOne-Regular
FullName: Kotta One
FamilyName: Kotta One
Weight: Book
Copyright: Copyright (c) 2012 by Ania Kruk (hello@aniakruk.com), with Reserved Font Name "Kotta"
Version: 1.001
ItalicAngle: 0
UnderlinePosition: -50
UnderlineWidth: 50
Ascent: 800
Descent: 200
sfntRevision: 0x00010042
LayerCount: 2
Layer: 0 1 "Back"  1
Layer: 1 1 "Fore"  0
XUID: [1021 316 449180076 6245676]
FSType: 0
OS2Version: 2
OS2_WeightWidthSlopeOnly: 0
OS2_UseTypoMetrics: 1
CreationTime: 1327250224
ModificationTime: 1327257542
PfmFamily: 17
TTFWeight: 400
TTFWidth: 5
LineGap: 0
VLineGap: 0
Panose: 2 0 0 0 0 0 0 0 0 0
OS2TypoAscent: 115
OS2TypoAOffset: 1
OS2TypoDescent: -88
OS2TypoDOffset: 1
OS2TypoLinegap: 0
OS2WinAscent: 0
OS2WinAOffset: 1
OS2WinDescent: 0
OS2WinDOffset: 1
HheadAscent: 0
HheadAOffset: 1
HheadDescent: 0
HheadDOffset: 1
OS2SubXSize: 700
OS2SubYSize: 650
OS2SubXOff: 0
OS2SubYOff: 140
OS2SupXSize: 700
OS2SupYSize: 650
OS2SupXOff: 0
OS2SupYOff: 477
OS2StrikeYSize: 50
OS2StrikeYPos: 250
OS2Vendor: 'pyrs'
OS2CodePages: 00000001.00000000
OS2UnicodeRanges: 00000023.00000000.00000000.00000000
Lookup: 258 0 0 "'kern' Horizontal Kerning lookup 0"  {"'kern' Horizontal Kerning lookup 0 subtable"  } ['kern' ('DFLT' <'dflt' > ) ]
DEI: 91125
TtTable: prep
PUSHW_1
 511
SCANCTRL
PUSHB_1
 4
SCANTYPE
EndTTInstrs
ShortTable: maxp 16
  1
  0
  260
  76
  5
  0
  0
  2
  0
  1
  1
  0
  64
  0
  0
  0
EndShort
LangName: 1033 "" "" "" "AniaKruk: Kotta One: 2012" "" "Version 1.001" "" "Kotta is a trademark of Ania Kruk." "Ania Kruk" "Ania Kruk" "" "www.aniakruk.com" "www.aniakruk.com" "This Font Software is licensed under the SIL Open Font License, Version 1.1. This license is available with a FAQ at: http://scripts.sil.org/OFL" "http://scripts.sil.org/OFL" 
GaspTable: 1 65535 15 1
Encoding: UnicodeBmp
UnicodeInterp: none
NameList: Adobe Glyph List
DisplaySize: -24
AntiAlias: 1
FitToEm: 1
BeginChars: 65550 260

StartChar: exclam
Encoding: 33 33 4
Width: 259
GlyphClass: 2
Flags: W
LayerCount: 2
Fore
SplineSet
80 75.5 m 128,-1,1
 99 85 99 85 119 85 c 128,-1,2
 139 85 139 85 150.5 76 c 128,-1,3
 162 67 162 67 162 56 c 1,4,-1
 157 20 l 1,5,6
 146 -10 146 -10 93 -10 c 0,7,8
 73 -10 73 -10 62.5 -1 c 128,-1,9
 52 8 52 8 52 20 c 1,10,-1
 56 51 l 1,11,0
 61 66 61 66 80 75.5 c 128,-1,1
113 166 m 1,12,-1
 90 171 l 1,13,14
 98 220 98 220 108 377 c 128,-1,15
 118 534 118 534 118 680 c 1,16,-1
 196 696 l 1,17,-1
 210 680 l 1,18,19
 190 563 190 563 168.5 395.5 c 128,-1,20
 147 228 147 228 147 171 c 1,21,22
 134 166 134 166 113 166 c 1,12,-1
EndSplineSet
EndChar

StartChar: quotedbl
Encoding: 34 34 5
Width: 339
GlyphClass: 2
Flags: W
LayerCount: 2
Fore
SplineSet
79 485 m 1,0,-1
 56 490 l 1,1,2
 70 592 70 592 70 699 c 1,3,-1
 135 715 l 1,4,-1
 149 699 l 1,5,6
 113 542 113 542 113 490 c 1,7,8
 100 485 100 485 79 485 c 1,0,-1
216 485 m 1,9,-1
 193 490 l 1,10,11
 207 592 207 592 207 699 c 1,12,-1
 272 715 l 1,13,-1
 286 699 l 1,14,15
 250 542 250 542 250 490 c 1,16,17
 237 485 237 485 216 485 c 1,9,-1
EndSplineSet
EndChar

StartChar: numbersign
Encoding: 35 35 6
Width: 640
GlyphClass: 2
Flags: W
LayerCount: 2
Fore
SplineSet
402 -10 m 1,0,-1
 374 -5 l 1,1,2
 382 52 382 52 395 195 c 1,3,-1
 227 195 l 1,4,5
 211 46 211 46 211 -5 c 1,6,7
 193 -10 193 -10 172 -10 c 1,8,-1
 144 -5 l 1,9,10
 152 52 152 52 165 195 c 1,11,-1
 55 195 l 1,12,13
 50 206 50 206 50 218 c 1,14,-1
 55 252 l 1,15,-1
 170 252 l 1,16,17
 178 341 178 341 181 398 c 1,18,-1
 55 398 l 1,19,20
 50 409 50 409 50 421 c 1,21,-1
 55 455 l 1,22,-1
 185 455 l 1,23,24
 194 603 194 603 194 680 c 1,25,-1
 272 696 l 1,26,-1
 286 680 l 1,27,28
 277 630 277 630 255 455 c 1,29,30
 355 455 355 455 415 457 c 1,31,32
 424 605 424 605 424 680 c 1,33,-1
 502 696 l 1,34,-1
 516 680 l 1,35,36
 505 617 505 617 486 460 c 1,37,38
 518 461 518 461 562 465 c 1,39,-1
 578 451 l 1,40,-1
 565 398 l 1,41,-1
 479 398 l 1,42,43
 467 302 467 302 463 255 c 1,44,45
 531 259 531 259 562 262 c 1,46,-1
 578 248 l 1,47,-1
 565 195 l 1,48,-1
 457 195 l 1,49,50
 441 46 441 46 441 -5 c 1,51,52
 423 -10 423 -10 402 -10 c 1,0,-1
249 398 m 1,53,54
 237 302 237 302 233 252 c 1,55,56
 336 252 336 252 400 254 c 1,57,58
 407 339 407 339 411 398 c 1,59,-1
 249 398 l 1,53,54
EndSplineSet
EndChar

StartChar: dollar
Encoding: 36 36 7
Width: 534
GlyphClass: 2
Flags: W
LayerCount: 2
Fore
SplineSet
259 609 m 1,0,-1
 260 666 l 1,1,-1
 327 679 l 1,2,-1
 339 666 l 1,3,-1
 331 617 l 1,4,5
 376 617 376 617 411.5 601.5 c 128,-1,6
 447 586 447 586 453 565 c 1,7,8
 434 529 434 529 424 479 c 1,9,-1
 420 462 l 1,10,11
 398 453 398 453 373 453 c 1,12,13
 380 476 380 476 380 498 c 0,14,15
 380 549 380 549 358 565 c 1,16,-1
 324 565 l 1,17,-1
 299 351 l 1,18,19
 372 304 372 304 405 268 c 128,-1,20
 438 232 438 232 438 192 c 0,21,22
 438 109 438 109 392 60.5 c 128,-1,23
 346 12 346 12 262 1 c 1,24,25
 259 -41 259 -41 259 -60 c 1,26,27
 243 -65 243 -65 224 -65 c 1,28,-1
 200 -60 l 1,29,-1
 207 -3 l 1,30,31
 134 -3 134 -3 95 15.5 c 128,-1,32
 56 34 56 34 45 60 c 1,33,34
 65 95 65 95 76 144 c 1,35,-1
 79 161 l 1,36,37
 101 169 101 169 126 169 c 1,38,39
 119 152 119 152 119 125 c 0,40,41
 119 76 119 76 141 60 c 1,42,-1
 214 60 l 1,43,44
 223 144 223 144 237 299 c 1,45,46
 174 335 174 335 145.5 365.5 c 128,-1,47
 117 396 117 396 117 442 c 0,48,49
 117 578 117 578 259 609 c 1,0,-1
362 160 m 0,50,51
 362 215 362 215 289 266 c 1,52,53
 272 108 272 108 268 60 c 1,54,-1
 315 60 l 1,55,56
 362 91 362 91 362 160 c 0,50,51
184 471 m 0,57,58
 184 427 184 427 244 385 c 1,59,60
 254 518 254 518 257 565 c 1,61,62
 222 553 222 553 203 525 c 128,-1,63
 184 497 184 497 184 471 c 0,57,58
EndSplineSet
EndChar

StartChar: percent
Encoding: 37 37 8
Width: 755
GlyphClass: 2
Flags: W
LayerCount: 2
Fore
SplineSet
117.5 367.5 m 128,-1,1
 89 392 89 392 89 444.5 c 128,-1,2
 89 497 89 497 131 545 c 128,-1,3
 173 593 173 593 220 593 c 128,-1,4
 267 593 267 593 295.5 567.5 c 128,-1,5
 324 542 324 542 324 490 c 128,-1,6
 324 438 324 438 283 390.5 c 128,-1,7
 242 343 242 343 187 343 c 0,8,0
 146 343 146 343 117.5 367.5 c 128,-1,1
195 542 m 1,9,10
 148 516 148 516 148 461.5 c 128,-1,11
 148 407 148 407 186 393 c 1,12,-1
 223 393 l 1,13,14
 241 400 241 400 252.5 424 c 128,-1,15
 264 448 264 448 264 475 c 0,16,17
 264 524 264 524 229 542 c 1,18,-1
 195 542 l 1,9,10
440.5 14.5 m 128,-1,20
 412 39 412 39 412 91.5 c 128,-1,21
 412 144 412 144 454 192 c 128,-1,22
 496 240 496 240 543 240 c 128,-1,23
 590 240 590 240 618.5 214.5 c 128,-1,24
 647 189 647 189 647 137 c 128,-1,25
 647 85 647 85 606 37.5 c 128,-1,26
 565 -10 565 -10 510 -10 c 0,27,19
 469 -10 469 -10 440.5 14.5 c 128,-1,20
518 189 m 1,28,29
 471 163 471 163 471 108.5 c 128,-1,30
 471 54 471 54 509 40 c 1,31,-1
 546 40 l 1,32,33
 564 47 564 47 575.5 71 c 128,-1,34
 587 95 587 95 587 122 c 0,35,36
 587 172 587 172 552 189 c 1,37,-1
 518 189 l 1,28,29
142 -15 m 1,38,-1
 112 -10 l 1,39,40
 263 185 263 185 348.5 304 c 128,-1,41
 434 423 434 423 561 625 c 1,42,-1
 653 641 l 1,43,-1
 657 625 l 1,44,45
 630 589 630 589 564.5 504.5 c 128,-1,46
 499 420 499 420 474.5 387.5 c 128,-1,47
 450 355 450 355 400 287 c 0,48,49
 295 147 295 147 188 -10 c 1,50,51
 162 -15 162 -15 142 -15 c 1,38,-1
EndSplineSet
EndChar

StartChar: ampersand
Encoding: 38 38 9
Width: 690
GlyphClass: 2
Flags: W
LayerCount: 2
Fore
SplineSet
439.5 661.5 m 128,-1,1
 469 633 469 633 469 597 c 128,-1,2
 469 561 469 561 459 532.5 c 128,-1,3
 449 504 449 504 437.5 486 c 128,-1,4
 426 468 426 468 399.5 443.5 c 128,-1,5
 373 419 373 419 359.5 409 c 128,-1,6
 346 399 346 399 312 374 c 1,7,8
 371 278 371 278 490 157 c 1,9,10
 516 192 516 192 535 222 c 1,11,12
 564 212 564 212 578 192 c 2,13,-1
 582 186 l 1,14,15
 553 144 553 144 530 116 c 1,16,17
 574 72 574 72 617 34 c 1,18,-1
 617 21 l 1,19,-1
 553 -30 l 1,20,21
 508 13 508 13 472 52 c 1,22,23
 425 9 425 9 380 -3 c 128,-1,24
 335 -15 335 -15 259.5 -15 c 128,-1,25
 184 -15 184 -15 134.5 24 c 128,-1,26
 85 63 85 63 85 138 c 128,-1,27
 85 213 85 213 122 267.5 c 128,-1,28
 159 322 159 322 225 373 c 1,29,30
 180 460 180 460 180 526.5 c 128,-1,31
 180 593 180 593 230 641.5 c 128,-1,32
 280 690 280 690 345 690 c 128,-1,0
 410 690 410 690 439.5 661.5 c 128,-1,1
169 167 m 0,33,34
 169 126 169 126 189.5 96.5 c 128,-1,35
 210 67 210 67 248 60 c 1,36,-1
 361 60 l 2,37,38
 363 60 363 60 370 62 c 128,-1,39
 377 64 377 64 380 64.5 c 128,-1,40
 383 65 383 65 389.5 67 c 128,-1,41
 396 69 396 69 400.5 71 c 128,-1,42
 405 73 405 73 411 76 c 0,43,44
 418 79 418 79 434 93 c 1,45,46
 315 222 315 222 252 327 c 1,47,48
 169 255 169 255 169 167 c 0,33,34
251 545 m 0,49,50
 251 487 251 487 287 418 c 1,51,52
 342 459 342 459 369.5 493 c 128,-1,53
 397 527 397 527 397 574.5 c 128,-1,54
 397 622 397 622 368 635 c 1,55,-1
 304 635 l 1,56,57
 280 627 280 627 265.5 600.5 c 128,-1,58
 251 574 251 574 251 545 c 0,49,50
EndSplineSet
EndChar

StartChar: quotesingle
Encoding: 39 39 10
Width: 185
GlyphClass: 2
Flags: W
LayerCount: 2
Fore
SplineSet
79 485 m 1,0,-1
 56 490 l 1,1,2
 70 592 70 592 70 699 c 1,3,-1
 135 715 l 1,4,-1
 149 699 l 1,5,6
 113 542 113 542 113 490 c 1,7,8
 100 485 100 485 79 485 c 1,0,-1
EndSplineSet
EndChar

StartChar: parenleft
Encoding: 40 40 11
Width: 285
GlyphClass: 2
Flags: W
LayerCount: 2
Fore
SplineSet
57 214 m 0,0,1
 57 468 57 468 234 713 c 1,2,3
 245 713 245 713 254 709 c 1,4,-1
 272 697 l 1,5,6
 126 461 126 461 126 247 c 0,7,8
 126 169 126 169 148 68.5 c 128,-1,9
 170 -32 170 -32 192 -94 c 2,10,-1
 214 -156 l 1,11,12
 207 -164 207 -164 196 -167 c 1,13,-1
 173 -171 l 1,14,15
 160 -153 160 -153 136.5 -104 c 128,-1,16
 113 -55 113 -55 97.5 -12 c 128,-1,17
 82 31 82 31 69.5 93 c 128,-1,18
 57 155 57 155 57 214 c 0,0,1
EndSplineSet
EndChar

StartChar: parenright
Encoding: 41 41 12
Width: 291
GlyphClass: 2
Flags: W
LayerCount: 2
Fore
SplineSet
222 328 m 0,0,1
 222 74 222 74 45 -171 c 1,2,3
 34 -171 34 -171 25 -167 c 1,4,-1
 7 -155 l 1,5,6
 153 81 153 81 153 295 c 0,7,8
 153 373 153 373 131 473.5 c 128,-1,9
 109 574 109 574 87 636 c 2,10,-1
 65 698 l 1,11,12
 72 706 72 706 83 709 c 1,13,-1
 106 713 l 1,14,15
 119 695 119 695 142.5 646 c 128,-1,16
 166 597 166 597 181.5 554 c 128,-1,17
 197 511 197 511 209.5 449 c 128,-1,18
 222 387 222 387 222 328 c 0,0,1
EndSplineSet
EndChar

StartChar: asterisk
Encoding: 42 42 13
Width: 357
GlyphClass: 2
Flags: W
LayerCount: 2
Fore
SplineSet
135 543 m 1,0,1
 99 566 99 566 44 592 c 1,2,-1
 67 638 l 1,3,-1
 78 638 l 1,4,-1
 162 582 l 1,5,-1
 165 587 l 1,6,7
 165 635 165 635 163 658.5 c 128,-1,8
 161 682 161 682 161 690 c 1,9,-1
 225 700 l 1,10,-1
 230 690 l 1,11,12
 217 663 217 663 209 584 c 1,13,14
 230 593 230 593 262 607 c 128,-1,15
 294 621 294 621 307 626 c 1,16,-1
 318 590 l 1,17,-1
 311 581 l 1,18,19
 257 564 257 564 222 549 c 1,20,21
 255 495 255 495 288 451 c 1,22,-1
 288 440 l 1,23,-1
 229 415 l 1,24,-1
 177 515 l 1,25,-1
 123 430 l 1,26,-1
 56 430 l 1,27,-1
 52 440 l 1,28,29
 117 514 117 514 135 543 c 1,0,1
EndSplineSet
EndChar

StartChar: plus
Encoding: 43 43 14
Width: 473
GlyphClass: 2
Flags: W
LayerCount: 2
Fore
SplineSet
223 481 m 1,0,1
 237 486 237 486 253.5 486 c 128,-1,2
 270 486 270 486 280 481 c 1,3,-1
 269 354 l 1,4,5
 337 359 337 359 381 363 c 1,6,-1
 397 349 l 1,7,-1
 384 296 l 1,8,-1
 265 296 l 1,9,-1
 255 177 l 1,10,11
 241 172 241 172 219.5 172 c 128,-1,12
 198 172 198 172 198 178 c 2,13,-1
 207 296 l 1,14,-1
 91 296 l 1,15,16
 86 307 86 307 86 319 c 1,17,-1
 91 353 l 1,18,-1
 212 353 l 1,19,-1
 223 481 l 1,0,1
EndSplineSet
EndChar

StartChar: comma
Encoding: 44 44 15
Width: 233
GlyphClass: 2
Flags: W
LayerCount: 2
Fore
SplineSet
49 -174 m 1,0,1
 34 -169 34 -169 20 -155 c 1,2,-1
 20 -143 l 1,3,4
 48 -119 48 -119 70 -83.5 c 128,-1,5
 92 -48 92 -48 92 -23.5 c 128,-1,6
 92 1 92 1 82 20.5 c 128,-1,7
 72 40 72 40 63 40 c 1,8,-1
 63 71 l 1,9,10
 102 84 102 84 143 118 c 1,11,-1
 150 118 l 1,12,13
 169 89 169 89 169 50 c 128,-1,14
 169 11 169 11 139 -47 c 128,-1,15
 109 -105 109 -105 79 -140 c 2,16,-1
 49 -174 l 1,0,1
EndSplineSet
EndChar

StartChar: hyphen
Encoding: 45 45 16
Width: 407
GlyphClass: 2
Flags: W
LayerCount: 2
Fore
SplineSet
144 353 m 2,0,1
 232 353 232 353 343 363 c 1,2,-1
 359 349 l 1,3,-1
 346 286 l 1,4,-1
 53 286 l 1,5,6
 48 307 48 307 48 319 c 1,7,-1
 53 353 l 1,8,-1
 144 353 l 2,0,1
EndSplineSet
EndChar

StartChar: period
Encoding: 46 46 17
Width: 216
GlyphClass: 2
Flags: W
LayerCount: 2
Fore
SplineSet
87 75.5 m 128,-1,1
 106 85 106 85 126 85 c 128,-1,2
 146 85 146 85 157.5 76 c 128,-1,3
 169 67 169 67 169 56 c 1,4,-1
 164 20 l 1,5,6
 153 -10 153 -10 100 -10 c 0,7,8
 80 -10 80 -10 69.5 -1 c 128,-1,9
 59 8 59 8 59 20 c 1,10,-1
 63 51 l 1,11,0
 68 66 68 66 87 75.5 c 128,-1,1
EndSplineSet
EndChar

StartChar: slash
Encoding: 47 47 18
Width: 461
GlyphClass: 2
Flags: W
LayerCount: 2
Fore
SplineSet
51 -150 m 1,0,-1
 24 -145 l 1,1,2
 56 -78 56 -78 188.5 241 c 128,-1,3
 321 560 321 560 369 700 c 1,4,-1
 461 716 l 1,5,-1
 465 700 l 1,6,7
 415 603 415 603 265 261 c 128,-1,8
 115 -81 115 -81 94 -145 c 1,9,10
 84 -150 84 -150 51 -150 c 1,0,-1
EndSplineSet
EndChar

StartChar: zero
Encoding: 48 48 19
Width: 578
GlyphClass: 2
Flags: W
LayerCount: 2
Fore
SplineSet
335 690 m 0,0,1
 433 690 433 690 484 612 c 128,-1,2
 535 534 535 534 535 423 c 0,3,4
 535 305 535 305 498 198 c 0,5,6
 478 138 478 138 447.5 91.5 c 128,-1,7
 417 45 417 45 367.5 15 c 128,-1,8
 318 -15 318 -15 257 -15 c 0,9,10
 159 -15 159 -15 108 63 c 128,-1,11
 57 141 57 141 57 252 c 0,12,13
 57 370 57 370 94 477 c 0,14,15
 114 537 114 537 144.5 583.5 c 128,-1,16
 175 630 175 630 224.5 660 c 128,-1,17
 274 690 274 690 335 690 c 0,0,1
454 389 m 0,18,19
 454 553 454 553 351 625 c 1,20,-1
 258 625 l 1,21,22
 204 598 204 598 171 488 c 128,-1,23
 138 378 138 378 138 286 c 0,24,25
 138 122 138 122 241 50 c 1,26,-1
 334 50 l 1,27,28
 388 77 388 77 421 187 c 128,-1,29
 454 297 454 297 454 389 c 0,18,19
EndSplineSet
EndChar

StartChar: one
Encoding: 49 49 20
Width: 414
GlyphClass: 2
Flags: W
LayerCount: 2
Fore
SplineSet
362 36 m 1,0,1
 362 13 362 13 352 -7 c 1,2,3
 223 0 223 0 186 0 c 1,4,-1
 66 -7 l 1,5,6
 66 16 66 16 76 36 c 1,7,8
 140 47 140 47 171 69 c 1,9,10
 188 185 188 185 206 353.5 c 128,-1,11
 224 522 224 522 226 587 c 1,12,13
 157 497 157 497 122 443 c 1,14,15
 109 443 109 443 95.5 454 c 128,-1,16
 82 465 82 465 77 477 c 1,17,-1
 77 481 l 1,18,19
 158 561 158 561 234 679 c 1,20,-1
 302 694 l 1,21,-1
 315 679 l 1,22,23
 300 592 300 592 279 383 c 128,-1,24
 258 174 258 174 252 53 c 1,25,26
 307 41 307 41 350 37 c 2,27,-1
 362 36 l 1,0,1
EndSplineSet
EndChar

StartChar: two
Encoding: 50 50 21
Width: 524
GlyphClass: 2
Flags: W
LayerCount: 2
Fore
SplineSet
92 -10 m 1,0,1
 50 -6 50 -6 31 9 c 1,2,-1
 31 19 l 1,3,4
 78 90 78 90 147 167 c 128,-1,5
 216 244 216 244 265.5 292 c 128,-1,6
 315 340 315 340 351.5 396.5 c 128,-1,7
 388 453 388 453 388 497.5 c 128,-1,8
 388 542 388 542 374 573.5 c 128,-1,9
 360 605 360 605 341 620 c 1,10,-1
 211 620 l 1,11,12
 191 602 191 602 176 562 c 2,13,-1
 170 547 l 1,14,15
 151 547 151 547 131 559 c 1,16,17
 132 618 132 618 146 655 c 1,18,19
 202 690 202 690 298 690 c 128,-1,20
 394 690 394 690 433 645.5 c 128,-1,21
 472 601 472 601 472 534 c 128,-1,22
 472 467 472 467 439 406.5 c 128,-1,23
 406 346 406 346 364 301.5 c 128,-1,24
 322 257 322 257 253.5 185.5 c 128,-1,25
 185 114 185 114 142 60 c 1,26,-1
 408 60 l 1,27,28
 425 86 425 86 432 123 c 1,29,-1
 435 136 l 1,30,31
 463 129 463 129 480 111 c 1,32,33
 459 31 459 31 457 -10 c 1,34,35
 395 -15 395 -15 342 -15 c 0,36,37
 214 -15 214 -15 105 10 c 1,38,-1
 92 -10 l 1,0,1
EndSplineSet
EndChar

StartChar: three
Encoding: 51 51 22
Width: 442
GlyphClass: 2
Flags: W
LayerCount: 2
Fore
SplineSet
92 547 m 1,0,1
 73 547 73 547 53 559 c 1,2,3
 54 618 54 618 68 655 c 1,4,5
 129 690 129 690 208.5 690 c 128,-1,6
 288 690 288 690 325.5 658 c 128,-1,7
 363 626 363 626 363 568 c 0,8,9
 363 481 363 481 272 405 c 1,10,11
 319 391 319 391 349.5 351 c 128,-1,12
 380 311 380 311 380 250 c 0,13,14
 380 148 380 148 296.5 69 c 128,-1,15
 213 -10 213 -10 109 -10 c 0,16,17
 60 -10 60 -10 16 8 c 2,18,-1
 2 14 l 1,19,20
 2 37 2 37 19 60 c 1,21,-1
 175 60 l 1,22,23
 227 75 227 75 261 117.5 c 128,-1,24
 295 160 295 160 295 214.5 c 128,-1,25
 295 269 295 269 267.5 307 c 128,-1,26
 240 345 240 345 201 356 c 1,27,-1
 170 339 l 1,28,29
 148 343 148 343 131 364 c 1,30,-1
 131 376 l 1,31,32
 291 466 291 466 291 551 c 0,33,34
 291 606 291 606 250 620 c 1,35,-1
 133 620 l 1,36,37
 113 602 113 602 98 562 c 2,38,-1
 92 547 l 1,0,1
EndSplineSet
EndChar

StartChar: four
Encoding: 52 52 23
Width: 535
GlyphClass: 2
Flags: W
LayerCount: 2
Fore
SplineSet
485 237 m 1,0,1
 485 201 485 201 468 176 c 1,2,-1
 463 167 l 1,3,-1
 383 167 l 1,4,5
 381 135 381 135 375 0 c 1,6,7
 352 -10 352 -10 332 -10 c 0,8,9
 300 -10 300 -10 284 0 c 1,10,-1
 305 167 l 1,11,-1
 51 167 l 1,12,-1
 39 178 l 1,13,-1
 39 232 l 1,14,15
 155 389 155 389 302 606 c 2,16,-1
 349 675 l 1,17,-1
 411 690 l 1,18,-1
 424 675 l 1,19,20
 397 458 397 458 386 237 c 1,21,-1
 485 237 l 1,0,1
342 579 m 1,22,23
 211 401 211 401 120 237 c 1,24,-1
 313 237 l 1,25,26
 328 375 328 375 342 579 c 1,22,23
EndSplineSet
EndChar

StartChar: five
Encoding: 53 53 24
Width: 460
GlyphClass: 2
Flags: W
LayerCount: 2
Fore
SplineSet
136 -10 m 0,0,1
 88 -10 88 -10 44 8 c 2,2,-1
 30 14 l 1,3,4
 33 43 33 43 43 60 c 1,5,-1
 201 60 l 1,6,7
 255 83 255 83 284 129.5 c 128,-1,8
 313 176 313 176 313 245.5 c 128,-1,9
 313 315 313 315 275.5 358.5 c 128,-1,10
 238 402 238 402 166 403 c 1,11,-1
 108 403 l 1,12,-1
 96 421 l 1,13,14
 133 568 133 568 133 670 c 1,15,-1
 144 680 l 1,16,17
 235 680 235 680 304 686 c 128,-1,18
 373 692 373 692 396 698 c 2,19,-1
 420 705 l 1,20,-1
 429 698 l 1,21,22
 427 689 427 689 418.5 670.5 c 128,-1,23
 410 652 410 652 401 640 c 0,24,25
 377 610 377 610 345 610 c 2,26,-1
 192 610 l 1,27,28
 175 561 175 561 160 472 c 1,29,-1
 177 472 l 2,30,31
 278 472 278 472 333 424 c 128,-1,32
 388 376 388 376 388 281 c 0,33,34
 388 164 388 164 317 77 c 128,-1,35
 246 -10 246 -10 136 -10 c 0,0,1
EndSplineSet
EndChar

StartChar: six
Encoding: 54 54 25
Width: 546
GlyphClass: 2
Flags: W
LayerCount: 2
Fore
SplineSet
317 456 m 0,0,1
 472 456 472 456 472 263 c 0,2,3
 472 173 472 173 414 84 c 1,4,5
 386 43 386 43 342 16.5 c 128,-1,6
 298 -10 298 -10 246 -10 c 0,7,8
 152 -10 152 -10 105.5 51 c 128,-1,9
 59 112 59 112 59 242 c 0,10,11
 59 361 59 361 102 475 c 0,12,13
 125 536 125 536 159 583 c 128,-1,14
 193 630 193 630 246.5 660 c 128,-1,15
 300 690 300 690 365 690 c 0,16,17
 398 690 398 690 426.5 681.5 c 128,-1,18
 455 673 455 673 467 664 c 2,19,-1
 479 656 l 1,20,21
 478 632 478 632 469 620 c 1,22,-1
 285 620 l 1,23,24
 245 605 245 605 204.5 537.5 c 128,-1,25
 164 470 164 470 144 384 c 1,26,27
 222 456 222 456 317 456 c 0,0,1
131 271 m 0,28,29
 131 126 131 126 216 60 c 1,30,-1
 314 60 l 1,31,32
 352 80 352 80 378.5 128.5 c 128,-1,33
 405 177 405 177 405 237.5 c 128,-1,34
 405 298 405 298 375 347.5 c 128,-1,35
 345 397 345 397 298 397 c 2,36,-1
 240 397 l 1,37,38
 187 386 187 386 134 325 c 1,39,40
 131 298 131 298 131 271 c 0,28,29
EndSplineSet
EndChar

StartChar: seven
Encoding: 55 55 26
Width: 527
GlyphClass: 2
Flags: W
LayerCount: 2
Fore
SplineSet
79 543 m 1,0,1
 60 543 60 543 46 555 c 1,2,3
 48 608 48 608 73 680 c 1,4,-1
 470 680 l 1,5,-1
 481 670 l 1,6,-1
 185 0 l 1,7,8
 170 -10 170 -10 152 -10 c 0,9,10
 124 -10 124 -10 112 0 c 1,11,-1
 388 610 l 1,12,-1
 115 610 l 1,13,14
 94 583 94 583 83 554 c 2,15,-1
 79 543 l 1,0,1
EndSplineSet
EndChar

StartChar: eight
Encoding: 56 56 27
Width: 479
GlyphClass: 2
Flags: W
LayerCount: 2
Fore
SplineSet
112 497 m 0,0,1
 112 586 112 586 165 638 c 128,-1,2
 218 690 218 690 286.5 690 c 128,-1,3
 355 690 355 690 389 652 c 128,-1,4
 423 614 423 614 423 556 c 0,5,6
 423 460 423 460 302 378 c 1,7,8
 342 349 342 349 365.5 328 c 128,-1,9
 389 307 389 307 409.5 273.5 c 128,-1,10
 430 240 430 240 430 205 c 0,11,12
 430 114 430 114 367.5 52 c 128,-1,13
 305 -10 305 -10 205 -10 c 0,14,15
 124 -10 124 -10 81 29.5 c 128,-1,16
 38 69 38 69 38 139.5 c 128,-1,17
 38 210 38 210 77 262 c 128,-1,18
 116 314 116 314 199 364 c 1,19,20
 112 433 112 433 112 497 c 0,0,1
345 109.5 m 128,-1,22
 364 142 364 142 364 175 c 128,-1,23
 364 208 364 208 341.5 239.5 c 128,-1,24
 319 271 319 271 297.5 289 c 128,-1,25
 276 307 276 307 232 339 c 1,26,27
 167 300 167 300 137 264 c 128,-1,28
 107 228 107 228 107 166 c 0,29,30
 107 128 107 128 127.5 98 c 128,-1,31
 148 68 148 68 181 60 c 1,32,-1
 300 60 l 1,33,21
 326 77 326 77 345 109.5 c 128,-1,22
187.5 592 m 128,-1,35
 172 564 172 564 172 530 c 128,-1,36
 172 496 172 496 197 466.5 c 128,-1,37
 222 437 222 437 270 402 c 1,38,39
 351 466 351 466 351 539 c 0,40,41
 351 572 351 572 337 601 c 128,-1,42
 323 630 323 630 303 632 c 1,43,-1
 229 632 l 1,44,34
 203 620 203 620 187.5 592 c 128,-1,35
EndSplineSet
EndChar

StartChar: nine
Encoding: 57 57 28
Width: 516
GlyphClass: 2
Flags: W
LayerCount: 2
Fore
SplineSet
164 -10 m 0,0,1
 131 -10 131 -10 102.5 -1.5 c 128,-1,2
 74 7 74 7 62 16 c 2,3,-1
 50 24 l 1,4,5
 51 48 51 48 60 60 c 1,6,-1
 244 60 l 1,7,8
 283 74 283 74 320 139.5 c 128,-1,9
 357 205 357 205 375 290 c 1,10,11
 305 224 305 224 203 224 c 0,12,13
 48 224 48 224 48 417 c 0,14,15
 48 507 48 507 106 596 c 1,16,17
 134 637 134 637 178 663.5 c 128,-1,18
 222 690 222 690 274 690 c 0,19,20
 368 690 368 690 414.5 629 c 128,-1,21
 461 568 461 568 461 438 c 0,22,23
 461 319 461 319 416 205 c 0,24,25
 393 145 393 145 359.5 97.5 c 128,-1,26
 326 50 326 50 275 20 c 128,-1,27
 224 -10 224 -10 164 -10 c 0,0,1
389 409 m 0,28,29
 389 487 389 487 364 542 c 128,-1,30
 339 597 339 597 304 625 c 1,31,-1
 206 625 l 1,32,33
 169 605 169 605 142 554.5 c 128,-1,34
 115 504 115 504 115 443 c 128,-1,35
 115 382 115 382 145 332.5 c 128,-1,36
 175 283 175 283 222 283 c 2,37,-1
 280 283 l 1,38,39
 331 294 331 294 385 348 c 1,40,41
 389 388 389 388 389 409 c 0,28,29
EndSplineSet
EndChar

StartChar: colon
Encoding: 58 58 29
Width: 249
GlyphClass: 2
Flags: W
LayerCount: 2
Fore
SplineSet
98 75.5 m 128,-1,1
 117 85 117 85 137 85 c 128,-1,2
 157 85 157 85 168.5 76 c 128,-1,3
 180 67 180 67 180 56 c 1,4,-1
 175 20 l 1,5,6
 164 -10 164 -10 111 -10 c 0,7,8
 91 -10 91 -10 80.5 -1 c 128,-1,9
 70 8 70 8 70 20 c 1,10,-1
 74 51 l 1,11,0
 79 66 79 66 98 75.5 c 128,-1,1
130 440.5 m 128,-1,13
 149 450 149 450 169 450 c 128,-1,14
 189 450 189 450 200.5 441 c 128,-1,15
 212 432 212 432 212 421 c 1,16,-1
 207 385 l 1,17,18
 196 355 196 355 143 355 c 0,19,20
 123 355 123 355 112.5 364 c 128,-1,21
 102 373 102 373 102 385 c 1,22,-1
 106 416 l 1,23,12
 111 431 111 431 130 440.5 c 128,-1,13
EndSplineSet
EndChar

StartChar: semicolon
Encoding: 59 59 30
Width: 235
GlyphClass: 2
Flags: W
LayerCount: 2
Fore
SplineSet
49 -174 m 1,0,1
 34 -169 34 -169 20 -155 c 1,2,-1
 20 -143 l 1,3,4
 48 -119 48 -119 70 -83.5 c 128,-1,5
 92 -48 92 -48 92 -23.5 c 128,-1,6
 92 1 92 1 82 20.5 c 128,-1,7
 72 40 72 40 63 40 c 1,8,-1
 63 71 l 1,9,10
 102 84 102 84 143 118 c 1,11,-1
 150 118 l 1,12,13
 169 89 169 89 169 50 c 128,-1,14
 169 11 169 11 139 -47 c 128,-1,15
 109 -105 109 -105 79 -140 c 2,16,-1
 49 -174 l 1,0,1
106 440.5 m 128,-1,18
 125 450 125 450 145 450 c 128,-1,19
 165 450 165 450 176.5 441 c 128,-1,20
 188 432 188 432 188 421 c 1,21,-1
 183 385 l 1,22,23
 172 355 172 355 119 355 c 0,24,25
 99 355 99 355 88.5 364 c 128,-1,26
 78 373 78 373 78 385 c 1,27,-1
 82 416 l 1,28,17
 87 431 87 431 106 440.5 c 128,-1,18
EndSplineSet
EndChar

StartChar: less
Encoding: 60 60 31
Width: 474
GlyphClass: 2
Flags: W
LayerCount: 2
Fore
SplineSet
413 133 m 1,0,-1
 413 123 l 1,1,2
 397 103 397 103 362 83 c 1,3,-1
 50 287 l 1,4,-1
 46 302 l 1,5,-1
 372 513 l 1,6,7
 396 513 396 513 412 493 c 0,8,9
 416 488 416 488 418 483 c 1,10,-1
 143 311 l 1,11,-1
 413 133 l 1,0,-1
EndSplineSet
EndChar

StartChar: equal
Encoding: 61 61 32
Width: 475
GlyphClass: 2
Flags: W
LayerCount: 2
Fore
SplineSet
182 304 m 2,0,1
 270 304 270 304 381 314 c 1,2,-1
 397 300 l 1,3,-1
 384 237 l 1,4,-1
 91 237 l 1,5,6
 86 258 86 258 86 270 c 1,7,-1
 91 304 l 1,8,-1
 182 304 l 2,0,1
182 429 m 2,9,10
 270 429 270 429 381 439 c 1,11,-1
 397 425 l 1,12,-1
 384 362 l 1,13,-1
 91 362 l 1,14,15
 86 383 86 383 86 395 c 1,16,-1
 91 429 l 1,17,-1
 182 429 l 2,9,10
EndSplineSet
EndChar

StartChar: greater
Encoding: 62 62 33
Width: 462
GlyphClass: 2
Flags: W
LayerCount: 2
Fore
SplineSet
413 316 m 1,0,-1
 87 105 l 1,1,2
 63 105 63 105 47 125 c 0,3,4
 43 130 43 130 41 135 c 1,5,-1
 316 307 l 1,6,-1
 53 479 l 1,7,-1
 53 489 l 1,8,9
 69 509 69 509 104 529 c 1,10,-1
 409 331 l 1,11,-1
 413 316 l 1,0,-1
EndSplineSet
EndChar

StartChar: question
Encoding: 63 63 34
Width: 372
GlyphClass: 2
Flags: W
LayerCount: 2
Fore
SplineSet
70 75.5 m 128,-1,1
 89 85 89 85 109 85 c 128,-1,2
 129 85 129 85 140.5 76 c 128,-1,3
 152 67 152 67 152 56 c 1,4,-1
 147 20 l 1,5,6
 136 -10 136 -10 83 -10 c 0,7,8
 63 -10 63 -10 52.5 -1 c 128,-1,9
 42 8 42 8 42 20 c 1,10,-1
 46 51 l 1,11,0
 51 66 51 66 70 75.5 c 128,-1,1
287 452 m 0,12,13
 287 513 287 513 234 572.5 c 128,-1,14
 181 632 181 632 123 644 c 1,15,-1
 123 662 l 1,16,-1
 176 697 l 1,17,18
 241 677 241 677 298.5 618.5 c 128,-1,19
 356 560 356 560 356 480 c 128,-1,20
 356 400 356 400 300.5 345 c 128,-1,21
 245 290 245 290 166 290 c 1,22,-1
 147 171 l 1,23,24
 134 166 134 166 113 166 c 1,25,-1
 90 171 l 1,26,-1
 104 335 l 1,27,-1
 116 347 l 1,28,-1
 228 347 l 1,29,30
 287 378 287 378 287 452 c 0,12,13
EndSplineSet
EndChar

StartChar: at
Encoding: 64 64 35
Width: 1207
GlyphClass: 2
Flags: W
LayerCount: 2
Fore
SplineSet
1067.5 493.5 m 128,-1,1
 1088 433 1088 433 1088 345.5 c 128,-1,2
 1088 258 1088 258 1057.5 178 c 128,-1,3
 1027 98 1027 98 967 12 c 1,4,5
 834 12 834 12 722 -15 c 1,6,7
 686 -15 686 -15 686 30 c 1,8,-1
 705 173 l 1,9,-1
 695 179 l 1,10,11
 658 89 658 89 620 39.5 c 128,-1,12
 582 -10 582 -10 520 -10 c 128,-1,13
 458 -10 458 -10 416 35.5 c 128,-1,14
 374 81 374 81 374 159 c 0,15,16
 374 288 374 288 451 384 c 128,-1,17
 528 480 528 480 642 480 c 0,18,19
 679 480 679 480 726 451 c 1,20,21
 728 469 728 469 730 480 c 1,22,23
 780 495 780 495 825 495 c 1,24,25
 806 418 806 418 793.5 329 c 128,-1,26
 781 240 781 240 769 60 c 1,27,-1
 936 60 l 1,28,29
 945 69 945 69 960 95 c 128,-1,30
 975 121 975 121 984 148 c 0,31,32
 1010 219 1010 219 1010 311 c 0,33,34
 1010 438 1010 438 951 524.5 c 128,-1,35
 892 611 892 611 799 633 c 1,36,-1
 538 633 l 1,37,38
 415 574 415 574 321.5 437 c 128,-1,39
 228 300 228 300 228 163 c 0,40,41
 228 -14 228 -14 308 -86 c 0,42,43
 348 -123 348 -123 396 -141.5 c 128,-1,44
 444 -160 444 -160 512 -168 c 1,45,-1
 810 -168 l 1,46,47
 810 -190 810 -190 789 -211 c 1,48,49
 584 -244 584 -244 527 -244 c 0,50,51
 334 -244 334 -244 237 -155 c 128,-1,52
 140 -66 140 -66 140 105 c 0,53,54
 140 221 140 221 182.5 331 c 128,-1,55
 225 441 225 441 301 526.5 c 128,-1,56
 377 612 377 612 490.5 663.5 c 128,-1,57
 604 715 604 715 737 715 c 0,58,59
 826 715 826 715 895.5 685 c 128,-1,60
 965 655 965 655 1006 604.5 c 128,-1,0
 1047 554 1047 554 1067.5 493.5 c 128,-1,1
450 187 m 0,61,62
 450 143 450 143 470 107.5 c 128,-1,63
 490 72 490 72 515 60 c 1,64,-1
 563 60 l 1,65,66
 621 71 621 71 704 270 c 1,67,68
 708 312 708 312 720 410 c 1,69,-1
 560 410 l 1,70,71
 521 403 521 403 485.5 332.5 c 128,-1,72
 450 262 450 262 450 187 c 0,61,62
EndSplineSet
EndChar

StartChar: A
Encoding: 65 65 36
Width: 672
GlyphClass: 2
Flags: W
LayerCount: 2
Fore
SplineSet
682 31 m 1,0,1
 682 8 682 8 672 -12 c 1,2,3
 569 -5 569 -5 532 -5 c 1,4,-1
 427 -12 l 1,5,6
 427 11 427 11 437 31 c 1,7,8
 466 38 466 38 492 51 c 1,9,10
 461 210 461 210 456 232 c 1,11,12
 339 235 339 235 301.5 235 c 128,-1,13
 264 235 264 235 214 231 c 1,14,-1
 126 51 l 1,15,-1
 212 31 l 1,16,17
 212 8 212 8 202 -12 c 1,18,19
 122 -5 122 -5 85 -5 c 1,20,-1
 -10 -12 l 1,21,22
 -10 11 -10 11 0 31 c 1,23,24
 32 40 32 40 59 59 c 1,25,26
 246 389 246 389 358 637 c 1,27,-1
 350 669 l 1,28,29
 393 690 393 690 442 690 c 1,30,31
 536 265 536 265 599 46 c 1,32,-1
 682 31 l 1,0,1
239 283 m 1,33,34
 286 280 286 280 335.5 280 c 128,-1,35
 385 280 385 280 445 282 c 1,36,37
 433 339 433 339 379 556 c 1,38,39
 326 459 326 459 239 283 c 1,33,34
EndSplineSet
EndChar

StartChar: B
Encoding: 66 66 37
Width: 583
GlyphClass: 2
Flags: W
LayerCount: 2
Fore
SplineSet
342 690 m 0,0,1
 520 690 520 690 520 550 c 0,2,3
 520 427 520 427 411 373 c 1,4,5
 476 358 476 358 509 319.5 c 128,-1,6
 542 281 542 281 542 229 c 0,7,8
 542 107 542 107 462 48.5 c 128,-1,9
 382 -10 382 -10 253 -10 c 0,10,11
 220 -10 220 -10 175.5 -5 c 128,-1,12
 131 0 131 0 115 0 c 1,13,-1
 20 -7 l 1,14,15
 20 16 20 16 30 36 c 1,16,17
 70 48 70 48 98 72 c 1,18,19
 124 292 124 292 143 626 c 1,20,-1
 68 644 l 1,21,22
 68 667 68 667 78 687 c 1,23,24
 142 680 142 680 179 680 c 128,-1,25
 216 680 216 680 270 685 c 128,-1,26
 324 690 324 690 342 690 c 0,0,1
338 336 m 2,27,-1
 200 336 l 1,28,29
 196 289 196 289 184 60 c 1,30,-1
 378 60 l 1,31,32
 465 93 465 93 465 199 c 0,33,34
 465 261 465 261 425.5 298.5 c 128,-1,35
 386 336 386 336 338 336 c 2,27,-1
447 521 m 0,36,37
 447 558 447 558 430 588 c 128,-1,38
 413 618 413 618 382 625 c 1,39,-1
 228 625 l 1,40,41
 212 496 212 496 203 382 c 1,42,-1
 348 382 l 1,43,44
 447 426 447 426 447 521 c 0,36,37
EndSplineSet
EndChar

StartChar: C
Encoding: 67 67 38
Width: 582
GlyphClass: 2
Flags: W
LayerCount: 2
Fore
SplineSet
147 487.5 m 128,-1,1
 101 395 101 395 101 301.5 c 128,-1,2
 101 208 101 208 136.5 142.5 c 128,-1,3
 172 77 172 77 240 60 c 1,4,-1
 479 60 l 1,5,6
 479 37 479 37 469 17 c 1,7,8
 328 -20 328 -20 246 -20 c 0,9,10
 140 -20 140 -20 78.5 54 c 128,-1,11
 17 128 17 128 17 241 c 0,12,13
 17 380 17 380 80 496 c 0,14,15
 148 621 148 621 268 670 c 0,16,17
 332 696 332 696 394.5 696 c 128,-1,18
 457 696 457 696 496.5 677.5 c 128,-1,19
 536 659 536 659 548 635 c 1,20,21
 527 597 527 597 514 536 c 1,22,-1
 509 516 l 1,23,24
 484 507 484 507 455 507 c 1,25,26
 463 529 463 529 463 558 c 0,27,28
 463 607 463 607 437 625 c 1,29,-1
 277 625 l 1,30,0
 193 580 193 580 147 487.5 c 128,-1,1
EndSplineSet
EndChar

StartChar: D
Encoding: 68 68 39
Width: 657
GlyphClass: 2
Flags: W
LayerCount: 2
Fore
SplineSet
195 680 m 1,0,-1
 370 690 l 1,1,2
 424 690 424 690 469 670 c 128,-1,3
 514 650 514 650 544 618 c 128,-1,4
 574 586 574 586 595 544 c 0,5,6
 634 467 634 467 634 383 c 0,7,8
 634 204 634 204 529 97 c 128,-1,9
 424 -10 424 -10 245 -10 c 0,10,11
 213 -10 213 -10 174 -5 c 128,-1,12
 135 0 135 0 123 0 c 2,13,-1
 102 0 l 1,14,-1
 20 -7 l 1,15,16
 20 16 20 16 30 36 c 1,17,18
 70 48 70 48 98 72 c 1,19,20
 119 249 119 249 142 626 c 1,21,-1
 68 644 l 1,22,23
 68 667 68 667 78 687 c 1,24,25
 158 680 158 680 195 680 c 1,0,-1
352 625 m 2,26,-1
 217 625 l 1,27,28
 199 471 199 471 195.5 399.5 c 128,-1,29
 192 328 192 328 188 224 c 128,-1,30
 184 120 184 120 181 60 c 1,31,-1
 374 60 l 1,32,33
 451 90 451 90 502.5 180 c 128,-1,34
 554 270 554 270 554 364.5 c 128,-1,35
 554 459 554 459 497 542 c 128,-1,36
 440 625 440 625 352 625 c 2,26,-1
EndSplineSet
EndChar

StartChar: E
Encoding: 69 69 40
Width: 574
GlyphClass: 2
Flags: W
LayerCount: 2
Fore
SplineSet
537 680 m 1,0,1
 546 672 546 672 553 655 c 1,2,3
 532 618 532 618 518 565 c 1,4,-1
 514 548 l 1,5,6
 494 539 494 539 465 539 c 1,7,8
 474 579 474 579 474 599 c 128,-1,9
 474 619 474 619 459 625 c 1,10,-1
 216 625 l 1,11,12
 197 461 197 461 190 370 c 1,13,-1
 414 370 l 1,14,15
 430 394 430 394 438 424 c 1,16,17
 445 427 445 427 458 427 c 1,18,-1
 480 423 l 1,19,20
 459 357 459 357 449 254 c 1,21,22
 441 250 441 250 429 250 c 1,23,-1
 412 253 l 1,24,25
 412 293 412 293 404 320 c 1,26,-1
 187 320 l 1,27,28
 178 198 178 198 172 60 c 1,29,-1
 431 60 l 1,30,31
 450 88 450 88 459 124 c 2,32,-1
 462 137 l 1,33,34
 493 131 493 131 504 116 c 2,35,-1
 508 110 l 1,36,37
 488 60 488 60 482 0 c 1,38,-1
 107 0 l 1,39,-1
 12 -7 l 1,40,41
 12 16 12 16 22 36 c 1,42,43
 58 47 58 47 86 69 c 1,44,45
 112 292 112 292 131 626 c 1,46,-1
 56 644 l 1,47,48
 56 667 56 667 66 687 c 1,49,50
 130 680 130 680 170 680 c 2,51,-1
 537 680 l 1,0,1
EndSplineSet
EndChar

StartChar: F
Encoding: 70 70 41
Width: 527
GlyphClass: 2
Flags: W
LayerCount: 2
Fore
SplineSet
75 644 m 1,0,1
 75 667 75 667 85 687 c 1,2,3
 165 680 165 680 202 680 c 2,4,-1
 556 680 l 1,5,6
 565 672 565 672 572 655 c 1,7,8
 551 618 551 618 538 565 c 1,9,-1
 533 548 l 1,10,11
 513 539 513 539 484 539 c 1,12,13
 493 579 493 579 493 599 c 128,-1,14
 493 619 493 619 478 625 c 1,15,-1
 235 625 l 1,16,17
 216 461 216 461 209 370 c 1,18,-1
 433 370 l 1,19,20
 449 394 449 394 457 424 c 1,21,22
 464 427 464 427 477 427 c 1,23,-1
 499 423 l 1,24,25
 478 357 478 357 468 254 c 1,26,27
 460 250 460 250 448 250 c 1,28,-1
 431 253 l 1,29,30
 431 293 431 293 423 320 c 1,31,-1
 206 320 l 1,32,33
 198 206 198 206 190 51 c 1,34,-1
 272 36 l 1,35,36
 272 13 272 13 262 -7 c 1,37,38
 179 0 179 0 145 0 c 0,39,40
 97 0 97 0 42 -6 c 1,41,-1
 27 -7 l 1,42,43
 27 16 27 16 37 36 c 1,44,45
 77 48 77 48 105 72 c 1,46,47
 131 292 131 292 150 626 c 1,48,-1
 75 644 l 1,0,1
EndSplineSet
EndChar

StartChar: G
Encoding: 71 71 42
Width: 655
GlyphClass: 2
Flags: W
LayerCount: 2
Fore
SplineSet
548 37 m 1,0,1
 389 -20 389 -20 280.5 -20 c 128,-1,2
 172 -20 172 -20 114 52.5 c 128,-1,3
 56 125 56 125 56 241 c 0,4,5
 56 380 56 380 119 496 c 0,6,7
 187 621 187 621 306 670 c 0,8,9
 371 696 371 696 434.5 696 c 128,-1,10
 498 696 498 696 552 676.5 c 128,-1,11
 606 657 606 657 617 635 c 1,12,13
 596 597 596 597 582 536 c 1,14,-1
 578 516 l 1,15,16
 553 507 553 507 524 507 c 1,17,18
 532 529 532 529 532 558 c 0,19,20
 532 607 532 607 506 625 c 1,21,-1
 316 625 l 1,22,23
 232 580 232 580 186 487.5 c 128,-1,24
 140 395 140 395 140 301.5 c 128,-1,25
 140 208 140 208 177 142.5 c 128,-1,26
 214 77 214 77 282 60 c 1,27,-1
 472 60 l 1,28,29
 491 144 491 144 493 227 c 1,30,-1
 417 244 l 1,31,32
 417 267 417 267 427 287 c 1,33,34
 490 280 490 280 529 280 c 1,35,-1
 634 287 l 1,36,37
 634 264 634 264 624 244 c 1,38,39
 593 238 593 238 566 224 c 1,40,41
 554 157 554 157 548 37 c 1,0,1
EndSplineSet
EndChar

StartChar: H
Encoding: 72 72 43
Width: 755
GlyphClass: 2
Flags: W
LayerCount: 2
Fore
SplineSet
288 36 m 1,0,1
 288 13 288 13 278 -7 c 1,2,3
 195 0 195 0 159 0 c 0,4,5
 104 0 104 0 56 -6 c 1,6,-1
 43 -7 l 1,7,8
 43 16 43 16 53 36 c 1,9,10
 93 48 93 48 121 72 c 1,11,12
 147 295 147 295 166 630 c 1,13,-1
 88 644 l 1,14,15
 88 667 88 667 98 687 c 1,16,17
 181 680 181 680 218 680 c 1,18,-1
 333 687 l 1,19,20
 333 664 333 664 323 644 c 1,21,22
 279 636 279 636 250 615 c 1,23,24
 234 484 234 484 225 370 c 1,25,-1
 548 370 l 1,26,27
 558 546 558 546 564 630 c 1,28,-1
 486 644 l 1,29,30
 486 667 486 667 496 687 c 1,31,32
 589 680 589 680 626 680 c 1,33,-1
 731 687 l 1,34,35
 731 664 731 664 721 644 c 1,36,37
 677 636 677 636 648 615 c 1,38,39
 621 380 621 380 604 51 c 1,40,-1
 686 36 l 1,41,42
 686 13 686 13 676 -7 c 1,43,44
 593 0 593 0 557 0 c 0,45,46
 502 0 502 0 454 -6 c 1,47,-1
 441 -7 l 1,48,49
 441 16 441 16 451 36 c 1,50,51
 491 48 491 48 519 72 c 1,52,53
 537 230 537 230 544 321 c 1,54,-1
 222 321 l 1,55,56
 214 206 214 206 206 51 c 1,57,-1
 288 36 l 1,0,1
EndSplineSet
EndChar

StartChar: I
Encoding: 73 73 44
Width: 334
GlyphClass: 2
Flags: W
LayerCount: 2
Fore
SplineSet
272 36 m 1,0,1
 272 13 272 13 262 -7 c 1,2,3
 164 0 164 0 134 0 c 0,4,5
 90 0 90 0 40 -6 c 1,6,-1
 27 -7 l 1,7,8
 27 16 27 16 37 36 c 1,9,10
 75 47 75 47 103 70 c 1,11,12
 129 295 129 295 148 631 c 1,13,-1
 72 644 l 1,14,15
 72 667 72 667 82 687 c 1,16,17
 170 680 170 680 207 680 c 1,18,-1
 317 687 l 1,19,20
 317 664 317 664 307 644 c 1,21,22
 260 636 260 636 232 613 c 1,23,24
 206 396 206 396 188 51 c 1,25,-1
 272 36 l 1,0,1
EndSplineSet
EndChar

StartChar: J
Encoding: 74 74 45
Width: 295
GlyphClass: 2
Flags: W
LayerCount: 2
Fore
SplineSet
104 644 m 1,0,1
 104 667 104 667 114 687 c 1,2,3
 207 680 207 680 244 680 c 1,4,-1
 349 687 l 1,5,6
 349 664 349 664 339 644 c 1,7,8
 290 635 290 635 261 611 c 1,9,10
 246 506 246 506 237.5 346 c 128,-1,11
 229 186 229 186 217.5 98.5 c 128,-1,12
 206 11 206 11 179 -55.5 c 128,-1,13
 152 -122 152 -122 120 -163 c 0,14,15
 58 -240 58 -240 21 -260 c 1,16,-1
 12 -260 l 1,17,18
 0 -245 0 -245 0 -217 c 1,19,20
 50 -170 50 -170 89 -90 c 128,-1,21
 128 -10 128 -10 139.5 75.5 c 128,-1,22
 151 161 151 161 157 241.5 c 128,-1,23
 163 322 163 322 169.5 454.5 c 128,-1,24
 176 587 176 587 179 631 c 1,25,-1
 104 644 l 1,0,1
EndSplineSet
EndChar

StartChar: K
Encoding: 75 75 46
Width: 598
GlyphClass: 2
Flags: W
LayerCount: 2
Fore
SplineSet
64 644 m 1,0,1
 64 667 64 667 74 687 c 1,2,3
 149 680 149 680 184 680 c 0,4,5
 239 680 239 680 294 686 c 1,6,-1
 309 687 l 1,7,8
 309 664 309 664 299 644 c 1,9,10
 255 636 255 636 226 615 c 1,11,12
 207 444 207 444 201 369 c 1,13,14
 232 376 232 376 281 390 c 1,15,16
 351 460 351 460 384.5 498 c 128,-1,17
 418 536 418 536 480 618 c 1,18,-1
 400 638 l 1,19,20
 400 661 400 661 412 681 c 1,21,22
 484 674 484 674 521 674 c 1,23,-1
 618 681 l 1,24,25
 618 658 618 658 608 638 c 1,26,27
 569 634 569 634 536 601 c 0,28,29
 423 488 423 488 328 368 c 1,30,31
 415 241 415 241 531 46 c 1,32,-1
 614 31 l 1,33,34
 614 8 614 8 604 -12 c 1,35,36
 514 -5 514 -5 449 -5 c 1,37,38
 353 177 353 177 246 330 c 1,39,-1
 198 321 l 1,40,41
 190 206 190 206 182 51 c 1,42,-1
 264 36 l 1,43,44
 264 13 264 13 254 -7 c 1,45,46
 151 0 151 0 114 0 c 1,47,-1
 19 -7 l 1,48,49
 19 16 19 16 29 36 c 1,50,51
 69 48 69 48 97 72 c 1,52,53
 123 295 123 295 142 630 c 1,54,-1
 64 644 l 1,0,1
EndSplineSet
EndChar

StartChar: L
Encoding: 76 76 47
Width: 547
GlyphClass: 2
Flags: W
LayerCount: 2
Fore
SplineSet
76 644 m 1,0,1
 76 667 76 667 86 687 c 1,2,3
 179 680 179 680 210 680 c 0,4,5
 253 680 253 680 306 686 c 1,6,-1
 321 687 l 1,7,8
 321 664 321 664 311 644 c 1,9,10
 261 635 261 635 233 611 c 1,11,12
 206 381 206 381 190 60 c 1,13,-1
 465 60 l 1,14,15
 484 88 484 88 492 132 c 1,16,-1
 494 147 l 1,17,18
 524 141 524 141 543 120 c 1,19,20
 522 68 522 68 518 0 c 1,21,-1
 121 0 l 1,22,-1
 26 -7 l 1,23,24
 26 16 26 16 36 36 c 1,25,26
 76 48 76 48 104 72 c 1,27,28
 129 289 129 289 150 631 c 1,29,-1
 76 644 l 1,0,1
EndSplineSet
EndChar

StartChar: M
Encoding: 77 77 48
Width: 855
GlyphClass: 2
Flags: W
LayerCount: 2
Fore
SplineSet
236 36 m 1,0,1
 236 13 236 13 226 -7 c 1,2,3
 141 0 141 0 104 0 c 1,4,-1
 9 -7 l 1,5,6
 9 16 9 16 19 36 c 1,7,8
 59 47 59 47 87 72 c 1,9,10
 132 385 132 385 153 625 c 1,11,-1
 70 644 l 1,12,13
 70 667 70 667 80 687 c 1,14,15
 141 680 141 680 180 680 c 2,16,-1
 266 680 l 1,17,18
 353 334 353 334 421 139 c 1,19,20
 502 312 502 312 647 680 c 1,21,-1
 738 680 l 1,22,-1
 843 687 l 1,23,24
 843 664 843 664 833 644 c 1,25,26
 788 636 788 636 759 614 c 1,27,28
 733 339 733 339 728 52 c 1,29,-1
 813 36 l 1,30,31
 813 13 813 13 803 -7 c 1,32,33
 720 0 720 0 684 0 c 0,34,35
 629 0 629 0 581 -6 c 1,36,-1
 568 -7 l 1,37,38
 568 16 568 16 578 36 c 1,39,40
 615 47 615 47 643 70 c 1,41,42
 663 259 663 259 675 578 c 1,43,44
 533 269 533 269 434 0 c 1,45,-1
 420 -10 l 1,46,-1
 361 0 l 1,47,48
 284 315 284 315 209 563 c 1,49,50
 170 289 170 289 153 55 c 1,51,-1
 236 36 l 1,0,1
EndSplineSet
EndChar

StartChar: N
Encoding: 78 78 49
Width: 672
GlyphClass: 2
Flags: W
LayerCount: 2
Fore
SplineSet
254 36 m 1,0,1
 254 13 254 13 244 -7 c 1,2,3
 154 0 154 0 117 0 c 1,4,-1
 22 -7 l 1,5,6
 22 16 22 16 32 36 c 1,7,8
 71 47 71 47 99 71 c 1,9,10
 117 203 117 203 124 287.5 c 128,-1,11
 131 372 131 372 138.5 471 c 128,-1,12
 146 570 146 570 151 626 c 1,13,-1
 68 644 l 1,14,15
 68 667 68 667 78 687 c 1,16,17
 142 680 142 680 182 680 c 2,18,-1
 236 680 l 1,19,20
 323 503 323 503 414 343 c 128,-1,21
 505 183 505 183 516 163 c 1,22,23
 546 449 546 449 554 626 c 1,24,-1
 469 644 l 1,25,26
 469 667 469 667 479 687 c 1,27,28
 546 680 546 680 580 680 c 0,29,30
 634 680 634 680 689 686 c 1,31,-1
 704 687 l 1,32,33
 704 664 704 664 694 644 c 1,34,35
 648 636 648 636 620 614 c 1,36,37
 584 319 584 319 572 0 c 1,38,-1
 558 -10 l 1,39,-1
 499 0 l 1,40,41
 312 356 312 356 210 537 c 1,42,43
 195 416 195 416 172 53 c 1,44,-1
 254 36 l 1,0,1
EndSplineSet
EndChar

StartChar: O
Encoding: 79 79 50
Width: 687
GlyphClass: 2
Flags: W
LayerCount: 2
Fore
SplineSet
38 241 m 0,0,1
 38 381 38 381 100 495 c 0,2,3
 168 620 168 620 287 668 c 0,4,5
 352 695 352 695 428 695 c 0,6,7
 534 695 534 695 595.5 621.5 c 128,-1,8
 657 548 657 548 657 435 c 0,9,10
 657 261 657 261 562 126 c 0,11,12
 516 60 516 60 439.5 20 c 128,-1,13
 363 -20 363 -20 262 -20 c 128,-1,14
 161 -20 161 -20 99.5 54 c 128,-1,15
 38 128 38 128 38 241 c 0,0,1
168 487.5 m 128,-1,17
 122 395 122 395 122 301.5 c 128,-1,18
 122 208 122 208 157.5 142.5 c 128,-1,19
 193 77 193 77 261 60 c 1,20,-1
 400 60 l 1,21,22
 484 105 484 105 528.5 194 c 128,-1,23
 573 283 573 283 573 376 c 128,-1,24
 573 469 573 469 538.5 536 c 128,-1,25
 504 603 504 603 438 625 c 1,26,-1
 298 625 l 1,27,16
 214 580 214 580 168 487.5 c 128,-1,17
EndSplineSet
EndChar

StartChar: P
Encoding: 80 80 51
Width: 469
GlyphClass: 2
Flags: W
LayerCount: 2
Fore
SplineSet
183 680 m 1,0,-1
 320 690 l 1,1,2
 407 690 407 690 459 650.5 c 128,-1,3
 511 611 511 611 511 523 c 0,4,5
 511 410 511 410 426.5 345.5 c 128,-1,6
 342 281 342 281 224 281 c 2,7,-1
 183 281 l 1,8,-1
 170 51 l 1,9,-1
 252 36 l 1,10,11
 252 13 252 13 242 -7 c 1,12,13
 139 0 139 0 109 0 c 0,14,15
 65 0 65 0 20 -6 c 1,16,-1
 7 -7 l 1,17,18
 7 16 7 16 17 36 c 1,19,20
 57 48 57 48 85 72 c 1,21,22
 111 292 111 292 130 626 c 1,23,-1
 56 644 l 1,24,25
 56 667 56 667 66 687 c 1,26,27
 146 680 146 680 183 680 c 1,0,-1
395.5 390.5 m 128,-1,29
 433 436 433 436 433 489 c 128,-1,30
 433 542 433 542 411 579 c 128,-1,31
 389 616 389 616 348 625 c 1,32,-1
 215 625 l 1,33,34
 195 453 195 453 186 332 c 1,35,-1
 290 332 l 1,36,28
 358 345 358 345 395.5 390.5 c 128,-1,29
EndSplineSet
EndChar

StartChar: Q
Encoding: 81 81 52
Width: 679
GlyphClass: 2
Flags: W
LayerCount: 2
Fore
SplineSet
38 241 m 0,0,1
 38 381 38 381 100 495 c 0,2,3
 168 620 168 620 287 668 c 0,4,5
 352 695 352 695 428 695 c 0,6,7
 534 695 534 695 595.5 621.5 c 128,-1,8
 657 548 657 548 657 432.5 c 128,-1,9
 657 317 657 317 610.5 210.5 c 128,-1,10
 564 104 564 104 477 43 c 1,11,-1
 695 -97 l 1,12,-1
 695 -130 l 1,13,14
 567 -130 567 -130 496 -80 c 0,15,16
 448 -46 448 -46 394 0 c 1,17,18
 331 -20 331 -20 267 -20 c 0,19,20
 161 -20 161 -20 99.5 54 c 128,-1,21
 38 128 38 128 38 241 c 0,0,1
168 487.5 m 128,-1,23
 122 395 122 395 122 301.5 c 128,-1,24
 122 208 122 208 157.5 142.5 c 128,-1,25
 193 77 193 77 261 60 c 1,26,-1
 336 60 l 1,27,-1
 390 100 l 1,28,-1
 427 76 l 1,29,30
 498 125 498 125 535.5 208 c 128,-1,31
 573 291 573 291 573 380 c 128,-1,32
 573 469 573 469 538.5 536 c 128,-1,33
 504 603 504 603 438 625 c 1,34,-1
 298 625 l 1,35,22
 214 580 214 580 168 487.5 c 128,-1,23
EndSplineSet
EndChar

StartChar: R
Encoding: 82 82 53
Width: 577
GlyphClass: 2
Flags: W
LayerCount: 2
Fore
SplineSet
589 31 m 1,0,1
 589 8 589 8 579 -12 c 1,2,3
 495 -5 495 -5 430 -5 c 1,4,5
 377 135 377 135 302 286 c 1,6,7
 276 281 276 281 238 281 c 2,8,-1
 199 281 l 1,9,-1
 186 51 l 1,10,-1
 268 36 l 1,11,12
 268 13 268 13 258 -7 c 1,13,14
 155 0 155 0 118 0 c 1,15,-1
 23 -7 l 1,16,17
 23 16 23 16 33 36 c 1,18,19
 73 48 73 48 101 72 c 1,20,21
 127 292 127 292 146 626 c 1,22,-1
 72 644 l 1,23,24
 72 667 72 667 82 687 c 1,25,26
 162 680 162 680 199 680 c 1,27,-1
 335 690 l 1,28,29
 422 690 422 690 474.5 650.5 c 128,-1,30
 527 611 527 611 527 528.5 c 128,-1,31
 527 446 527 446 488 391.5 c 128,-1,32
 449 337 449 337 382 308 c 1,33,34
 446 159 446 159 511 44 c 1,35,-1
 589 31 l 1,0,1
449 498 m 0,36,37
 449 541 449 541 426.5 578.5 c 128,-1,38
 404 616 404 616 363 625 c 1,39,-1
 231 625 l 1,40,41
 211 453 211 453 202 332 c 1,42,-1
 304 332 l 1,43,44
 372 345 372 345 410.5 390.5 c 128,-1,45
 449 436 449 436 449 498 c 0,36,37
EndSplineSet
EndChar

StartChar: S
Encoding: 83 83 54
Width: 534
GlyphClass: 2
Flags: W
LayerCount: 2
Fore
SplineSet
248 625 m 1,0,1
 184 601 184 601 184 531.5 c 128,-1,2
 184 462 184 462 297 397 c 0,3,4
 392 343 392 343 434.5 299 c 128,-1,5
 477 255 477 255 477 205 c 0,6,7
 477 94 477 94 406.5 37 c 128,-1,8
 336 -20 336 -20 209 -20 c 0,9,10
 54 -20 54 -20 24 50 c 1,11,12
 45 88 45 88 58 149 c 1,13,-1
 63 169 l 1,14,15
 88 178 88 178 117 178 c 1,16,17
 109 156 109 156 109 127 c 0,18,19
 109 78 109 78 135 60 c 1,20,-1
 335 60 l 1,21,22
 394 97 394 97 394 168 c 0,23,24
 394 214 394 214 358 253.5 c 128,-1,25
 322 293 322 293 246.5 337 c 128,-1,26
 171 381 171 381 139 413 c 128,-1,27
 107 445 107 445 107 494 c 0,28,29
 107 595 107 595 175 645 c 128,-1,30
 243 695 243 695 354 695 c 0,31,32
 406 695 406 695 446.5 677.5 c 128,-1,33
 487 660 487 660 495 635 c 1,34,35
 474 597 474 597 460 536 c 1,36,-1
 456 516 l 1,37,38
 431 507 431 507 402 507 c 1,39,40
 410 529 410 529 410 558 c 0,41,42
 410 607 410 607 384 625 c 1,43,-1
 248 625 l 1,0,1
EndSplineSet
EndChar

StartChar: T
Encoding: 84 84 55
Width: 559
GlyphClass: 2
Flags: W
LayerCount: 2
Fore
SplineSet
391 36 m 1,0,1
 391 13 391 13 381 -7 c 1,2,3
 298 -1 298 -1 254 0 c 1,4,-1
 241 0 l 1,5,-1
 146 -7 l 1,6,7
 146 16 146 16 156 36 c 1,8,9
 194 47 194 47 222 70 c 1,10,11
 248 289 248 289 267 622 c 1,12,-1
 100 615 l 1,13,14
 82 586 82 586 74 546 c 1,15,16
 55 539 55 539 23 537 c 1,17,-1
 20 544 l 1,18,19
 38 610 38 610 45 687 c 1,20,21
 201 680 201 680 322 680 c 1,22,-1
 616 687 l 1,23,-1
 619 680 l 1,24,25
 597 630 597 630 584 558 c 2,26,-1
 580 536 l 1,27,28
 558 527 558 527 527 527 c 1,29,30
 537 570 537 570 541 615 c 1,31,32
 448 620 448 620 352 622 c 1,33,34
 324 379 324 379 307 51 c 1,35,-1
 391 36 l 1,0,1
EndSplineSet
EndChar

StartChar: U
Encoding: 85 85 56
Width: 703
GlyphClass: 2
Flags: W
LayerCount: 2
Fore
SplineSet
461 638 m 1,0,1
 461 661 461 661 473 681 c 1,2,3
 545 674 545 674 582 674 c 1,4,-1
 679 681 l 1,5,6
 679 658 679 658 669 638 c 1,7,8
 630 634 630 634 598 601 c 1,9,10
 575 308 575 308 560 220.5 c 128,-1,11
 545 133 545 133 529.5 95.5 c 128,-1,12
 514 58 514 58 483 31.5 c 128,-1,13
 452 5 452 5 405.5 -5 c 128,-1,14
 359 -15 359 -15 285 -15 c 0,15,16
 189 -15 189 -15 137 33 c 128,-1,17
 85 81 85 81 85 140.5 c 128,-1,18
 85 200 85 200 97.5 363.5 c 128,-1,19
 110 527 110 527 115 630 c 1,20,-1
 35 644 l 1,21,22
 35 667 35 667 45 687 c 1,23,24
 138 680 138 680 168 680 c 0,25,26
 212 680 212 680 266 686 c 1,27,-1
 280 687 l 1,28,29
 280 664 280 664 270 644 c 1,30,31
 224 636 224 636 195 614 c 1,32,33
 169 406 169 406 169 172 c 0,34,35
 169 123 169 123 208.5 91.5 c 128,-1,36
 248 60 248 60 298 60 c 2,37,-1
 433 60 l 1,38,39
 480 89 480 89 497 169 c 128,-1,40
 514 249 514 249 525 359.5 c 128,-1,41
 536 470 536 470 538 544 c 2,42,-1
 541 618 l 1,43,-1
 461 638 l 1,0,1
EndSplineSet
EndChar

StartChar: V
Encoding: 86 86 57
Width: 577
GlyphClass: 2
Flags: W
LayerCount: 2
Fore
SplineSet
374.5 55 m 128,-1,1
 298 -10 298 -10 193 -10 c 128,-1,2
 88 -10 88 -10 65 27 c 1,3,4
 92 361 92 361 95 610 c 1,5,-1
 18 610 l 1,6,7
 18 633 18 633 28 653 c 1,8,9
 95 661 95 661 149 685 c 1,10,11
 163 685 163 685 174 672.5 c 128,-1,12
 185 660 185 660 185 640 c 1,13,14
 155 233 155 233 155 60 c 1,15,-1
 285 60 l 1,16,17
 324 73 324 73 371 130 c 0,18,19
 446 221 446 221 468 365 c 0,20,21
 477 424 477 424 477 461 c 0,22,23
 477 577 477 577 448 640 c 1,24,25
 451 645 451 645 458.5 652.5 c 128,-1,26
 466 660 466 660 496 672.5 c 128,-1,27
 526 685 526 685 563 685 c 1,28,29
 563 568 563 568 544 442 c 128,-1,30
 525 316 525 316 488 218 c 128,-1,0
 451 120 451 120 374.5 55 c 128,-1,1
EndSplineSet
EndChar

StartChar: W
Encoding: 87 87 58
Width: 877
GlyphClass: 2
Flags: W
LayerCount: 2
Fore
SplineSet
561 60 m 2,0,1
 597 60 597 60 646 121 c 128,-1,2
 695 182 695 182 725 269.5 c 128,-1,3
 755 357 755 357 755 457 c 128,-1,4
 755 557 755 557 717 640 c 1,5,6
 722 645 722 645 731 652.5 c 128,-1,7
 740 660 740 660 772.5 672.5 c 128,-1,8
 805 685 805 685 842 685 c 1,9,10
 842 541 842 541 814.5 391.5 c 128,-1,11
 787 242 787 242 739 160 c 0,12,13
 640 -10 640 -10 508 -10 c 0,14,15
 471 -10 471 -10 446.5 0 c 128,-1,16
 422 10 422 10 416 20 c 2,17,-1
 411 30 l 1,18,-1
 423 173 l 1,19,-1
 413 179 l 1,20,21
 392 126 392 126 383.5 111.5 c 128,-1,22
 375 97 375 97 361.5 73 c 128,-1,23
 348 49 348 49 336.5 39 c 128,-1,24
 325 29 325 29 308 15 c 0,25,26
 276 -10 276 -10 230 -10 c 128,-1,27
 184 -10 184 -10 155.5 0 c 128,-1,28
 127 10 127 10 117 20 c 2,29,-1
 107 30 l 1,30,31
 134 364 134 364 137 610 c 1,32,-1
 60 610 l 1,33,34
 60 633 60 633 70 653 c 1,35,36
 137 661 137 661 191 685 c 1,37,38
 205 685 205 685 216 672.5 c 128,-1,39
 227 660 227 660 227 640 c 1,40,41
 197 233 197 233 197 60 c 1,42,-1
 265 60 l 2,43,44
 292 60 292 60 323 99 c 0,45,46
 378 169 378 169 420 287 c 1,47,48
 433 489 433 489 442 581 c 1,49,50
 488 596 488 596 533 596 c 1,51,52
 517 519 517 519 516 488 c 1,53,54
 504 361 504 361 494 130 c 2,55,-1
 491 60 l 1,56,-1
 561 60 l 2,0,1
EndSplineSet
EndChar

StartChar: X
Encoding: 88 88 59
Width: 492
GlyphClass: 2
Flags: W
LayerCount: 2
Fore
SplineSet
-12 608 m 1,0,1
 -12 631 -12 631 -2 651 c 1,2,3
 55 659 55 659 109 683 c 1,4,5
 139 672 139 672 162 632 c 0,6,7
 189 584 189 584 203 544 c 0,8,9
 230 472 230 472 246 422 c 1,10,-1
 432 681 l 1,11,12
 456 681 456 681 479 673.5 c 128,-1,13
 502 666 502 666 513 658 c 2,14,-1
 524 650 l 1,15,16
 457 593 457 593 412 531 c 2,17,-1
 274 342 l 1,18,-1
 291 291 l 2,19,20
 302 258 302 258 309.5 237.5 c 128,-1,21
 317 217 317 217 327 188 c 128,-1,22
 337 159 337 159 345 140.5 c 128,-1,23
 353 122 353 122 362 103 c 0,24,25
 381 66 381 66 396 60 c 1,26,-1
 494 60 l 1,27,28
 494 37 494 37 484 17 c 1,29,30
 417 9 417 9 363 -15 c 1,31,32
 333 -3 333 -3 304.5 47.5 c 128,-1,33
 276 98 276 98 260.5 141.5 c 128,-1,34
 245 185 245 185 220 267 c 1,35,-1
 21 -10 l 1,36,37
 -3 -10 -3 -10 -26 -2 c 128,-1,38
 -49 6 -49 6 -60 14 c 2,39,-1
 -71 21 l 1,40,41
 -9 70 -9 70 35 131 c 2,42,-1
 194 350 l 1,43,44
 156 467 156 467 129 532 c 128,-1,45
 102 597 102 597 79 608 c 1,46,-1
 -12 608 l 1,0,1
EndSplineSet
EndChar

StartChar: Y
Encoding: 89 89 60
Width: 543
GlyphClass: 2
Flags: W
LayerCount: 2
Fore
SplineSet
-5 -217 m 1,0,1
 -5 -193 -5 -193 4 -175 c 1,2,-1
 295 -175 l 1,3,4
 340 -153 340 -153 374 -34 c 0,5,6
 396 41 396 41 406 173 c 1,7,-1
 396 179 l 1,8,9
 368 114 368 114 307 54 c 0,10,11
 275 23 275 23 230.5 4 c 128,-1,12
 186 -15 186 -15 144 -15 c 128,-1,13
 102 -15 102 -15 76.5 -10.5 c 128,-1,14
 51 -6 51 -6 40 0 c 0,15,16
 15 13 15 13 14 22 c 2,17,-1
 13 27 l 1,18,19
 18 72 18 72 28 153.5 c 128,-1,20
 38 235 38 235 43 277.5 c 128,-1,21
 48 320 48 320 54 384 c 1,22,23
 68 511 68 511 73 625 c 1,24,-1
 -1 625 l 1,25,26
 -1 648 -1 648 9 668 c 1,27,28
 71 676 71 676 125 700 c 1,29,30
 139 700 139 700 150 687.5 c 128,-1,31
 161 675 161 675 161 655 c 1,32,33
 117 376 117 376 98 60 c 1,34,-1
 187 60 l 2,35,36
 234 60 234 60 303.5 131.5 c 128,-1,37
 373 203 373 203 407 278 c 1,38,39
 437 532 437 532 457 666 c 1,40,41
 507 681 507 681 552 681 c 1,42,43
 533 604 533 604 523.5 533.5 c 128,-1,44
 514 463 514 463 499 330.5 c 128,-1,45
 484 198 484 198 479.5 160 c 128,-1,46
 475 122 475 122 466 60.5 c 128,-1,47
 457 -1 457 -1 450 -27 c 128,-1,48
 443 -53 443 -53 431 -95 c 128,-1,49
 419 -137 419 -137 405.5 -153 c 128,-1,50
 392 -169 392 -169 373 -192.5 c 128,-1,51
 354 -216 354 -216 330 -224 c 0,52,53
 267 -245 267 -245 214 -245 c 0,54,55
 113 -245 113 -245 24 -224 c 2,56,-1
 -5 -217 l 1,0,1
EndSplineSet
EndChar

StartChar: Z
Encoding: 90 90 61
Width: 588
GlyphClass: 2
Flags: W
LayerCount: 2
Fore
SplineSet
124 549 m 1,0,1
 96 556 96 556 79 574 c 1,2,3
 102 655 102 655 102 690 c 1,4,5
 136 701 136 701 217 701 c 128,-1,6
 298 701 298 701 485 668 c 1,7,-1
 501 690 l 1,8,9
 540 690 540 690 568 676 c 1,10,-1
 578 672 l 1,11,-1
 578 662 l 1,12,-1
 146 60 l 1,13,-1
 488 60 l 1,14,15
 505 86 505 86 512 123 c 1,16,-1
 515 136 l 1,17,18
 543 129 543 129 560 111 c 1,19,20
 537 25 537 25 537 -10 c 1,21,22
 491 -21 491 -21 438 -21 c 0,23,24
 255 -21 255 -21 108 6 c 1,25,-1
 96 -10 l 1,26,27
 76 -10 76 -10 51.5 -3 c 128,-1,28
 27 4 27 4 18 14 c 1,29,-1
 18 24 l 1,30,-1
 454 625 l 1,31,-1
 151 625 l 1,32,33
 134 599 134 599 126 562 c 1,34,-1
 124 549 l 1,0,1
EndSplineSet
EndChar

StartChar: bracketleft
Encoding: 91 91 62
Width: 306
GlyphClass: 2
Flags: W
LayerCount: 2
Fore
SplineSet
319 646 m 1,0,-1
 219 646 l 1,1,2
 197 515 197 515 177.5 280.5 c 128,-1,3
 158 46 158 46 157 -107 c 1,4,-1
 244 -107 l 1,5,-1
 241 -139 l 1,6,7
 152 -150 152 -150 70 -150 c 1,8,9
 74 -96 74 -96 90 82 c 0,10,11
 131 525 131 525 138 690 c 1,12,-1
 323 678 l 1,13,-1
 319 646 l 1,0,-1
EndSplineSet
EndChar

StartChar: backslash
Encoding: 92 92 63
Width: 494
GlyphClass: 2
Flags: W
LayerCount: 2
Fore
SplineSet
24 711 m 1,0,1
 39 716 39 716 52 716 c 0,2,3
 82 716 82 716 94 711 c 1,4,5
 115 620 115 620 203.5 350 c 128,-1,6
 292 80 292 80 376 -134 c 1,7,-1
 372 -150 l 1,8,-1
 280 -134 l 1,9,10
 159 305 159 305 24 711 c 1,0,1
EndSplineSet
EndChar

StartChar: bracketright
Encoding: 93 93 64
Width: 306
GlyphClass: 2
Flags: W
LayerCount: 2
Fore
SplineSet
11 -106 m 1,0,-1
 111 -106 l 1,1,2
 133 25 133 25 152.5 259.5 c 128,-1,3
 172 494 172 494 173 647 c 1,4,-1
 86 647 l 1,5,-1
 89 679 l 1,6,7
 177 690 177 690 259 690 c 1,8,9
 255 636 255 636 238 458 c 0,10,11
 198 15 198 15 191 -150 c 1,12,-1
 7 -140 l 1,13,-1
 11 -106 l 1,0,-1
EndSplineSet
EndChar

StartChar: asciicircum
Encoding: 94 94 65
Width: 475
GlyphClass: 2
Flags: W
LayerCount: 2
Fore
SplineSet
65 421 m 1,0,-1
 252 690 l 1,1,-1
 267 686 l 1,2,-1
 430 431 l 1,3,4
 404 393 404 393 388 380 c 1,5,-1
 378 380 l 1,6,-1
 241 597 l 1,7,-1
 96 380 l 1,8,9
 84 385 84 385 74 400 c 1,10,-1
 65 421 l 1,0,-1
EndSplineSet
EndChar

StartChar: underscore
Encoding: 95 95 66
Width: 506
GlyphClass: 2
Flags: W
LayerCount: 2
Fore
SplineSet
167 19 m 2,0,1
 305 19 305 19 416 29 c 1,2,-1
 432 15 l 1,3,-1
 419 -38 l 1,4,-1
 76 -38 l 1,5,6
 71 -27 71 -27 71 -15 c 1,7,-1
 76 19 l 1,8,-1
 167 19 l 2,0,1
EndSplineSet
EndChar

StartChar: grave
Encoding: 96 96 67
Width: 400
GlyphClass: 2
Flags: W
LayerCount: 2
Fore
SplineSet
176 760 m 1,0,1
 220 696 220 696 280 621 c 2,2,-1
 300 596 l 1,3,-1
 300 589 l 1,4,-1
 251 570 l 1,5,6
 223 590 223 590 190 624 c 128,-1,7
 157 658 157 658 138 682 c 2,8,-1
 119 705 l 1,9,-1
 119 715 l 1,10,11
 144 747 144 747 176 760 c 1,0,1
EndSplineSet
EndChar

StartChar: a
Encoding: 97 97 68
Width: 546
GlyphClass: 2
Flags: W
LayerCount: 2
Fore
SplineSet
509 60 m 1,0,1
 509 37 509 37 499 17 c 1,2,3
 432 9 432 9 378 -15 c 1,4,5
 363 -15 363 -15 352.5 -4 c 128,-1,6
 342 7 342 7 342 30 c 1,7,-1
 361 173 l 1,8,-1
 351 179 l 1,9,10
 314 89 314 89 276 39.5 c 128,-1,11
 238 -10 238 -10 176 -10 c 128,-1,12
 114 -10 114 -10 72 35.5 c 128,-1,13
 30 81 30 81 30 159 c 0,14,15
 30 288 30 288 107 384 c 128,-1,16
 184 480 184 480 298 480 c 0,17,18
 335 480 335 480 382 451 c 1,19,20
 384 469 384 469 386 480 c 1,21,22
 436 495 436 495 481 495 c 1,23,24
 462 418 462 418 449.5 329 c 128,-1,25
 437 240 437 240 425 60 c 1,26,-1
 509 60 l 1,0,1
106 187 m 0,27,28
 106 143 106 143 126 107.5 c 128,-1,29
 146 72 146 72 171 60 c 1,30,-1
 219 60 l 1,31,32
 277 71 277 71 360 270 c 1,33,34
 364 312 364 312 376 410 c 1,35,-1
 216 410 l 1,36,37
 177 403 177 403 141.5 332.5 c 128,-1,38
 106 262 106 262 106 187 c 0,27,28
EndSplineSet
EndChar

StartChar: b
Encoding: 98 98 69
Width: 520
GlyphClass: 2
Flags: W
LayerCount: 2
Fore
SplineSet
34 715 m 1,0,1
 34 738 34 738 44 758 c 1,2,3
 101 766 101 766 155 790 c 1,4,5
 169 790 169 790 180 777.5 c 128,-1,6
 191 765 191 765 191 745 c 1,7,-1
 146 297 l 1,8,-1
 156 291 l 1,9,10
 193 381 193 381 231 430.5 c 128,-1,11
 269 480 269 480 331 480 c 128,-1,12
 393 480 393 480 435 434.5 c 128,-1,13
 477 389 477 389 477 311 c 0,14,15
 477 182 477 182 400 86 c 128,-1,16
 323 -10 323 -10 209 -10 c 1,17,-1
 53 0 l 1,18,-1
 34 0 l 1,19,20
 50 67 50 67 54 98 c 0,21,22
 75 248 75 248 107 715 c 1,23,-1
 34 715 l 1,0,1
401 283 m 0,24,25
 401 327 401 327 381 362.5 c 128,-1,26
 361 398 361 398 336 410 c 1,27,-1
 288 410 l 1,28,29
 249 402 249 402 204 322 c 1,30,31
 170 259 170 259 149 206 c 1,32,33
 146 159 146 159 134 60 c 1,34,-1
 291 60 l 1,35,36
 330 67 330 67 365.5 137.5 c 128,-1,37
 401 208 401 208 401 283 c 0,24,25
EndSplineSet
EndChar

StartChar: c
Encoding: 99 99 70
Width: 437
GlyphClass: 2
Flags: W
LayerCount: 2
Fore
SplineSet
364 60 m 1,0,1
 364 37 364 37 354 17 c 1,2,3
 248 -10 248 -10 202 -10 c 0,4,5
 116 -10 116 -10 72.5 34.5 c 128,-1,6
 29 79 29 79 29 164.5 c 128,-1,7
 29 250 29 250 58.5 318 c 128,-1,8
 88 386 88 386 149 433 c 128,-1,9
 210 480 210 480 289 480 c 0,10,11
 327 480 327 480 358.5 466 c 128,-1,12
 390 452 390 452 404 440 c 1,13,14
 383 403 383 403 370 350 c 1,15,-1
 365 333 l 1,16,17
 345 324 345 324 316 324 c 1,18,19
 325 364 325 364 325 384 c 128,-1,20
 325 404 325 404 310 410 c 1,21,-1
 205 410 l 1,22,23
 164 394 164 394 133.5 334.5 c 128,-1,24
 103 275 103 275 103 208 c 0,25,26
 103 130 103 130 132 96 c 0,27,28
 157 67 157 67 178 62 c 2,29,-1
 186 60 l 1,30,-1
 364 60 l 1,0,1
EndSplineSet
EndChar

StartChar: d
Encoding: 100 100 71
Width: 555
GlyphClass: 2
Flags: W
LayerCount: 2
Fore
SplineSet
514 60 m 1,0,1
 514 37 514 37 504 17 c 1,2,3
 437 9 437 9 383 -15 c 1,4,5
 368 -15 368 -15 357.5 -4 c 128,-1,6
 347 7 347 7 347 30 c 1,7,-1
 366 173 l 1,8,-1
 356 179 l 1,9,10
 319 89 319 89 281 39.5 c 128,-1,11
 243 -10 243 -10 181 -10 c 128,-1,12
 119 -10 119 -10 77 35.5 c 128,-1,13
 35 81 35 81 35 159 c 0,14,15
 35 288 35 288 112 384 c 128,-1,16
 189 480 189 480 303 480 c 0,17,18
 340 480 340 480 390 449 c 1,19,20
 405 595 405 595 410 715 c 1,21,-1
 333 715 l 1,22,23
 333 738 333 738 343 758 c 1,24,25
 400 766 400 766 454 790 c 1,26,27
 468 790 468 790 479 777.5 c 128,-1,28
 490 765 490 765 490 745 c 1,29,30
 457 466 457 466 431 60 c 1,31,-1
 514 60 l 1,0,1
111 187 m 0,32,33
 111 143 111 143 131 107.5 c 128,-1,34
 151 72 151 72 176 60 c 1,35,-1
 224 60 l 1,36,37
 285 72 285 72 370 280 c 1,38,39
 371 288 371 288 385 410 c 1,40,-1
 221 410 l 1,41,42
 182 403 182 403 146.5 332.5 c 128,-1,43
 111 262 111 262 111 187 c 0,32,33
EndSplineSet
EndChar

StartChar: e
Encoding: 101 101 72
Width: 446
GlyphClass: 2
Flags: W
LayerCount: 2
Fore
SplineSet
381 60 m 1,0,1
 381 37 381 37 371 17 c 1,2,3
 265 -10 265 -10 219 -10 c 0,4,5
 47 -10 47 -10 47 177 c 0,6,7
 47 246 47 246 77 314.5 c 128,-1,8
 107 383 107 383 168.5 431.5 c 128,-1,9
 230 480 230 480 308 480 c 0,10,11
 357 480 357 480 380 455 c 128,-1,12
 403 430 403 430 403 394 c 0,13,14
 403 214 403 214 121 208 c 1,15,16
 121 71 121 71 203 60 c 1,17,-1
 381 60 l 1,0,1
333 369 m 0,18,19
 333 402 333 402 305 410 c 1,20,-1
 213 410 l 1,21,22
 180 397 180 397 156 352.5 c 128,-1,23
 132 308 132 308 124 252 c 1,24,25
 239 256 239 256 286 285.5 c 128,-1,26
 333 315 333 315 333 369 c 0,18,19
EndSplineSet
EndChar

StartChar: f
Encoding: 102 102 73
Width: 309
GlyphClass: 2
Flags: W
LayerCount: 2
Fore
SplineSet
301 470 m 1,0,1
 301 446 301 446 291 410 c 1,2,-1
 184 410 l 1,3,-1
 153 0 l 1,4,5
 104 -15 104 -15 59 -15 c 1,6,7
 75 52 75 52 82.5 109 c 128,-1,8
 90 166 90 166 112 410 c 1,9,-1
 53 410 l 1,10,11
 53 433 53 433 63 453 c 1,12,13
 68 453 68 453 79 458 c 128,-1,14
 90 463 90 463 98 470 c 0,15,16
 117 487 117 487 123 519 c 1,17,18
 131 595 131 595 149.5 649.5 c 128,-1,19
 168 704 168 704 190 730 c 0,20,21
 233 780 233 780 272 780 c 0,22,23
 298 780 298 780 354 764 c 1,24,-1
 372 758 l 1,25,26
 372 735 372 735 362 715 c 1,27,-1
 256 715 l 1,28,29
 211 658 211 658 197 534 c 2,30,-1
 189 465 l 1,31,-1
 301 470 l 1,0,1
EndSplineSet
EndChar

StartChar: g
Encoding: 103 103 74
Width: 525
GlyphClass: 2
Flags: W
LayerCount: 2
Fore
SplineSet
14 -217 m 1,0,1
 14 -193 14 -193 23 -175 c 1,2,-1
 251 -175 l 1,3,4
 296 -153 296 -153 330 -34 c 0,5,6
 352 41 352 41 362 173 c 1,7,-1
 353 178 l 1,8,9
 316 88 316 88 278 39 c 128,-1,10
 240 -10 240 -10 178 -10 c 128,-1,11
 116 -10 116 -10 74 35.5 c 128,-1,12
 32 81 32 81 32 159 c 0,13,14
 32 288 32 288 109 384 c 128,-1,15
 186 480 186 480 300 480 c 0,16,17
 338 480 338 480 383 452 c 1,18,-1
 387 480 l 1,19,20
 437 495 437 495 482 495 c 1,21,22
 463 418 463 418 457 375.5 c 128,-1,23
 451 333 451 333 443.5 260 c 128,-1,24
 436 187 436 187 431 139.5 c 128,-1,25
 426 92 426 92 417 33.5 c 128,-1,26
 408 -25 408 -25 397 -61.5 c 128,-1,27
 386 -98 386 -98 366 -136.5 c 128,-1,28
 346 -175 346 -175 320 -196 c 0,29,30
 260 -245 260 -245 163 -245 c 0,31,32
 122 -245 122 -245 41 -224 c 2,33,-1
 14 -217 l 1,0,1
108 187 m 0,34,35
 108 143 108 143 128 107.5 c 128,-1,36
 148 72 148 72 173 60 c 1,37,-1
 221 60 l 1,38,39
 280 71 280 71 361 267 c 1,40,41
 365 314 365 314 377 410 c 1,42,-1
 218 410 l 1,43,44
 179 403 179 403 143.5 332.5 c 128,-1,45
 108 262 108 262 108 187 c 0,34,35
EndSplineSet
EndChar

StartChar: h
Encoding: 104 104 75
Width: 597
GlyphClass: 2
Flags: W
LayerCount: 2
Fore
SplineSet
57 715 m 1,0,1
 57 738 57 738 67 758 c 1,2,3
 124 766 124 766 178 790 c 1,4,5
 192 790 192 790 203 777.5 c 128,-1,6
 214 765 214 765 214 745 c 1,7,-1
 169 297 l 1,8,-1
 179 291 l 1,9,10
 210 362 210 362 271 421 c 128,-1,11
 332 480 332 480 409 480 c 0,12,13
 446 480 446 480 468 470 c 128,-1,14
 490 460 490 460 494 450 c 2,15,-1
 497 440 l 1,16,17
 471 219 471 219 466 60 c 1,18,-1
 546 60 l 1,19,20
 546 37 546 37 536 17 c 1,21,22
 469 9 469 9 415 -15 c 1,23,24
 400 -15 400 -15 389.5 -4 c 128,-1,25
 379 7 379 7 379 30 c 1,26,27
 401 170 401 170 417 410 c 1,28,-1
 356 410 l 2,29,30
 316 410 316 410 261 347.5 c 128,-1,31
 206 285 206 285 172 210 c 1,32,33
 162 86 162 86 149 0 c 1,34,35
 100 -15 100 -15 55 -15 c 1,36,37
 71 52 71 52 75 83 c 0,38,39
 94 221 94 221 130 715 c 1,40,-1
 57 715 l 1,0,1
EndSplineSet
EndChar

StartChar: i
Encoding: 105 105 76
Width: 287
GlyphClass: 2
Flags: W
LayerCount: 2
Fore
SplineSet
33 410 m 1,0,1
 33 433 33 433 43 453 c 1,2,3
 100 461 100 461 154 485 c 1,4,5
 168 485 168 485 179 472.5 c 128,-1,6
 190 460 190 460 190 440 c 1,7,8
 167 245 167 245 159 60 c 1,9,-1
 239 60 l 1,10,11
 239 37 239 37 229 17 c 1,12,13
 162 9 162 9 108 -15 c 1,14,15
 93 -15 93 -15 82.5 -4 c 128,-1,16
 72 7 72 7 72 30 c 1,17,18
 94 170 94 170 110 410 c 1,19,-1
 33 410 l 1,0,1
136 670.5 m 128,-1,21
 155 680 155 680 175 680 c 128,-1,22
 195 680 195 680 206.5 671 c 128,-1,23
 218 662 218 662 218 651 c 1,24,-1
 213 615 l 1,25,26
 202 585 202 585 149 585 c 0,27,28
 129 585 129 585 118.5 594 c 128,-1,29
 108 603 108 603 108 615 c 1,30,-1
 112 646 l 1,31,20
 117 661 117 661 136 670.5 c 128,-1,21
EndSplineSet
EndChar

StartChar: j
Encoding: 106 106 77
Width: 243
GlyphClass: 2
Flags: W
LayerCount: 2
Fore
SplineSet
-40 -230 m 1,0,1
 13 -168 13 -168 44.5 -104.5 c 128,-1,2
 76 -41 76 -41 86 33 c 128,-1,3
 96 107 96 107 110 410 c 1,4,-1
 23 410 l 1,5,-1
 33 453 l 1,6,7
 100 461 100 461 154 485 c 1,8,9
 168 485 168 485 178.5 472.5 c 128,-1,10
 189 460 189 460 190 440 c 1,11,12
 183 353 183 353 178 270 c 0,13,14
 168 109 168 109 162 60 c 0,15,16
 136 -155 136 -155 -24 -260 c 1,17,-1
 -33 -260 l 1,18,19
 -40 -246 -40 -246 -40 -230 c 1,0,1
136 670.5 m 128,-1,21
 155 680 155 680 175 680 c 128,-1,22
 195 680 195 680 206.5 671 c 128,-1,23
 218 662 218 662 218 651 c 1,24,-1
 213 615 l 1,25,26
 202 585 202 585 149 585 c 0,27,28
 129 585 129 585 118.5 594 c 128,-1,29
 108 603 108 603 108 615 c 1,30,-1
 112 646 l 1,31,20
 117 661 117 661 136 670.5 c 128,-1,21
EndSplineSet
EndChar

StartChar: k
Encoding: 107 107 78
Width: 544
GlyphClass: 2
Flags: W
LayerCount: 2
Fore
SplineSet
53 715 m 1,0,1
 53 738 53 738 63 758 c 1,2,3
 120 766 120 766 174 790 c 1,4,5
 188 790 188 790 199 777.5 c 128,-1,6
 210 765 210 765 210 745 c 1,7,-1
 160 297 l 1,8,-1
 170 291 l 1,9,10
 201 362 201 362 262 421 c 128,-1,11
 323 480 323 480 400 480 c 0,12,13
 437 480 437 480 459 470 c 128,-1,14
 481 460 481 460 484 450 c 2,15,-1
 488 440 l 1,16,17
 480 350 480 350 424.5 285 c 128,-1,18
 369 220 369 220 320 200 c 1,19,-1
 412 60 l 1,20,-1
 510 60 l 1,21,22
 510 37 510 37 500 17 c 1,23,24
 433 9 433 9 379 -15 c 1,25,26
 355 -15 355 -15 342 9 c 2,27,-1
 236 190 l 1,28,-1
 236 200 l 1,29,30
 313 234 313 234 356.5 284 c 128,-1,31
 400 334 400 334 408 410 c 1,32,-1
 347 410 l 2,33,34
 307 410 307 410 252 347.5 c 128,-1,35
 197 285 197 285 163 210 c 1,36,37
 153 86 153 86 140 0 c 1,38,39
 91 -15 91 -15 46 -15 c 1,40,41
 62 52 62 52 66 83 c 0,42,43
 86 230 86 230 126 715 c 1,44,-1
 53 715 l 1,0,1
EndSplineSet
EndChar

StartChar: l
Encoding: 108 108 79
Width: 269
GlyphClass: 2
Flags: W
LayerCount: 2
Fore
SplineSet
46 715 m 1,0,1
 46 738 46 738 56 758 c 1,2,3
 113 766 113 766 167 790 c 1,4,5
 181 790 181 790 192 777.5 c 128,-1,6
 203 765 203 765 203 745 c 1,7,8
 184 585 184 585 143 60 c 1,9,-1
 221 60 l 1,10,11
 221 37 221 37 211 17 c 1,12,13
 144 9 144 9 90 -15 c 1,14,15
 75 -15 75 -15 64.5 -4 c 128,-1,16
 54 7 54 7 54 30 c 1,17,18
 107 475 107 475 123 715 c 1,19,-1
 46 715 l 1,0,1
EndSplineSet
EndChar

StartChar: m
Encoding: 109 109 80
Width: 901
GlyphClass: 2
Flags: W
LayerCount: 2
Fore
SplineSet
708 480 m 0,0,1
 745 480 745 480 767 470 c 128,-1,2
 789 460 789 460 792 450 c 2,3,-1
 796 440 l 1,4,5
 773 247 773 247 765 60 c 1,6,-1
 845 60 l 1,7,8
 845 37 845 37 835 17 c 1,9,10
 768 9 768 9 714 -15 c 1,11,12
 699 -15 699 -15 688.5 -4 c 128,-1,13
 678 7 678 7 678 30 c 1,14,15
 700 170 700 170 716 410 c 1,16,-1
 655 410 l 2,17,18
 620 410 620 410 568 340 c 128,-1,19
 516 270 516 270 478 189 c 1,20,21
 467 42 467 42 461 0 c 1,22,23
 412 -15 412 -15 367 -15 c 1,24,25
 383 52 383 52 387 83 c 1,26,27
 405 170 405 170 421 410 c 1,28,-1
 360 410 l 2,29,30
 321 410 321 410 275.5 349.5 c 128,-1,31
 230 289 230 289 196 210 c 1,32,33
 186 86 186 86 173 0 c 1,34,35
 124 -15 124 -15 79 -15 c 1,36,37
 95 52 95 52 107 142 c 128,-1,38
 119 232 119 232 128 410 c 1,39,-1
 55 410 l 1,40,41
 55 433 55 433 65 453 c 1,42,43
 122 461 122 461 176 485 c 1,44,45
 190 485 190 485 201 472.5 c 128,-1,46
 212 460 212 460 212 440 c 1,47,-1
 193 297 l 1,48,-1
 203 291 l 1,49,50
 286 480 286 480 413 480 c 0,51,52
 450 480 450 480 472 470 c 128,-1,53
 494 460 494 460 498 450 c 2,54,-1
 501 440 l 1,55,56
 500 413 500 413 488 297 c 1,57,-1
 498 291 l 1,58,59
 581 480 581 480 708 480 c 0,0,1
EndSplineSet
EndChar

StartChar: n
Encoding: 110 110 81
Width: 614
GlyphClass: 2
Flags: W
LayerCount: 2
Fore
SplineSet
55 410 m 1,0,1
 55 433 55 433 65 453 c 1,2,3
 122 461 122 461 176 485 c 1,4,5
 190 485 190 485 201 472.5 c 128,-1,6
 212 460 212 460 212 440 c 1,7,-1
 193 297 l 1,8,-1
 203 291 l 1,9,10
 234 362 234 362 295 421 c 128,-1,11
 356 480 356 480 433 480 c 0,12,13
 470 480 470 480 492 470 c 128,-1,14
 514 460 514 460 518 450 c 2,15,-1
 521 440 l 1,16,17
 498 247 498 247 490 60 c 1,18,-1
 570 60 l 1,19,20
 570 37 570 37 560 17 c 1,21,22
 493 9 493 9 439 -15 c 1,23,24
 424 -15 424 -15 413.5 -4 c 128,-1,25
 403 7 403 7 403 30 c 1,26,27
 425 170 425 170 441 410 c 1,28,-1
 380 410 l 2,29,30
 340 410 340 410 285 347.5 c 128,-1,31
 230 285 230 285 196 210 c 1,32,33
 186 86 186 86 173 0 c 1,34,35
 124 -15 124 -15 79 -15 c 1,36,37
 95 52 95 52 107 142 c 128,-1,38
 119 232 119 232 128 410 c 1,39,-1
 55 410 l 1,0,1
EndSplineSet
EndChar

StartChar: o
Encoding: 111 111 82
Width: 490
GlyphClass: 2
Flags: W
LayerCount: 2
Fore
SplineSet
178 62 m 2,0,-1
 186 60 l 1,1,-1
 282 60 l 1,2,3
 324 76 324 76 356 137 c 128,-1,4
 388 198 388 198 388 262 c 0,5,6
 388 341 388 341 360 374 c 0,7,8
 335 403 335 403 316 408 c 2,9,-1
 308 410 l 1,10,-1
 212 410 l 1,11,12
 170 394 170 394 138 333 c 128,-1,13
 106 272 106 272 106 200.5 c 128,-1,14
 106 129 106 129 132.5 98 c 128,-1,15
 159 67 159 67 178 62 c 2,0,-1
345.5 39 m 128,-1,17
 285 -10 285 -10 202 -10 c 0,18,19
 31 -10 31 -10 31 176 c 0,20,21
 31 246 31 246 59.5 314 c 128,-1,22
 88 382 88 382 148.5 431 c 128,-1,23
 209 480 209 480 292 480 c 0,24,25
 463 480 463 480 463 294 c 0,26,27
 463 224 463 224 434.5 156 c 128,-1,16
 406 88 406 88 345.5 39 c 128,-1,17
EndSplineSet
EndChar

StartChar: p
Encoding: 112 112 83
Width: 565
GlyphClass: 2
Flags: W
LayerCount: 2
Fore
SplineSet
252 -10 m 0,0,1
 215 -10 215 -10 168 4 c 1,2,3
 156 -117 156 -117 152 -195 c 1,4,-1
 231 -212 l 1,5,6
 231 -235 231 -235 221 -255 c 1,7,8
 141 -245 141 -245 114 -245 c 0,9,10
 67 -245 67 -245 8 -252 c 1,11,-1
 -11 -255 l 1,12,13
 -11 -232 -11 -232 -1 -212 c 1,14,15
 36 -203 36 -203 65 -185 c 1,16,17
 90 -32 90 -32 101 86.5 c 128,-1,18
 112 205 112 205 124 410 c 1,19,-1
 51 410 l 1,20,21
 51 433 51 433 61 453 c 1,22,23
 118 461 118 461 172 485 c 1,24,25
 186 485 186 485 197 472.5 c 128,-1,26
 208 460 208 460 208 440 c 1,27,-1
 189 297 l 1,28,-1
 199 291 l 1,29,30
 236 381 236 381 274 430.5 c 128,-1,31
 312 480 312 480 374 480 c 128,-1,32
 436 480 436 480 478 434.5 c 128,-1,33
 520 389 520 389 520 311 c 0,34,35
 520 182 520 182 443 86 c 128,-1,36
 366 -10 366 -10 252 -10 c 0,0,1
444 283 m 0,37,38
 444 327 444 327 424 362.5 c 128,-1,39
 404 398 404 398 379 410 c 1,40,-1
 331 410 l 1,41,42
 269 398 269 398 188 195 c 1,43,-1
 173 60 l 1,44,-1
 334 60 l 1,45,46
 373 67 373 67 408.5 137.5 c 128,-1,47
 444 208 444 208 444 283 c 0,37,38
EndSplineSet
EndChar

StartChar: q
Encoding: 113 113 84
Width: 558
GlyphClass: 2
Flags: W
LayerCount: 2
Fore
SplineSet
293 39.5 m 128,-1,1
 255 -10 255 -10 193 -10 c 128,-1,2
 131 -10 131 -10 89 35.5 c 128,-1,3
 47 81 47 81 47 159 c 0,4,5
 47 288 47 288 124 384 c 128,-1,6
 201 480 201 480 315 480 c 0,7,8
 352 480 352 480 399 451 c 1,9,10
 401 469 401 469 403 480 c 1,11,12
 453 495 453 495 498 495 c 1,13,14
 480 418 480 418 470 358 c 128,-1,15
 460 298 460 298 443 120 c 128,-1,16
 426 -58 426 -58 419 -194 c 1,17,-1
 502 -212 l 1,18,19
 502 -235 502 -235 492 -255 c 1,20,21
 420 -245 420 -245 390 -245 c 0,22,23
 336 -245 336 -245 279 -252 c 1,24,-1
 260 -255 l 1,25,26
 260 -232 260 -232 270 -212 c 1,27,28
 320 -200 320 -200 348 -176 c 1,29,30
 364 -22 364 -22 374 125 c 1,31,-1
 378 173 l 1,32,-1
 368 179 l 1,33,0
 331 89 331 89 293 39.5 c 128,-1,1
123 187 m 0,34,35
 123 143 123 143 143 107.5 c 128,-1,36
 163 72 163 72 188 60 c 1,37,-1
 236 60 l 1,38,39
 294 71 294 71 377 270 c 1,40,41
 381 312 381 312 393 410 c 1,42,-1
 233 410 l 1,43,44
 194 403 194 403 158.5 332.5 c 128,-1,45
 123 262 123 262 123 187 c 0,34,35
EndSplineSet
EndChar

StartChar: r
Encoding: 114 114 85
Width: 420
GlyphClass: 2
Flags: W
LayerCount: 2
Fore
SplineSet
37 410 m 1,0,1
 37 433 37 433 47 453 c 1,2,3
 104 461 104 461 158 485 c 1,4,5
 172 485 172 485 183 472.5 c 128,-1,6
 194 460 194 460 194 440 c 1,7,-1
 177 320 l 1,8,-1
 187 314 l 1,9,10
 212 371 212 371 264.5 425.5 c 128,-1,11
 317 480 317 480 366 480 c 0,12,13
 385 480 385 480 400.5 472 c 128,-1,14
 416 464 416 464 422 456 c 2,15,-1
 428 448 l 1,16,17
 403 404 403 404 390 350 c 1,18,-1
 385 333 l 1,19,20
 365 324 365 324 336 324 c 1,21,22
 345 365 345 365 345 376 c 0,23,24
 345 404 345 404 326 410 c 1,25,26
 304 410 304 410 257 353.5 c 128,-1,27
 210 297 210 297 180 232 c 1,28,29
 167 82 167 82 155 0 c 1,30,31
 106 -15 106 -15 61 -15 c 1,32,33
 77 52 77 52 89 142 c 128,-1,34
 101 232 101 232 110 410 c 1,35,-1
 37 410 l 1,0,1
EndSplineSet
EndChar

StartChar: s
Encoding: 115 115 86
Width: 454
GlyphClass: 2
Flags: W
LayerCount: 2
Fore
SplineSet
315 122 m 0,0,1
 315 141 315 141 305 152.5 c 128,-1,2
 295 164 295 164 289.5 169.5 c 128,-1,3
 284 175 284 175 271 183.5 c 128,-1,4
 258 192 258 192 253 195 c 0,5,6
 228 210 228 210 204.5 222.5 c 128,-1,7
 181 235 181 235 168.5 243 c 128,-1,8
 156 251 156 251 137 267 c 0,9,10
 103 296 103 296 103 342 c 0,11,12
 103 409 103 409 153.5 444.5 c 128,-1,13
 204 480 204 480 277 480 c 128,-1,14
 350 480 350 480 410 440 c 1,15,16
 387 397 387 397 375 348 c 1,17,-1
 371 333 l 1,18,19
 351 324 351 324 322 324 c 1,20,21
 331 365 331 365 331 376 c 0,22,23
 331 408 331 408 309 415 c 1,24,-1
 212 415 l 1,25,26
 164 408 164 408 164 359 c 0,27,28
 164 342 164 342 181 324.5 c 128,-1,29
 198 307 198 307 215 296.5 c 128,-1,30
 232 286 232 286 263.5 270 c 128,-1,31
 295 254 295 254 316 240.5 c 128,-1,32
 337 227 337 227 358.5 202.5 c 128,-1,33
 380 178 380 178 380 153 c 0,34,35
 380 75 380 75 329 32.5 c 128,-1,36
 278 -10 278 -10 191 -10 c 0,37,38
 138 -10 138 -10 100.5 6.5 c 128,-1,39
 63 23 63 23 52 39 c 2,40,-1
 41 55 l 1,41,42
 63 93 63 93 73 137 c 2,43,-1
 76 150 l 1,44,45
 96 159 96 159 125 159 c 1,46,47
 116 126 116 126 116 102 c 0,48,49
 116 67 116 67 173 55 c 1,50,-1
 277 55 l 1,51,52
 315 77 315 77 315 122 c 0,0,1
EndSplineSet
EndChar

StartChar: t
Encoding: 116 116 87
Width: 333
GlyphClass: 2
Flags: W
LayerCount: 2
Fore
SplineSet
300 470 m 1,0,1
 300 446 300 446 290 410 c 1,2,-1
 175 410 l 1,3,4
 156 231 156 231 151 60 c 1,5,-1
 271 60 l 1,6,7
 271 37 271 37 261 17 c 1,8,9
 174 9 174 9 120 -15 c 1,10,11
 64 -15 64 -15 64 30 c 1,12,13
 96 274 96 274 104 410 c 1,14,-1
 52 410 l 1,15,16
 52 433 52 433 62 453 c 1,17,18
 64 454 64 454 67.5 455.5 c 128,-1,19
 71 457 71 457 81 465 c 128,-1,20
 91 473 91 473 99 484 c 0,21,22
 121 515 121 515 127 567 c 1,23,24
 159 585 159 585 194 585 c 1,25,26
 189 528 189 528 181 465 c 1,27,-1
 300 470 l 1,0,1
EndSplineSet
EndChar

StartChar: u
Encoding: 117 117 88
Width: 607
GlyphClass: 2
Flags: W
LayerCount: 2
Fore
SplineSet
562 60 m 1,0,1
 562 37 562 37 552 17 c 1,2,3
 485 9 485 9 431 -15 c 1,4,5
 416 -15 416 -15 405.5 -4 c 128,-1,6
 395 7 395 7 395 30 c 1,7,-1
 414 173 l 1,8,-1
 404 179 l 1,9,10
 373 108 373 108 312 49 c 128,-1,11
 251 -10 251 -10 174 -10 c 0,12,13
 137 -10 137 -10 115 0 c 128,-1,14
 93 10 93 10 90 20 c 2,15,-1
 86 30 l 1,16,17
 108 227 108 227 116 410 c 1,18,-1
 47 410 l 1,19,20
 47 433 47 433 57 453 c 1,21,22
 114 461 114 461 168 485 c 1,23,24
 182 485 182 485 193 472.5 c 128,-1,25
 204 460 204 460 204 440 c 1,26,27
 182 300 182 300 166 60 c 1,28,-1
 227 60 l 2,29,30
 268 60 268 60 324 125 c 128,-1,31
 380 190 380 190 412 265 c 1,32,33
 426 393 426 393 439 480 c 1,34,35
 489 495 489 495 534 495 c 1,36,37
 515 418 515 418 502.5 329 c 128,-1,38
 490 240 490 240 478 60 c 1,39,-1
 562 60 l 1,0,1
EndSplineSet
EndChar

StartChar: v
Encoding: 118 118 89
Width: 523
GlyphClass: 2
Flags: W
LayerCount: 2
Fore
SplineSet
170 60 m 1,0,-1
 265 60 l 1,1,2
 346 88 346 88 384 212 c 0,3,4
 401 268 401 268 401 332.5 c 128,-1,5
 401 397 401 397 377 448 c 1,6,7
 417 485 417 485 485 485 c 1,8,9
 485 239 485 239 400 114.5 c 128,-1,10
 315 -10 315 -10 202 -10 c 0,11,12
 162 -10 162 -10 134 0 c 128,-1,13
 106 10 106 10 98 20 c 2,14,-1
 90 30 l 1,15,16
 110 284 110 284 112 410 c 1,17,-1
 41 410 l 1,18,19
 41 433 41 433 51 453 c 1,20,21
 108 461 108 461 162 485 c 1,22,23
 176 485 176 485 187 473 c 128,-1,24
 198 461 198 461 198 440 c 1,25,26
 170 233 170 233 170 60 c 1,0,-1
EndSplineSet
EndChar

StartChar: w
Encoding: 119 119 90
Width: 766
GlyphClass: 2
Flags: W
LayerCount: 2
Fore
SplineSet
512 60 m 2,0,1
 551 60 551 60 585 92.5 c 128,-1,2
 619 125 619 125 636.5 187.5 c 128,-1,3
 654 250 654 250 654 316 c 128,-1,4
 654 382 654 382 623 448 c 1,5,6
 627 452 627 452 634 458 c 128,-1,7
 641 464 641 464 667.5 474.5 c 128,-1,8
 694 485 694 485 724 485 c 1,9,10
 724 229 724 229 649 96 c 0,11,12
 589 -10 589 -10 465 -10 c 0,13,14
 428 -10 428 -10 405 0 c 128,-1,15
 382 10 382 10 378 20 c 2,16,-1
 373 30 l 1,17,-1
 385 173 l 1,18,-1
 375 179 l 1,19,20
 371 170 371 170 360.5 145 c 128,-1,21
 350 120 350 120 344 107.5 c 128,-1,22
 338 95 338 95 326.5 73.5 c 128,-1,23
 315 52 315 52 303.5 40 c 128,-1,24
 292 28 292 28 276 15 c 0,25,26
 245 -10 245 -10 202 -10 c 128,-1,27
 159 -10 159 -10 136 0 c 128,-1,28
 113 10 113 10 108 20 c 2,29,-1
 104 30 l 1,30,31
 124 284 124 284 126 410 c 1,32,-1
 55 410 l 1,33,34
 55 433 55 433 65 453 c 1,35,36
 122 461 122 461 176 485 c 1,37,38
 190 485 190 485 201 472.5 c 128,-1,39
 212 460 212 460 212 440 c 1,40,41
 184 233 184 233 184 60 c 1,42,-1
 229 60 l 2,43,44
 268 60 268 60 309 125 c 128,-1,45
 350 190 350 190 381 275 c 1,46,47
 384 331 384 331 394 442 c 1,48,49
 440 457 440 457 485 457 c 1,50,51
 469 380 469 380 468 349 c 1,52,53
 455 215 455 215 454 96 c 1,54,-1
 453 60 l 1,55,-1
 512 60 l 2,0,1
EndSplineSet
EndChar

StartChar: x
Encoding: 120 120 91
Width: 518
GlyphClass: 2
Flags: W
LayerCount: 2
Fore
SplineSet
484 60 m 1,0,1
 484 37 484 37 474 17 c 1,2,3
 407 9 407 9 353 -15 c 1,4,5
 319 -3 319 -3 297 39.5 c 128,-1,6
 275 82 275 82 241 182 c 1,7,-1
 95 -15 l 1,8,9
 71 -15 71 -15 51.5 -7.5 c 128,-1,10
 32 0 32 0 24 8 c 2,11,-1
 17 15 l 1,12,13
 72 58 72 58 94 86 c 2,14,-1
 219 248 l 1,15,-1
 208 281 l 2,16,17
 201 302 201 302 197.5 313 c 128,-1,18
 194 324 194 324 188 339.5 c 128,-1,19
 182 355 182 355 178 364 c 128,-1,20
 174 373 174 373 168 383 c 0,21,22
 158 402 158 402 146 410 c 1,23,-1
 55 410 l 1,24,25
 55 433 55 433 65 453 c 1,26,27
 122 461 122 461 176 485 c 1,28,29
 208 472 208 472 230.5 432.5 c 128,-1,30
 253 393 253 393 278 313 c 1,31,-1
 409 485 l 1,32,33
 449 485 449 485 479 468 c 1,34,-1
 489 463 l 1,35,36
 432 414 432 414 410 383 c 1,37,-1
 299 246 l 1,38,39
 352 76 352 76 386 60 c 1,40,-1
 484 60 l 1,0,1
EndSplineSet
EndChar

StartChar: y
Encoding: 121 121 92
Width: 571
GlyphClass: 2
Flags: W
LayerCount: 2
Fore
SplineSet
58 -217 m 1,0,1
 58 -198 58 -198 67 -175 c 1,2,-1
 295 -175 l 1,3,4
 340 -153 340 -153 374 -34 c 0,5,6
 396 41 396 41 406 173 c 1,7,-1
 396 179 l 1,8,9
 365 108 365 108 304 49 c 128,-1,10
 243 -10 243 -10 166 -10 c 0,11,12
 129 -10 129 -10 107 0 c 128,-1,13
 85 10 85 10 82 20 c 2,14,-1
 78 30 l 1,15,16
 101 234 101 234 111 410 c 1,17,-1
 42 410 l 1,18,19
 42 433 42 433 52 453 c 1,20,21
 109 461 109 461 163 485 c 1,22,23
 177 485 177 485 188 472.5 c 128,-1,24
 199 460 199 460 199 440 c 1,25,26
 174 300 174 300 158 60 c 1,27,-1
 219 60 l 2,28,29
 260 60 260 60 316 125 c 128,-1,30
 372 190 372 190 404 265 c 1,31,32
 418 393 418 393 431 480 c 1,33,34
 481 495 481 495 526 495 c 1,35,36
 507 418 507 418 501 375.5 c 128,-1,37
 495 333 495 333 487.5 260 c 128,-1,38
 480 187 480 187 475 139.5 c 128,-1,39
 470 92 470 92 461 33.5 c 128,-1,40
 452 -25 452 -25 441 -61.5 c 128,-1,41
 430 -98 430 -98 410 -136.5 c 128,-1,42
 390 -175 390 -175 364 -196 c 0,43,44
 304 -245 304 -245 207 -245 c 0,45,46
 166 -245 166 -245 85 -224 c 2,47,-1
 58 -217 l 1,0,1
EndSplineSet
EndChar

StartChar: z
Encoding: 122 122 93
Width: 474
GlyphClass: 2
Flags: W
LayerCount: 2
Fore
SplineSet
128 334 m 1,0,1
 100 341 100 341 83 359 c 1,2,3
 106 439 106 439 106 474 c 1,4,5
 109 480 109 480 161.5 480 c 128,-1,6
 214 480 214 480 374 452 c 1,7,-1
 397 480 l 1,8,9
 437 480 437 480 459 462 c 1,10,-1
 459 452 l 1,11,-1
 141 60 l 1,12,-1
 352 60 l 1,13,14
 369 86 369 86 376 123 c 1,15,-1
 379 136 l 1,16,17
 407 129 407 129 424 111 c 1,18,19
 401 31 401 31 401 -4 c 1,20,21
 392 -10 392 -10 309.5 -10 c 128,-1,22
 227 -10 227 -10 104 14 c 1,23,-1
 85 -10 l 1,24,25
 44 -10 44 -10 22 14 c 1,26,-1
 22 24 l 1,27,-1
 339 410 l 1,28,-1
 155 410 l 1,29,30
 138 384 138 384 130 347 c 1,31,-1
 128 334 l 1,0,1
EndSplineSet
EndChar

StartChar: braceleft
Encoding: 123 123 94
Width: 315
GlyphClass: 2
Flags: W
LayerCount: 2
Fore
SplineSet
250 690 m 0,0,1
 283 690 283 690 320 680 c 1,2,-1
 333 676 l 1,3,-1
 329 651 l 1,4,-1
 278 651 l 1,5,6
 256 646 256 646 246 636.5 c 128,-1,7
 236 627 236 627 232 607 c 128,-1,8
 228 587 228 587 220.5 508 c 128,-1,9
 213 429 213 429 206.5 394 c 128,-1,10
 200 359 200 359 177.5 328.5 c 128,-1,11
 155 298 155 298 134 284 c 1,12,13
 155 271 155 271 173 244.5 c 128,-1,14
 191 218 191 218 191 182 c 128,-1,15
 191 146 191 146 181 49.5 c 128,-1,16
 171 -47 171 -47 171 -67 c 0,17,18
 171 -99 171 -99 202 -110 c 1,19,-1
 254 -110 l 1,20,-1
 250 -136 l 1,21,22
 212 -149 212 -149 176.5 -149 c 128,-1,23
 141 -149 141 -149 122.5 -131.5 c 128,-1,24
 104 -114 104 -114 104 -84.5 c 128,-1,25
 104 -55 104 -55 115.5 29 c 128,-1,26
 127 113 127 113 127 151.5 c 128,-1,27
 127 190 127 190 108.5 215.5 c 128,-1,28
 90 241 90 241 72 252 c 2,29,-1
 54 263 l 1,30,31
 54 286 54 286 64 306 c 1,32,33
 72 311 72 311 83 319.5 c 128,-1,34
 94 328 94 328 116 356 c 128,-1,35
 138 384 138 384 143 412 c 1,36,37
 157 463 157 463 160.5 532.5 c 128,-1,38
 164 602 164 602 168 623 c 1,39,40
 187 690 187 690 250 690 c 0,0,1
EndSplineSet
EndChar

StartChar: bar
Encoding: 124 124 95
Width: 424
GlyphClass: 2
Flags: W
LayerCount: 2
Fore
SplineSet
154 -200 m 1,0,-1
 126 -195 l 1,1,2
 136 -134 136 -134 165 202.5 c 128,-1,3
 194 539 194 539 194 680 c 1,4,-1
 272 696 l 1,5,-1
 286 680 l 1,6,7
 269 580 269 580 231 223.5 c 128,-1,8
 193 -133 193 -133 193 -195 c 1,9,10
 175 -200 175 -200 154 -200 c 1,0,-1
EndSplineSet
EndChar

StartChar: braceright
Encoding: 125 125 96
Width: 335
GlyphClass: 2
Flags: W
LayerCount: 2
Fore
SplineSet
73 -149 m 0,0,1
 40 -149 40 -149 2 -138 c 1,2,-1
 -10 -135 l 1,3,-1
 -6 -110 l 1,4,-1
 45 -110 l 1,5,6
 67 -105 67 -105 77 -95.5 c 128,-1,7
 87 -86 87 -86 91 -66 c 128,-1,8
 95 -46 95 -46 102.5 33 c 128,-1,9
 110 112 110 112 116.5 147 c 128,-1,10
 123 182 123 182 145.5 212.5 c 128,-1,11
 168 243 168 243 189 257 c 1,12,13
 168 270 168 270 150 296.5 c 128,-1,14
 132 323 132 323 132 359 c 128,-1,15
 132 395 132 395 142 491.5 c 128,-1,16
 152 588 152 588 152 608 c 0,17,18
 152 640 152 640 121 651 c 1,19,-1
 69 651 l 1,20,-1
 73 677 l 1,21,22
 111 690 111 690 146.5 690 c 128,-1,23
 182 690 182 690 200.5 672.5 c 128,-1,24
 219 655 219 655 219 625.5 c 128,-1,25
 219 596 219 596 207.5 512 c 128,-1,26
 196 428 196 428 196 389.5 c 128,-1,27
 196 351 196 351 214 325.5 c 128,-1,28
 232 300 232 300 250 289 c 2,29,-1
 269 278 l 1,30,31
 269 255 269 255 259 235 c 1,32,33
 251 230 251 230 240 221.5 c 128,-1,34
 229 213 229 213 207 185 c 128,-1,35
 185 157 185 157 180 129 c 1,36,37
 166 78 166 78 162.5 8.5 c 128,-1,38
 159 -61 159 -61 155 -82 c 1,39,40
 136 -149 136 -149 73 -149 c 0,0,1
EndSplineSet
EndChar

StartChar: asciitilde
Encoding: 126 126 97
Width: 474
GlyphClass: 2
Flags: W
LayerCount: 2
Fore
SplineSet
376 269 m 1,0,1
 355 262 355 262 323 262 c 128,-1,2
 291 262 291 262 226.5 281 c 128,-1,3
 162 300 162 300 153 300 c 2,4,-1
 130 300 l 1,5,6
 119 288 119 288 111 269 c 1,7,-1
 74 269 l 1,8,-1
 67 277 l 1,9,-1
 84 365 l 1,10,11
 105 372 105 372 135.5 372 c 128,-1,12
 166 372 166 372 232 353 c 128,-1,13
 298 334 298 334 307 334 c 2,14,-1
 330 334 l 1,15,16
 341 346 341 346 349 365 c 1,17,-1
 386 365 l 1,18,-1
 393 357 l 1,19,-1
 376 269 l 1,0,1
EndSplineSet
EndChar

StartChar: exclamdown
Encoding: 161 161 98
Width: 259
GlyphClass: 2
Flags: W
LayerCount: 2
Fore
SplineSet
182 364.5 m 128,-1,1
 163 355 163 355 143 355 c 128,-1,2
 123 355 123 355 111.5 364 c 128,-1,3
 100 373 100 373 100 384 c 1,4,-1
 105 420 l 1,5,6
 116 450 116 450 169 450 c 0,7,8
 189 450 189 450 199.5 441 c 128,-1,9
 210 432 210 432 210 420 c 1,10,-1
 206 389 l 1,11,0
 201 374 201 374 182 364.5 c 128,-1,1
149 274 m 1,12,-1
 172 269 l 1,13,14
 164 220 164 220 154 63 c 128,-1,15
 144 -94 144 -94 144 -240 c 1,16,-1
 66 -256 l 1,17,-1
 52 -240 l 1,18,19
 72 -123 72 -123 93.5 44.5 c 128,-1,20
 115 212 115 212 115 269 c 1,21,22
 128 274 128 274 149 274 c 1,12,-1
EndSplineSet
EndChar

StartChar: cent
Encoding: 162 162 99
Width: 437
GlyphClass: 2
Flags: W
LayerCount: 2
Fore
SplineSet
157 -60 m 1,0,-1
 165 1 l 1,1,2
 97 9 97 9 63 49.5 c 128,-1,3
 29 90 29 90 29 179.5 c 128,-1,4
 29 269 29 269 77.5 352.5 c 128,-1,5
 126 436 126 436 209 466 c 1,6,7
 211 492 211 492 211 537 c 1,8,-1
 282 553 l 1,9,-1
 296 537 l 1,10,-1
 287 480 l 1,11,12
 326 480 326 480 358 466 c 128,-1,13
 390 452 390 452 404 440 c 1,14,15
 383 403 383 403 370 350 c 1,16,-1
 365 333 l 1,17,18
 345 324 345 324 316 324 c 1,19,20
 325 364 325 364 325 384 c 128,-1,21
 325 404 325 404 310 410 c 1,22,-1
 276 410 l 1,23,24
 246 207 246 207 233 70 c 1,25,-1
 364 70 l 1,26,27
 364 47 364 47 354 27 c 1,28,29
 279 7 279 7 228 1 c 1,30,31
 224 -41 224 -41 224 -60 c 1,32,33
 206 -65 206 -65 185 -65 c 1,34,-1
 157 -60 l 1,0,-1
103 208 m 0,35,36
 103 91 103 91 174 72 c 1,37,38
 194 252 194 252 206 410 c 1,39,40
 164 394 164 394 133.5 334.5 c 128,-1,41
 103 275 103 275 103 208 c 0,35,36
EndSplineSet
EndChar

StartChar: sterling
Encoding: 163 163 100
Width: 547
GlyphClass: 2
Flags: W
LayerCount: 2
Fore
SplineSet
196 267 m 1,0,1
 185 157 185 157 180 82 c 1,2,3
 199 82 199 82 257 67 c 128,-1,4
 315 52 315 52 350 52 c 2,5,-1
 375 52 l 1,6,-1
 400 76 l 1,7,-1
 431 76 l 1,8,-1
 417 -1 l 1,9,10
 373 -20 373 -20 340 -20 c 128,-1,11
 307 -20 307 -20 240 -2 c 128,-1,12
 173 16 173 16 147 16 c 2,13,-1
 135 16 l 1,14,-1
 110 -10 l 1,15,-1
 61 -10 l 1,16,-1
 103 76 l 1,17,18
 123 244 123 244 123 267 c 1,19,-1
 63 267 l 1,20,21
 58 278 58 278 58 290 c 1,22,-1
 63 324 l 1,23,-1
 129 324 l 1,24,25
 136 394 136 394 145 455 c 0,26,27
 157 535 157 535 211 576 c 128,-1,28
 265 617 265 617 321 617 c 128,-1,29
 377 617 377 617 409 581.5 c 128,-1,30
 441 546 441 546 441 495 c 1,31,32
 430 480 430 480 391 472 c 1,33,-1
 381 472 l 1,34,35
 381 500 381 500 363.5 533.5 c 128,-1,36
 346 567 346 567 330 569 c 1,37,-1
 285 569 l 1,38,39
 261 558 261 558 243 529.5 c 128,-1,40
 225 501 225 501 218.5 465 c 128,-1,41
 212 429 212 429 201 324 c 1,42,43
 258 324 258 324 354 333 c 1,44,-1
 369 320 l 1,45,-1
 356 267 l 1,46,-1
 196 267 l 1,0,1
EndSplineSet
EndChar

StartChar: currency
Encoding: 164 164 101
Width: 688
GlyphClass: 2
Flags: W
LayerCount: 2
Fore
SplineSet
274 174 m 1,0,-1
 283 171 l 1,1,-1
 373 171 l 1,2,3
 414 187 414 187 447.5 240 c 128,-1,4
 481 293 481 293 481 351 c 0,5,6
 481 424 481 424 452 459 c 0,7,8
 425 491 425 491 406 496 c 1,9,-1
 397 499 l 1,10,-1
 307 499 l 1,11,12
 266 483 266 483 232.5 430 c 128,-1,13
 199 377 199 377 199 311.5 c 128,-1,14
 199 246 199 246 227 212.5 c 128,-1,15
 255 179 255 179 274 174 c 1,0,-1
222 502 m 1,16,17
 291 564 291 564 372.5 564 c 128,-1,18
 454 564 454 564 498 524 c 1,19,-1
 567 589 l 1,20,21
 592 585 592 585 607 556 c 0,22,23
 611 549 611 549 612 541 c 1,24,-1
 535 471 l 1,25,26
 551 431 551 431 551 381 c 0,27,28
 551 292 551 292 499 217 c 1,29,-1
 578 136 l 1,30,-1
 578 121 l 1,31,32
 564 91 564 91 523 69 c 1,33,-1
 441 153 l 1,34,35
 379 106 379 106 301.5 106 c 128,-1,36
 224 106 224 106 180 147 c 1,37,-1
 105 78 l 1,38,39
 88 78 88 78 75 90 c 1,40,41
 61 105 61 105 61 121 c 1,42,-1
 145 198 l 1,43,44
 129 234 129 234 129 299.5 c 128,-1,45
 129 365 129 365 169 434 c 1,46,-1
 105 500 l 1,47,-1
 105 515 l 1,48,49
 126 553 126 553 159 568 c 1,50,-1
 222 502 l 1,16,17
EndSplineSet
EndChar

StartChar: yen
Encoding: 165 165 102
Width: 543
GlyphClass: 2
Flags: W
LayerCount: 2
Fore
SplineSet
244 0 m 1,0,1
 220 -10 220 -10 202 -10 c 0,2,3
 173 -10 173 -10 153 0 c 1,4,5
 168 71 168 71 172 99 c 1,6,-1
 63 99 l 1,7,8
 58 109 58 109 58 121 c 1,9,-1
 63 153 l 1,10,-1
 180 153 l 1,11,12
 186 201 186 201 189 246 c 1,13,-1
 72 246 l 1,14,15
 67 256 67 256 67 268 c 1,16,-1
 72 300 l 1,17,-1
 190 300 l 1,18,-1
 68 593 l 1,19,20
 101 617 101 617 147 617 c 1,21,22
 207 445 207 445 254 337 c 1,23,24
 309 430 309 430 414 617 c 1,25,26
 450 617 450 617 463 606 c 1,27,28
 382 480 382 480 283 301 c 1,29,30
 329 302 329 302 402 309 c 1,31,-1
 417 296 l 1,32,-1
 404 246 l 1,33,-1
 273 246 l 1,34,-1
 260 153 l 1,35,36
 312 154 312 154 392 162 c 1,37,-1
 407 149 l 1,38,-1
 395 99 l 1,39,-1
 254 99 l 1,40,41
 248 54 248 54 244 0 c 1,0,1
EndSplineSet
EndChar

StartChar: brokenbar
Encoding: 166 166 103
Width: 429
GlyphClass: 2
Flags: W
LayerCount: 2
Fore
SplineSet
195 286 m 1,0,-1
 171 291 l 1,1,2
 194 475 194 475 194 680 c 1,3,-1
 272 696 l 1,4,-1
 286 680 l 1,5,6
 245 436 245 436 236 291 c 1,7,8
 216 286 216 286 195 286 c 1,0,-1
120 -195 m 1,9,10
 129 -143 129 -143 144.5 -9.5 c 128,-1,11
 160 124 160 124 163 192 c 1,12,13
 180 197 180 197 201 197 c 1,14,-1
 229 192 l 1,15,16
 187 -116 187 -116 187 -195 c 1,17,18
 169 -200 169 -200 148 -200 c 1,19,-1
 120 -195 l 1,9,10
EndSplineSet
EndChar

StartChar: section
Encoding: 167 167 104
Width: 455
GlyphClass: 2
Flags: W
LayerCount: 2
Fore
SplineSet
409 593 m 1,0,1
 405 571 405 571 391 549 c 1,2,-1
 219 549 l 1,3,4
 202 544 202 544 189 525 c 128,-1,5
 176 506 176 506 176 480.5 c 128,-1,6
 176 455 176 455 198 429.5 c 128,-1,7
 220 404 220 404 251 381.5 c 128,-1,8
 282 359 282 359 313.5 335 c 128,-1,9
 345 311 345 311 367 277.5 c 128,-1,10
 389 244 389 244 389 206 c 0,11,12
 389 98 389 98 289 64 c 1,13,14
 323 23 323 23 323 -23 c 0,15,16
 323 -86 323 -86 276.5 -135.5 c 128,-1,17
 230 -185 230 -185 134 -185 c 0,18,19
 80 -185 80 -185 40 -167 c 2,20,-1
 26 -161 l 1,21,22
 30 -139 30 -139 44 -117 c 1,23,-1
 216 -117 l 1,24,25
 259 -103 259 -103 259 -51 c 0,26,27
 259 -19 259 -19 225.5 13.5 c 128,-1,28
 192 46 192 46 152.5 71 c 128,-1,29
 113 96 113 96 79.5 137 c 128,-1,30
 46 178 46 178 46 224 c 0,31,32
 46 332 46 332 146 366 c 1,33,34
 111 404 111 404 111 459.5 c 128,-1,35
 111 515 111 515 158 566 c 128,-1,36
 205 617 205 617 301 617 c 0,37,38
 355 617 355 617 396 599 c 2,39,-1
 409 593 l 1,0,1
234 297 m 128,-1,41
 204 318 204 318 197 323 c 1,42,-1
 149 323 l 1,43,44
 117 293 117 293 117 243 c 0,45,46
 117 202 117 202 157 167 c 0,47,48
 180 147 180 147 205.5 130 c 128,-1,49
 231 113 231 113 238 108 c 1,50,-1
 285 108 l 1,51,52
 317 138 317 138 317 181 c 128,-1,53
 317 224 317 224 290.5 250 c 128,-1,40
 264 276 264 276 234 297 c 128,-1,41
EndSplineSet
EndChar

StartChar: dieresis
Encoding: 168 168 105
Width: 400
GlyphClass: 2
Flags: W
LayerCount: 2
Fore
SplineSet
89 671.5 m 128,-1,1
 108 681 108 681 128 681 c 128,-1,2
 148 681 148 681 159.5 672 c 128,-1,3
 171 663 171 663 171 652 c 1,4,-1
 166 616 l 1,5,6
 155 586 155 586 102 586 c 0,7,8
 82 586 82 586 71.5 595 c 128,-1,9
 61 604 61 604 61 616 c 1,10,-1
 65 647 l 1,11,0
 70 662 70 662 89 671.5 c 128,-1,1
287 671.5 m 128,-1,13
 306 681 306 681 326 681 c 128,-1,14
 346 681 346 681 357.5 672 c 128,-1,15
 369 663 369 663 369 652 c 1,16,-1
 364 616 l 1,17,18
 353 586 353 586 300 586 c 0,19,20
 280 586 280 586 269.5 595 c 128,-1,21
 259 604 259 604 259 616 c 1,22,-1
 263 647 l 1,23,12
 268 662 268 662 287 671.5 c 128,-1,13
EndSplineSet
EndChar

StartChar: copyright
Encoding: 169 169 106
Width: 704
GlyphClass: 2
Flags: W
LayerCount: 2
Fore
SplineSet
451 264 m 1,0,1
 451 248 451 248 443 224 c 1,2,3
 369 205 369 205 337 205 c 0,4,5
 204 205 204 205 204 337 c 0,6,7
 204 418 204 418 259 484.5 c 128,-1,8
 314 551 314 551 398 551 c 0,9,10
 425 551 425 551 451 541 c 128,-1,11
 477 531 477 531 484 523 c 1,12,13
 468 494 468 494 460 457 c 1,14,-1
 458 444 l 1,15,16
 437 438 437 438 417 438 c 1,17,18
 423 466 423 466 423 480 c 128,-1,19
 423 494 423 494 414 499 c 1,20,-1
 339 499 l 1,21,22
 309 488 309 488 287.5 447 c 128,-1,23
 266 406 266 406 266 364 c 128,-1,24
 266 322 266 322 281 298.5 c 128,-1,25
 296 275 296 275 310 270 c 2,26,-1
 325 264 l 1,27,-1
 451 264 l 1,0,1
460 93 m 128,-1,29
 387 60 387 60 290 60 c 128,-1,30
 193 60 193 60 118 127.5 c 128,-1,31
 43 195 43 195 43 302 c 0,32,33
 43 456 43 456 130 564 c 1,34,35
 174 617 174 617 247 648.5 c 128,-1,36
 320 680 320 680 420 680 c 128,-1,37
 520 680 520 680 592.5 616 c 128,-1,38
 665 552 665 552 665 441 c 0,39,40
 665 293 665 293 576 181 c 0,41,28
 533 126 533 126 460 93 c 128,-1,29
158.5 507 m 128,-1,43
 110 429 110 429 110 345.5 c 128,-1,44
 110 262 110 262 151.5 200 c 128,-1,45
 193 138 193 138 271 124 c 1,46,-1
 422 124 l 1,47,48
 505 163 505 163 551.5 239 c 128,-1,49
 598 315 598 315 598 400 c 128,-1,50
 598 485 598 485 560 547.5 c 128,-1,51
 522 610 522 610 443 625 c 1,52,-1
 290 625 l 1,53,42
 207 585 207 585 158.5 507 c 128,-1,43
EndSplineSet
EndChar

StartChar: ordfeminine
Encoding: 170 170 107
Width: 342
GlyphClass: 2
Flags: W
LayerCount: 2
Fore
SplineSet
312 445 m 1,0,1
 312 427 312 427 299 410 c 1,2,3
 257 404 257 404 224 391 c 1,4,5
 215 391 215 391 207.5 398 c 128,-1,6
 200 405 200 405 200 417 c 1,7,-1
 211 501 l 1,8,-1
 206 505 l 1,9,10
 185 452 185 452 162 423 c 128,-1,11
 139 394 139 394 101.5 394 c 128,-1,12
 64 394 64 394 40.5 418 c 128,-1,13
 17 442 17 442 17 492 c 0,14,15
 17 568 17 568 62 624 c 128,-1,16
 107 680 107 680 175 680 c 0,17,18
 193 680 193 680 224 668 c 1,19,20
 224 673 224 673 226 681 c 1,21,22
 263 690 263 690 289 690 c 1,23,24
 267 593 267 593 256 445 c 1,25,-1
 312 445 l 1,0,1
93.5 588 m 128,-1,27
 73 551 73 551 73 517 c 0,28,29
 73 451 73 451 103 435 c 1,30,-1
 117 435 l 1,31,32
 159 445 159 445 213 584 c 1,33,-1
 219 635 l 1,34,-1
 142 635 l 1,35,26
 114 625 114 625 93.5 588 c 128,-1,27
EndSplineSet
EndChar

StartChar: guillemotleft
Encoding: 171 171 108
Width: 622
GlyphClass: 2
Flags: W
LayerCount: 2
Fore
SplineSet
164 261 m 1,0,1
 271 196 271 196 340 153 c 1,2,-1
 340 135 l 1,3,-1
 315 107 l 1,4,5
 268 142 268 142 206 178.5 c 128,-1,6
 144 215 144 215 106 234 c 2,7,-1
 67 253 l 1,8,-1
 71 293 l 1,9,10
 136 325 136 325 201.5 369 c 128,-1,11
 267 413 267 413 300 447 c 1,12,-1
 361 412 l 1,13,-1
 361 394 l 1,14,15
 328 362 328 362 268 321 c 128,-1,16
 208 280 208 280 164 261 c 1,0,1
402 257 m 1,17,18
 509 192 509 192 578 149 c 1,19,-1
 578 131 l 1,20,-1
 553 103 l 1,21,22
 506 138 506 138 444 174.5 c 128,-1,23
 382 211 382 211 344 230 c 2,24,-1
 305 249 l 1,25,-1
 309 289 l 1,26,27
 374 321 374 321 439.5 365 c 128,-1,28
 505 409 505 409 538 443 c 1,29,-1
 599 408 l 1,30,-1
 599 390 l 1,31,32
 566 358 566 358 506 317 c 128,-1,33
 446 276 446 276 402 257 c 1,17,18
EndSplineSet
EndChar

StartChar: logicalnot
Encoding: 172 172 109
Width: 632
GlyphClass: 2
Flags: W
LayerCount: 2
Fore
SplineSet
531 169 m 1,0,1
 517 164 517 164 495.5 164 c 128,-1,2
 474 164 474 164 474 170 c 2,3,-1
 487 286 l 1,4,-1
 102 286 l 1,5,6
 97 307 97 307 97 319 c 1,7,-1
 102 353 l 1,8,-1
 283 353 l 2,9,10
 421 353 421 353 532 363 c 1,11,-1
 548 349 l 1,12,13
 535 276 535 276 532 198 c 2,14,-1
 531 169 l 1,0,1
EndSplineSet
EndChar

StartChar: registered
Encoding: 174 174 110
Width: 704
GlyphClass: 2
Flags: W
LayerCount: 2
Fore
SplineSet
460 93 m 128,-1,1
 387 60 387 60 290 60 c 128,-1,2
 193 60 193 60 118 127.5 c 128,-1,3
 43 195 43 195 43 302 c 0,4,5
 43 456 43 456 130 564 c 1,6,7
 174 617 174 617 247 648.5 c 128,-1,8
 320 680 320 680 420 680 c 128,-1,9
 520 680 520 680 592.5 616 c 128,-1,10
 665 552 665 552 665 441 c 0,11,12
 665 293 665 293 576 181 c 0,13,0
 533 126 533 126 460 93 c 128,-1,1
158.5 507 m 128,-1,15
 110 429 110 429 110 345.5 c 128,-1,16
 110 262 110 262 151.5 200 c 128,-1,17
 193 138 193 138 271 124 c 1,18,-1
 422 124 l 1,19,20
 505 163 505 163 551.5 239 c 128,-1,21
 598 315 598 315 598 400 c 128,-1,22
 598 485 598 485 560 547.5 c 128,-1,23
 522 610 522 610 443 625 c 1,24,-1
 290 625 l 1,25,14
 207 585 207 585 158.5 507 c 128,-1,15
308 344 m 1,26,27
 303 264 303 264 303 247 c 1,28,-1
 332 243 l 1,29,-1
 327 212 l 1,30,31
 277 215 277 215 259 215 c 2,32,-1
 248 215 l 1,33,-1
 213 212 l 1,34,-1
 217 243 l 1,35,36
 230 248 230 248 242 257 c 1,37,38
 249 320 249 320 263 523 c 1,39,-1
 237 528 l 1,40,-1
 242 557 l 1,41,42
 273 555 273 555 295 555 c 2,43,-1
 309 555 l 1,44,-1
 375 559 l 1,45,46
 423 559 423 559 455 535.5 c 128,-1,47
 487 512 487 512 487 471.5 c 128,-1,48
 487 431 487 431 461.5 401.5 c 128,-1,49
 436 372 436 372 396 357 c 1,50,51
 415 314 415 314 433 288 c 128,-1,52
 451 262 451 262 459 247 c 1,53,-1
 488 241 l 1,54,-1
 482 210 l 1,55,56
 431 213 431 213 400 213 c 1,57,58
 386 249 386 249 338 344 c 1,59,-1
 308 344 l 1,26,27
410.5 405 m 128,-1,61
 429 427 429 427 429 452 c 0,62,63
 429 507 429 507 388 515 c 1,64,-1
 322 515 l 1,65,66
 315 454 315 454 310 376 c 1,67,-1
 359 376 l 1,68,60
 392 383 392 383 410.5 405 c 128,-1,61
EndSplineSet
EndChar

StartChar: macron
Encoding: 175 175 111
Width: 479
GlyphClass: 2
Flags: W
LayerCount: 2
Fore
SplineSet
193 660 m 2,0,1
 281 660 281 660 392 670 c 1,2,-1
 408 656 l 1,3,-1
 395 603 l 1,4,-1
 102 603 l 1,5,6
 97 614 97 614 97 626 c 1,7,-1
 102 660 l 1,8,-1
 193 660 l 2,0,1
EndSplineSet
EndChar

StartChar: degree
Encoding: 176 176 112
Width: 232
GlyphClass: 2
Flags: W
LayerCount: 2
Fore
SplineSet
112 670 m 0,0,1
 149 670 149 670 172.5 650 c 128,-1,2
 196 630 196 630 196 586.5 c 128,-1,3
 196 543 196 543 166.5 506.5 c 128,-1,4
 137 470 137 470 84 470 c 0,5,6
 47 470 47 470 23.5 490 c 128,-1,7
 0 510 0 510 0 553.5 c 128,-1,8
 0 597 0 597 29.5 633.5 c 128,-1,9
 59 670 59 670 112 670 c 0,0,1
57 605 m 128,-1,11
 46 587 46 587 46 564.5 c 128,-1,12
 46 542 46 542 56.5 528.5 c 128,-1,13
 67 515 67 515 80 512 c 1,14,-1
 113 512 l 1,15,16
 128 517 128 517 139 535 c 128,-1,17
 150 553 150 553 150 575.5 c 128,-1,18
 150 598 150 598 139.5 611.5 c 128,-1,19
 129 625 129 625 116 628 c 1,20,-1
 83 628 l 1,21,10
 68 623 68 623 57 605 c 128,-1,11
EndSplineSet
EndChar

StartChar: plusminus
Encoding: 177 177 113
Width: 473
GlyphClass: 2
Flags: W
LayerCount: 2
Fore
SplineSet
223 561 m 1,0,1
 237 566 237 566 253.5 566 c 128,-1,2
 270 566 270 566 280 561 c 1,3,-1
 269 434 l 1,4,5
 337 439 337 439 381 443 c 1,6,-1
 397 429 l 1,7,-1
 384 376 l 1,8,-1
 265 376 l 1,9,-1
 255 257 l 1,10,11
 241 252 241 252 219.5 252 c 128,-1,12
 198 252 198 252 198 258 c 2,13,-1
 207 376 l 1,14,-1
 91 376 l 1,15,16
 86 387 86 387 86 399 c 1,17,-1
 91 433 l 1,18,-1
 212 433 l 1,19,-1
 223 561 l 1,0,1
80 144 m 1,20,21
 75 161 75 161 75 174.5 c 128,-1,22
 75 188 75 188 80 203 c 1,23,-1
 171 203 l 2,24,25
 259 203 259 203 370 213 c 1,26,-1
 386 199 l 1,27,-1
 373 144 l 1,28,-1
 80 144 l 1,20,21
EndSplineSet
EndChar

StartChar: twosuperior
Encoding: 178 178 114
Width: 270
GlyphClass: 2
Flags: W
LayerCount: 2
Fore
SplineSet
83 607 m 1,0,1
 73 607 73 607 59 619 c 1,2,3
 60 650 60 650 68 670 c 1,4,5
 110 690 110 690 147.5 690 c 128,-1,6
 185 690 185 690 210 670.5 c 128,-1,7
 235 651 235 651 235 624.5 c 128,-1,8
 235 598 235 598 221 574.5 c 128,-1,9
 207 551 207 551 190.5 535 c 128,-1,10
 174 519 174 519 141.5 490.5 c 128,-1,11
 109 462 109 462 90 442 c 1,12,-1
 197 442 l 1,13,14
 205 454 205 454 213 482 c 1,15,16
 229 480 229 480 243 468 c 1,17,18
 230 418 230 418 229 396 c 1,19,20
 197 393 197 393 154.5 393 c 128,-1,21
 112 393 112 393 60 408 c 1,22,-1
 49 395 l 1,23,24
 31 399 31 399 13 413 c 1,25,-1
 13 418 l 1,26,27
 46 459 46 459 90.5 499.5 c 128,-1,28
 135 540 135 540 156.5 563.5 c 128,-1,29
 178 587 178 587 178 614 c 128,-1,30
 178 641 178 641 156 649 c 1,31,-1
 105 649 l 1,32,33
 95 641 95 641 83 607 c 1,0,1
EndSplineSet
EndChar

StartChar: threesuperior
Encoding: 179 179 115
Width: 267
GlyphClass: 2
Flags: W
LayerCount: 2
Fore
SplineSet
55 607 m 1,0,1
 46 607 46 607 32 619 c 1,2,3
 33 650 33 650 41 670 c 1,4,5
 82 690 82 690 120 690 c 0,6,7
 201 690 201 690 201 622 c 0,8,9
 201 587 201 587 150 542 c 1,10,11
 213 526 213 526 213 461 c 0,12,13
 213 407 213 407 162 361 c 128,-1,14
 111 315 111 315 55 315 c 0,15,16
 32 315 32 315 12 325 c 1,17,18
 15 348 15 348 27 362 c 1,19,-1
 97 362 l 1,20,21
 121 369 121 369 140 395.5 c 128,-1,22
 159 422 159 422 159 445.5 c 128,-1,23
 159 469 159 469 142.5 485 c 128,-1,24
 126 501 126 501 104 507 c 1,25,-1
 96 501 l 1,26,27
 81 501 81 501 71 515 c 1,28,-1
 71 520 l 1,29,30
 99 542 99 542 124 569 c 128,-1,31
 149 596 149 596 149 617.5 c 128,-1,32
 149 639 149 639 128 649 c 1,33,-1
 77 649 l 1,34,35
 67 641 67 641 55 607 c 1,0,1
EndSplineSet
EndChar

StartChar: acute
Encoding: 180 180 116
Width: 400
GlyphClass: 2
Flags: W
LayerCount: 2
Fore
SplineSet
242 740 m 1,0,1
 275 734 275 734 312 715 c 1,2,-1
 312 705 l 1,3,4
 238 616 238 616 170 570 c 1,5,-1
 121 589 l 1,6,-1
 121 596 l 1,7,8
 193 667 193 667 242 740 c 1,0,1
EndSplineSet
EndChar

StartChar: mu
Encoding: 181 181 117
AltUni2: 0003bc.ffffffff.0
Width: 607
GlyphClass: 2
Flags: W
LayerCount: 2
Fore
SplineSet
229 -15 m 0,0,1
 170 -15 170 -15 140 79 c 1,2,-1
 136 73 l 1,3,-1
 124 -118 l 1,4,5
 69 -133 69 -133 24 -133 c 1,6,7
 43 -56 43 -56 47 -25 c 0,8,9
 71 188 71 188 84 408 c 1,10,-1
 89 480 l 1,11,12
 144 495 144 495 189 495 c 1,13,14
 173 441 173 441 166 387 c 1,15,-1
 156 234 l 1,16,17
 156 197 156 197 186.5 134 c 128,-1,18
 217 71 217 71 244 60 c 1,19,-1
 284 60 l 1,20,21
 352 79 352 79 411 226 c 1,22,23
 417 264 417 264 425.5 355.5 c 128,-1,24
 434 447 434 447 439 480 c 1,25,26
 489 495 489 495 534 495 c 1,27,28
 515 418 515 418 508 366 c 0,29,30
 491 238 491 238 479 60 c 2,31,-1
 475 0 l 1,32,33
 425 -15 425 -15 380 -15 c 1,34,35
 392 19 392 19 407 130 c 1,36,-1
 397 136 l 1,37,38
 331 -15 331 -15 229 -15 c 0,0,1
EndSplineSet
EndChar

StartChar: paragraph
Encoding: 182 182 118
Width: 833
GlyphClass: 2
Flags: W
LayerCount: 2
Fore
SplineSet
236 281 m 2,0,1
 149 281 149 281 97 320.5 c 128,-1,2
 45 360 45 360 45 442 c 128,-1,3
 45 524 45 524 87.5 581.5 c 128,-1,4
 130 639 130 639 195 667 c 128,-1,5
 260 695 260 695 335 695 c 2,6,-1
 516 695 l 2,7,8
 654 695 654 695 765 705 c 1,9,-1
 781 691 l 1,10,-1
 768 638 l 1,11,-1
 663 638 l 1,12,13
 643 496 643 496 609 179 c 128,-1,14
 575 -138 575 -138 575 -195 c 1,15,16
 557 -200 557 -200 536 -200 c 1,17,-1
 508 -195 l 1,18,19
 517 -135 517 -135 544.5 174.5 c 128,-1,20
 572 484 572 484 575 638 c 1,21,-1
 422 638 l 1,22,23
 402 496 402 496 368 179 c 128,-1,24
 334 -138 334 -138 334 -195 c 1,25,26
 316 -200 316 -200 295 -200 c 1,27,-1
 267 -195 l 1,28,29
 282 -98 282 -98 313 281 c 1,30,-1
 236 281 l 2,0,1
EndSplineSet
EndChar

StartChar: periodcentered
Encoding: 183 183 119
Width: 213
GlyphClass: 2
Flags: W
LayerCount: 2
Fore
SplineSet
75 282.5 m 128,-1,1
 94 292 94 292 114 292 c 128,-1,2
 134 292 134 292 145.5 283 c 128,-1,3
 157 274 157 274 157 263 c 1,4,-1
 152 227 l 1,5,6
 141 197 141 197 88 197 c 0,7,8
 68 197 68 197 57.5 206 c 128,-1,9
 47 215 47 215 47 227 c 1,10,-1
 51 258 l 1,11,0
 56 273 56 273 75 282.5 c 128,-1,1
EndSplineSet
EndChar

StartChar: cedilla
Encoding: 184 184 120
Width: 371
GlyphClass: 2
Flags: W
LayerCount: 2
Fore
SplineSet
125 -190 m 1,0,1
 131 -172 131 -172 145 -152 c 1,2,3
 180 -152 180 -152 197 -138.5 c 128,-1,4
 214 -125 214 -125 214 -107 c 128,-1,5
 214 -89 214 -89 203 -81 c 1,6,-1
 161 -81 l 1,7,-1
 155 -72 l 1,8,-1
 178 -3 l 1,9,10
 190 0 190 0 199 0 c 1,11,-1
 217 -3 l 1,12,-1
 211 -34 l 1,13,-1
 244 -34 l 1,14,15
 272 -50 272 -50 272 -84 c 0,16,17
 272 -132 272 -132 230.5 -160.5 c 128,-1,18
 189 -189 189 -189 125 -190 c 1,0,1
EndSplineSet
EndChar

StartChar: onesuperior
Encoding: 185 185 121
Width: 259
GlyphClass: 2
Flags: W
LayerCount: 2
Fore
SplineSet
128 676 m 1,0,-1
 176 690 l 1,1,-1
 186 681 l 1,2,3
 164 561 164 561 161 440 c 1,4,-1
 232 425 l 1,5,-1
 224 394 l 1,6,7
 155 400 155 400 116 400 c 1,8,-1
 30 394 l 1,9,10
 30 410 30 410 39 424 c 1,11,12
 78 434 78 434 102 449 c 1,13,14
 118 545 118 545 118 621 c 1,15,-1
 119 625 l 1,16,-1
 62 562 l 1,17,18
 41 562 41 562 29 579 c 1,19,-1
 29 583 l 1,20,21
 90 633 90 633 128 676 c 1,0,-1
EndSplineSet
EndChar

StartChar: ordmasculine
Encoding: 186 186 122
Width: 301
GlyphClass: 2
Flags: W
LayerCount: 2
Fore
SplineSet
164 680 m 0,0,1
 211 680 211 680 241 649.5 c 128,-1,2
 271 619 271 619 271 559.5 c 128,-1,3
 271 500 271 500 233.5 447 c 128,-1,4
 196 394 196 394 126 394 c 0,5,6
 79 394 79 394 49 424.5 c 128,-1,7
 19 455 19 455 19 514.5 c 128,-1,8
 19 574 19 574 56.5 627 c 128,-1,9
 94 680 94 680 164 680 c 0,0,1
71 526 m 0,10,11
 71 462 71 462 118 439 c 1,12,-1
 167 439 l 1,13,14
 188 447 188 447 203.5 479 c 128,-1,15
 219 511 219 511 219 548 c 0,16,17
 219 612 219 612 172 635 c 1,18,-1
 123 635 l 1,19,20
 102 627 102 627 86.5 595 c 128,-1,21
 71 563 71 563 71 526 c 0,10,11
EndSplineSet
EndChar

StartChar: guillemotright
Encoding: 187 187 123
Width: 622
GlyphClass: 2
Flags: W
LayerCount: 2
Fore
SplineSet
502 313 m 1,0,1
 395 378 395 378 326 421 c 1,2,-1
 326 439 l 1,3,-1
 351 467 l 1,4,5
 398 432 398 432 460 395.5 c 128,-1,6
 522 359 522 359 560 340 c 2,7,-1
 599 321 l 1,8,-1
 595 281 l 1,9,10
 530 249 530 249 464.5 205 c 128,-1,11
 399 161 399 161 366 127 c 1,12,-1
 305 162 l 1,13,-1
 305 180 l 1,14,15
 338 212 338 212 398 253 c 128,-1,16
 458 294 458 294 502 313 c 1,0,1
264 317 m 1,17,18
 157 382 157 382 88 425 c 1,19,-1
 88 443 l 1,20,-1
 113 471 l 1,21,22
 160 436 160 436 222 399.5 c 128,-1,23
 284 363 284 363 322 344 c 2,24,-1
 361 325 l 1,25,-1
 357 285 l 1,26,27
 292 253 292 253 226.5 209 c 128,-1,28
 161 165 161 165 128 131 c 1,29,-1
 67 166 l 1,30,-1
 67 184 l 1,31,32
 100 216 100 216 160 257 c 128,-1,33
 220 298 220 298 264 317 c 1,17,18
EndSplineSet
EndChar

StartChar: onequarter
Encoding: 188 188 124
Width: 741
GlyphClass: 2
Flags: W
LayerCount: 2
Fore
SplineSet
142 -15 m 1,0,-1
 107 -10 l 1,1,2
 242 162 242 162 331 286.5 c 128,-1,3
 420 411 420 411 561 625 c 1,4,-1
 645 641 l 1,5,-1
 649 625 l 1,6,7
 511 445 511 445 429 332 c 128,-1,8
 347 219 347 219 188 -10 c 1,9,10
 162 -15 162 -15 142 -15 c 1,0,-1
654 37 m 1,11,12
 654 13 654 13 644 -5 c 1,13,-1
 601 -5 l 1,14,15
 600 -34 600 -34 600 -86 c 1,16,17
 584 -90 584 -90 569 -90 c 1,18,-1
 538 -86 l 1,19,-1
 548 -5 l 1,20,-1
 412 -5 l 1,21,-1
 405 2 l 1,22,-1
 405 35 l 1,23,-1
 570 262 l 1,24,-1
 614 270 l 1,25,-1
 621 262 l 1,26,27
 610 164 610 164 603 37 c 1,28,-1
 654 37 l 1,11,12
182 625 m 1,29,-1
 230 639 l 1,30,-1
 240 630 l 1,31,32
 218 507 218 507 213 390 c 1,33,-1
 284 375 l 1,34,-1
 276 344 l 1,35,36
 207 350 207 350 168 350 c 1,37,-1
 82 344 l 1,38,39
 82 360 82 360 91 374 c 1,40,41
 131 384 131 384 154 400 c 1,42,43
 172 498 172 498 172 570 c 1,44,-1
 173 574 l 1,45,-1
 116 511 l 1,46,47
 95 511 95 511 83 528 c 1,48,-1
 83 532 l 1,49,50
 144 582 144 582 182 625 c 1,29,-1
567 205 m 1,51,52
 485 90 485 90 455 37 c 1,53,-1
 553 37 l 1,54,55
 560 101 560 101 567 205 c 1,51,52
EndSplineSet
EndChar

StartChar: onehalf
Encoding: 189 189 125
Width: 741
GlyphClass: 2
Flags: W
LayerCount: 2
Fore
SplineSet
125 -15 m 1,0,-1
 90 -10 l 1,1,2
 225 162 225 162 314 286.5 c 128,-1,3
 403 411 403 411 544 625 c 1,4,-1
 628 641 l 1,5,-1
 632 625 l 1,6,7
 494 445 494 445 412 332 c 128,-1,8
 330 219 330 219 171 -10 c 1,9,10
 145 -15 145 -15 125 -15 c 1,0,-1
506 202 m 1,11,12
 496 202 496 202 482 214 c 1,13,14
 483 245 483 245 491 265 c 1,15,16
 533 285 533 285 570.5 285 c 128,-1,17
 608 285 608 285 633 265.5 c 128,-1,18
 658 246 658 246 658 219.5 c 128,-1,19
 658 193 658 193 644 169.5 c 128,-1,20
 630 146 630 146 613.5 130 c 128,-1,21
 597 114 597 114 564.5 85.5 c 128,-1,22
 532 57 532 57 513 37 c 1,23,-1
 620 37 l 1,24,25
 628 49 628 49 636 77 c 1,26,27
 652 75 652 75 666 63 c 1,28,29
 653 13 653 13 652 -9 c 1,30,31
 620 -12 620 -12 580.5 -12 c 128,-1,32
 541 -12 541 -12 483 3 c 1,33,34
 475 -5 475 -5 472 -10 c 1,35,36
 454 -6 454 -6 436 8 c 1,37,-1
 436 13 l 1,38,39
 469 54 469 54 513.5 94.5 c 128,-1,40
 558 135 558 135 579.5 158.5 c 128,-1,41
 601 182 601 182 601 209 c 128,-1,42
 601 236 601 236 579 244 c 1,43,-1
 528 244 l 1,44,45
 518 236 518 236 506 202 c 1,11,12
162 625 m 1,46,-1
 210 639 l 1,47,-1
 220 630 l 1,48,49
 198 507 198 507 193 390 c 1,50,-1
 264 375 l 1,51,-1
 256 344 l 1,52,53
 187 350 187 350 148 350 c 1,54,-1
 62 344 l 1,55,56
 62 360 62 360 71 374 c 1,57,58
 111 384 111 384 134 400 c 1,59,60
 152 498 152 498 152 570 c 1,61,-1
 153 574 l 1,62,-1
 96 511 l 1,63,64
 75 511 75 511 63 528 c 1,65,-1
 63 532 l 1,66,67
 124 582 124 582 162 625 c 1,46,-1
EndSplineSet
EndChar

StartChar: threequarters
Encoding: 190 190 126
Width: 741
GlyphClass: 2
Flags: W
LayerCount: 2
Fore
SplineSet
132 -15 m 1,0,-1
 97 -10 l 1,1,2
 232 162 232 162 321 286.5 c 128,-1,3
 410 411 410 411 551 625 c 1,4,-1
 635 641 l 1,5,-1
 639 625 l 1,6,7
 501 445 501 445 419 332 c 128,-1,8
 337 219 337 219 178 -10 c 1,9,10
 152 -15 152 -15 132 -15 c 1,0,-1
664 37 m 1,11,12
 664 13 664 13 654 -5 c 1,13,-1
 611 -5 l 1,14,15
 610 -34 610 -34 610 -86 c 1,16,17
 594 -90 594 -90 579 -90 c 1,18,-1
 548 -86 l 1,19,-1
 558 -5 l 1,20,-1
 422 -5 l 1,21,-1
 415 2 l 1,22,-1
 415 35 l 1,23,-1
 580 262 l 1,24,-1
 624 270 l 1,25,-1
 631 262 l 1,26,27
 620 164 620 164 613 37 c 1,28,-1
 664 37 l 1,11,12
96 557 m 1,29,30
 87 557 87 557 73 569 c 1,31,32
 74 600 74 600 82 620 c 1,33,34
 123 640 123 640 161 640 c 0,35,36
 242 640 242 640 242 572 c 0,37,38
 242 537 242 537 191 492 c 1,39,40
 254 476 254 476 254 411 c 0,41,42
 254 357 254 357 203 311 c 128,-1,43
 152 265 152 265 96 265 c 0,44,45
 73 265 73 265 53 275 c 1,46,47
 56 298 56 298 68 312 c 1,48,-1
 138 312 l 1,49,50
 162 319 162 319 181 345.5 c 128,-1,51
 200 372 200 372 200 395.5 c 128,-1,52
 200 419 200 419 183.5 435 c 128,-1,53
 167 451 167 451 145 457 c 1,54,-1
 137 451 l 1,55,56
 122 451 122 451 112 465 c 1,57,-1
 112 470 l 1,58,59
 140 492 140 492 165 519 c 128,-1,60
 190 546 190 546 190 567.5 c 128,-1,61
 190 589 190 589 169 599 c 1,62,-1
 118 599 l 1,63,64
 108 591 108 591 96 557 c 1,29,30
577 205 m 1,65,66
 500 100 500 100 465 37 c 1,67,-1
 563 37 l 1,68,69
 570 101 570 101 577 205 c 1,65,66
EndSplineSet
EndChar

StartChar: questiondown
Encoding: 191 191 127
Width: 386
GlyphClass: 2
Flags: W
LayerCount: 2
Fore
SplineSet
300 364.5 m 128,-1,1
 281 355 281 355 261 355 c 128,-1,2
 241 355 241 355 229.5 364 c 128,-1,3
 218 373 218 373 218 384 c 1,4,-1
 223 420 l 1,5,6
 234 450 234 450 287 450 c 0,7,8
 307 450 307 450 317.5 441 c 128,-1,9
 328 432 328 432 328 420 c 1,10,-1
 324 389 l 1,11,0
 319 374 319 374 300 364.5 c 128,-1,1
83 -12 m 0,12,13
 83 -73 83 -73 136 -132.5 c 128,-1,14
 189 -192 189 -192 247 -204 c 1,15,-1
 247 -222 l 1,16,-1
 194 -257 l 1,17,18
 129 -237 129 -237 71.5 -178.5 c 128,-1,19
 14 -120 14 -120 14 -40 c 128,-1,20
 14 40 14 40 69.5 95 c 128,-1,21
 125 150 125 150 204 150 c 1,22,-1
 223 269 l 1,23,24
 236 274 236 274 257 274 c 1,25,-1
 280 269 l 1,26,-1
 266 105 l 1,27,-1
 254 93 l 1,28,-1
 142 93 l 1,29,30
 83 62 83 62 83 -12 c 0,12,13
EndSplineSet
EndChar

StartChar: Agrave
Encoding: 192 192 128
Width: 672
GlyphClass: 2
Flags: W
LayerCount: 2
Fore
SplineSet
682 31 m 1,0,1
 682 8 682 8 672 -12 c 1,2,3
 569 -5 569 -5 532 -5 c 1,4,-1
 427 -12 l 1,5,6
 427 11 427 11 437 31 c 1,7,8
 466 38 466 38 492 51 c 1,9,10
 461 210 461 210 456 232 c 1,11,12
 339 235 339 235 301.5 235 c 128,-1,13
 264 235 264 235 214 231 c 1,14,-1
 126 51 l 1,15,-1
 212 31 l 1,16,17
 212 8 212 8 202 -12 c 1,18,19
 122 -5 122 -5 85 -5 c 1,20,-1
 -10 -12 l 1,21,22
 -10 11 -10 11 0 31 c 1,23,24
 32 40 32 40 59 59 c 1,25,26
 246 389 246 389 358 637 c 1,27,-1
 350 669 l 1,28,29
 393 690 393 690 442 690 c 1,30,31
 536 265 536 265 599 46 c 1,32,-1
 682 31 l 1,0,1
239 283 m 1,33,34
 286 280 286 280 335.5 280 c 128,-1,35
 385 280 385 280 445 282 c 1,36,37
 433 339 433 339 379 556 c 1,38,39
 326 459 326 459 239 283 c 1,33,34
403 900 m 1,40,41
 450 830 450 830 496 780 c 2,42,-1
 514 761 l 1,43,-1
 514 754 l 1,44,-1
 465 735 l 1,45,46
 435 755 435 755 405 782 c 128,-1,47
 375 809 375 809 360 826 c 2,48,-1
 346 843 l 1,49,-1
 346 853 l 1,50,51
 373 888 373 888 403 900 c 1,40,41
EndSplineSet
EndChar

StartChar: Aacute
Encoding: 193 193 129
Width: 672
GlyphClass: 2
Flags: W
LayerCount: 2
Fore
SplineSet
682 31 m 1,0,1
 682 8 682 8 672 -12 c 1,2,3
 569 -5 569 -5 532 -5 c 1,4,-1
 427 -12 l 1,5,6
 427 11 427 11 437 31 c 1,7,8
 466 38 466 38 492 51 c 1,9,10
 461 210 461 210 456 232 c 1,11,12
 339 235 339 235 301.5 235 c 128,-1,13
 264 235 264 235 214 231 c 1,14,-1
 126 51 l 1,15,-1
 212 31 l 1,16,17
 212 8 212 8 202 -12 c 1,18,19
 122 -5 122 -5 85 -5 c 1,20,-1
 -10 -12 l 1,21,22
 -10 11 -10 11 0 31 c 1,23,24
 32 40 32 40 59 59 c 1,25,26
 246 389 246 389 358 637 c 1,27,-1
 350 669 l 1,28,29
 393 690 393 690 442 690 c 1,30,31
 536 265 536 265 599 46 c 1,32,-1
 682 31 l 1,0,1
239 283 m 1,33,34
 286 280 286 280 335.5 280 c 128,-1,35
 385 280 385 280 445 282 c 1,36,37
 433 339 433 339 379 556 c 1,38,39
 326 459 326 459 239 283 c 1,33,34
432 890 m 1,40,41
 465 884 465 884 502 865 c 1,42,-1
 502 855 l 1,43,44
 439 781 439 781 371 735 c 1,45,-1
 322 754 l 1,46,-1
 322 761 l 1,47,48
 383 817 383 817 432 890 c 1,40,41
EndSplineSet
EndChar

StartChar: Acircumflex
Encoding: 194 194 130
Width: 672
GlyphClass: 2
Flags: W
LayerCount: 2
Fore
SplineSet
682 31 m 1,0,1
 682 8 682 8 672 -12 c 1,2,3
 569 -5 569 -5 532 -5 c 1,4,-1
 427 -12 l 1,5,6
 427 11 427 11 437 31 c 1,7,8
 466 38 466 38 492 51 c 1,9,10
 461 210 461 210 456 232 c 1,11,12
 339 235 339 235 301.5 235 c 128,-1,13
 264 235 264 235 214 231 c 1,14,-1
 126 51 l 1,15,-1
 212 31 l 1,16,17
 212 8 212 8 202 -12 c 1,18,19
 122 -5 122 -5 85 -5 c 1,20,-1
 -10 -12 l 1,21,22
 -10 11 -10 11 0 31 c 1,23,24
 32 40 32 40 59 59 c 1,25,26
 246 389 246 389 358 637 c 1,27,-1
 350 669 l 1,28,29
 393 690 393 690 442 690 c 1,30,31
 536 265 536 265 599 46 c 1,32,-1
 682 31 l 1,0,1
239 283 m 1,33,34
 286 280 286 280 335.5 280 c 128,-1,35
 385 280 385 280 445 282 c 1,36,37
 433 339 433 339 379 556 c 1,38,39
 326 459 326 459 239 283 c 1,33,34
385 878 m 1,40,-1
 438 905 l 1,41,42
 485 831 485 831 548 767 c 1,43,-1
 548 759 l 1,44,-1
 496 735 l 1,45,46
 442 781 442 781 409 832 c 1,47,48
 369 786 369 786 309 748 c 1,49,-1
 265 759 l 1,50,-1
 265 767 l 1,51,52
 354 831 354 831 385 878 c 1,40,-1
EndSplineSet
EndChar

StartChar: Atilde
Encoding: 195 195 131
Width: 672
GlyphClass: 2
Flags: W
LayerCount: 2
Fore
SplineSet
682 31 m 1,0,1
 682 8 682 8 672 -12 c 1,2,3
 569 -5 569 -5 532 -5 c 1,4,-1
 427 -12 l 1,5,6
 427 11 427 11 437 31 c 1,7,8
 466 38 466 38 492 51 c 1,9,10
 461 210 461 210 456 232 c 1,11,12
 339 235 339 235 301.5 235 c 128,-1,13
 264 235 264 235 214 231 c 1,14,-1
 126 51 l 1,15,-1
 212 31 l 1,16,17
 212 8 212 8 202 -12 c 1,18,19
 122 -5 122 -5 85 -5 c 1,20,-1
 -10 -12 l 1,21,22
 -10 11 -10 11 0 31 c 1,23,24
 32 40 32 40 59 59 c 1,25,26
 246 389 246 389 358 637 c 1,27,-1
 350 669 l 1,28,29
 393 690 393 690 442 690 c 1,30,31
 536 265 536 265 599 46 c 1,32,-1
 682 31 l 1,0,1
239 283 m 1,33,34
 286 280 286 280 335.5 280 c 128,-1,35
 385 280 385 280 445 282 c 1,36,37
 433 339 433 339 379 556 c 1,38,39
 326 459 326 459 239 283 c 1,33,34
546 742 m 1,40,41
 525 735 525 735 496.5 735 c 128,-1,42
 468 735 468 735 415.5 754 c 128,-1,43
 363 773 363 773 353 773 c 2,44,-1
 330 773 l 1,45,46
 319 761 319 761 311 742 c 1,47,-1
 274 742 l 1,48,-1
 267 750 l 1,49,-1
 284 838 l 1,50,51
 305 845 305 845 332 845 c 128,-1,52
 359 845 359 845 412.5 826 c 128,-1,53
 466 807 466 807 477 807 c 2,54,-1
 500 807 l 1,55,56
 511 819 511 819 519 838 c 1,57,-1
 556 838 l 1,58,-1
 563 830 l 1,59,-1
 546 742 l 1,40,41
EndSplineSet
EndChar

StartChar: Adieresis
Encoding: 196 196 132
Width: 672
GlyphClass: 2
Flags: W
LayerCount: 2
Fore
SplineSet
682 31 m 1,0,1
 682 8 682 8 672 -12 c 1,2,3
 569 -5 569 -5 532 -5 c 1,4,-1
 427 -12 l 1,5,6
 427 11 427 11 437 31 c 1,7,8
 466 38 466 38 492 51 c 1,9,10
 461 210 461 210 456 232 c 1,11,12
 339 235 339 235 301.5 235 c 128,-1,13
 264 235 264 235 214 231 c 1,14,-1
 126 51 l 1,15,-1
 212 31 l 1,16,17
 212 8 212 8 202 -12 c 1,18,19
 122 -5 122 -5 85 -5 c 1,20,-1
 -10 -12 l 1,21,22
 -10 11 -10 11 0 31 c 1,23,24
 32 40 32 40 59 59 c 1,25,26
 246 389 246 389 358 637 c 1,27,-1
 350 669 l 1,28,29
 393 690 393 690 442 690 c 1,30,31
 536 265 536 265 599 46 c 1,32,-1
 682 31 l 1,0,1
239 283 m 1,33,34
 286 280 286 280 335.5 280 c 128,-1,35
 385 280 385 280 445 282 c 1,36,37
 433 339 433 339 379 556 c 1,38,39
 326 459 326 459 239 283 c 1,33,34
282 820.5 m 128,-1,41
 301 830 301 830 321 830 c 128,-1,42
 341 830 341 830 352.5 821 c 128,-1,43
 364 812 364 812 364 801 c 1,44,-1
 359 765 l 1,45,46
 348 735 348 735 295 735 c 0,47,48
 275 735 275 735 264.5 744 c 128,-1,49
 254 753 254 753 254 765 c 1,50,-1
 258 796 l 1,51,40
 263 811 263 811 282 820.5 c 128,-1,41
480 820.5 m 128,-1,53
 499 830 499 830 519 830 c 128,-1,54
 539 830 539 830 550.5 821 c 128,-1,55
 562 812 562 812 562 801 c 1,56,-1
 557 765 l 1,57,58
 546 735 546 735 493 735 c 0,59,60
 473 735 473 735 462.5 744 c 128,-1,61
 452 753 452 753 452 765 c 1,62,-1
 456 796 l 1,63,52
 461 811 461 811 480 820.5 c 128,-1,53
EndSplineSet
EndChar

StartChar: Aring
Encoding: 197 197 133
Width: 672
GlyphClass: 2
Flags: W
LayerCount: 2
Fore
SplineSet
682 31 m 1,0,1
 682 8 682 8 672 -12 c 1,2,3
 569 -5 569 -5 532 -5 c 1,4,-1
 427 -12 l 1,5,6
 427 11 427 11 437 31 c 1,7,8
 466 38 466 38 492 51 c 1,9,10
 461 210 461 210 456 232 c 1,11,12
 339 235 339 235 301.5 235 c 128,-1,13
 264 235 264 235 214 231 c 1,14,-1
 126 51 l 1,15,-1
 212 31 l 1,16,17
 212 8 212 8 202 -12 c 1,18,19
 122 -5 122 -5 85 -5 c 1,20,-1
 -10 -12 l 1,21,22
 -10 11 -10 11 0 31 c 1,23,24
 32 40 32 40 59 59 c 1,25,26
 246 389 246 389 358 637 c 1,27,-1
 350 669 l 1,28,29
 393 690 393 690 442 690 c 1,30,31
 536 265 536 265 599 46 c 1,32,-1
 682 31 l 1,0,1
239 283 m 1,33,34
 286 280 286 280 335.5 280 c 128,-1,35
 385 280 385 280 445 282 c 1,36,37
 433 339 433 339 379 556 c 1,38,39
 326 459 326 459 239 283 c 1,33,34
357 861.5 m 128,-1,41
 380 890 380 890 414.5 890 c 128,-1,42
 449 890 449 890 467.5 874.5 c 128,-1,43
 486 859 486 859 486 825.5 c 128,-1,44
 486 792 486 792 463 763.5 c 128,-1,45
 440 735 440 735 405 735 c 0,46,47
 334 735 334 735 334 796 c 0,48,40
 334 833 334 833 357 861.5 c 128,-1,41
422 847 m 1,49,-1
 403 847 l 1,50,51
 394 845 394 845 386 834.5 c 128,-1,52
 378 824 378 824 377.5 803.5 c 128,-1,53
 377 783 377 783 396 779 c 1,54,-1
 415 779 l 1,55,56
 424 781 424 781 432 791.5 c 128,-1,57
 440 802 440 802 440.5 822.5 c 128,-1,58
 441 843 441 843 422 847 c 1,49,-1
EndSplineSet
EndChar

StartChar: AE
Encoding: 198 198 134
Width: 1058
GlyphClass: 2
Flags: W
LayerCount: 2
Fore
SplineSet
968 680 m 1,0,1
 977 672 977 672 984 655 c 1,2,3
 963 618 963 618 950 565 c 1,4,-1
 945 548 l 1,5,6
 925 539 925 539 896 539 c 1,7,8
 905 579 905 579 905 599 c 128,-1,9
 905 619 905 619 890 625 c 1,10,-1
 647 625 l 1,11,12
 628 461 628 461 621 370 c 1,13,-1
 845 370 l 1,14,15
 861 394 861 394 869 424 c 1,16,17
 876 427 876 427 889 427 c 1,18,-1
 911 423 l 1,19,20
 890 357 890 357 880 254 c 1,21,22
 872 250 872 250 860 250 c 1,23,-1
 843 253 l 1,24,25
 843 293 843 293 835 320 c 1,26,-1
 618 320 l 1,27,28
 609 198 609 198 603 60 c 1,29,-1
 862 60 l 1,30,31
 881 88 881 88 890 124 c 2,32,-1
 893 137 l 1,33,34
 924 131 924 131 935 116 c 2,35,-1
 939 110 l 1,36,37
 919 60 919 60 913 0 c 1,38,-1
 538 0 l 1,39,-1
 443 -7 l 1,40,41
 443 16 443 16 453 36 c 1,42,43
 489 47 489 47 517 69 c 1,44,45
 530 183 530 183 534 232 c 1,46,47
 435 235 435 235 398 235 c 128,-1,48
 361 235 361 235 323 231 c 1,49,50
 301 197 301 197 205 48 c 1,51,-1
 276 31 l 1,52,53
 276 8 276 8 266 -12 c 1,54,55
 186 -5 186 -5 149 -5 c 1,56,-1
 54 -12 l 1,57,58
 54 11 54 11 64 31 c 1,59,60
 105 43 105 43 133 68 c 1,61,62
 386 408 386 408 532 634 c 1,63,-1
 487 644 l 1,64,65
 487 667 487 667 497 687 c 1,66,67
 577 680 577 680 614 680 c 2,68,-1
 968 680 l 1,0,1
356 282 m 1,69,70
 404 280 404 280 444.5 280 c 128,-1,71
 485 280 485 280 539 282 c 1,72,73
 548 401 548 401 560 586 c 1,74,75
 472 461 472 461 356 282 c 1,69,70
EndSplineSet
EndChar

StartChar: Ccedilla
Encoding: 199 199 135
Width: 582
GlyphClass: 2
Flags: W
LayerCount: 2
Fore
SplineSet
185 -200 m 1,0,1
 191 -182 191 -182 205 -162 c 1,2,3
 240 -162 240 -162 257 -148.5 c 128,-1,4
 274 -135 274 -135 274 -117 c 128,-1,5
 274 -99 274 -99 263 -91 c 1,6,-1
 221 -91 l 1,7,-1
 215 -82 l 1,8,-1
 235 -20 l 1,9,10
 133 -16 133 -16 75 57.5 c 128,-1,11
 17 131 17 131 17 241 c 0,12,13
 17 380 17 380 80 496 c 0,14,15
 148 621 148 621 268 670 c 0,16,17
 332 696 332 696 394.5 696 c 128,-1,18
 457 696 457 696 496.5 677.5 c 128,-1,19
 536 659 536 659 548 635 c 1,20,21
 527 597 527 597 514 536 c 1,22,-1
 509 516 l 1,23,24
 484 507 484 507 455 507 c 1,25,26
 463 529 463 529 463 558 c 0,27,28
 463 607 463 607 437 625 c 1,29,-1
 277 625 l 1,30,31
 193 580 193 580 147 487.5 c 128,-1,32
 101 395 101 395 101 301.5 c 128,-1,33
 101 208 101 208 136.5 142.5 c 128,-1,34
 172 77 172 77 240 60 c 1,35,-1
 479 60 l 1,36,37
 479 37 479 37 469 17 c 1,38,39
 358 -12 358 -12 276 -18 c 1,40,-1
 271 -44 l 1,41,-1
 304 -44 l 1,42,43
 332 -60 332 -60 332 -94 c 0,44,45
 332 -142 332 -142 290.5 -170.5 c 128,-1,46
 249 -199 249 -199 185 -200 c 1,0,1
EndSplineSet
EndChar

StartChar: Egrave
Encoding: 200 200 136
Width: 574
GlyphClass: 2
Flags: W
LayerCount: 2
Fore
SplineSet
537 680 m 1,0,1
 546 672 546 672 553 655 c 1,2,3
 532 618 532 618 518 565 c 1,4,-1
 514 548 l 1,5,6
 494 539 494 539 465 539 c 1,7,8
 474 579 474 579 474 599 c 128,-1,9
 474 619 474 619 459 625 c 1,10,-1
 216 625 l 1,11,12
 197 461 197 461 190 370 c 1,13,-1
 414 370 l 1,14,15
 430 394 430 394 438 424 c 1,16,17
 445 427 445 427 458 427 c 1,18,-1
 480 423 l 1,19,20
 459 357 459 357 449 254 c 1,21,22
 441 250 441 250 429 250 c 1,23,-1
 412 253 l 1,24,25
 412 293 412 293 404 320 c 1,26,-1
 187 320 l 1,27,28
 178 198 178 198 172 60 c 1,29,-1
 431 60 l 1,30,31
 450 88 450 88 459 124 c 2,32,-1
 462 137 l 1,33,34
 493 131 493 131 504 116 c 2,35,-1
 508 110 l 1,36,37
 488 60 488 60 482 0 c 1,38,-1
 107 0 l 1,39,-1
 12 -7 l 1,40,41
 12 16 12 16 22 36 c 1,42,43
 58 47 58 47 86 69 c 1,44,45
 112 292 112 292 131 626 c 1,46,-1
 56 644 l 1,47,48
 56 667 56 667 66 687 c 1,49,50
 130 680 130 680 170 680 c 2,51,-1
 537 680 l 1,0,1
321 900 m 1,52,53
 368 830 368 830 414 780 c 2,54,-1
 432 761 l 1,55,-1
 432 754 l 1,56,-1
 383 735 l 1,57,58
 353 755 353 755 323 782 c 128,-1,59
 293 809 293 809 278 826 c 2,60,-1
 264 843 l 1,61,-1
 264 853 l 1,62,63
 291 888 291 888 321 900 c 1,52,53
EndSplineSet
EndChar

StartChar: Eacute
Encoding: 201 201 137
Width: 574
GlyphClass: 2
Flags: W
LayerCount: 2
Fore
SplineSet
537 680 m 1,0,1
 546 672 546 672 553 655 c 1,2,3
 532 618 532 618 518 565 c 1,4,-1
 514 548 l 1,5,6
 494 539 494 539 465 539 c 1,7,8
 474 579 474 579 474 599 c 128,-1,9
 474 619 474 619 459 625 c 1,10,-1
 216 625 l 1,11,12
 197 461 197 461 190 370 c 1,13,-1
 414 370 l 1,14,15
 430 394 430 394 438 424 c 1,16,17
 445 427 445 427 458 427 c 1,18,-1
 480 423 l 1,19,20
 459 357 459 357 449 254 c 1,21,22
 441 250 441 250 429 250 c 1,23,-1
 412 253 l 1,24,25
 412 293 412 293 404 320 c 1,26,-1
 187 320 l 1,27,28
 178 198 178 198 172 60 c 1,29,-1
 431 60 l 1,30,31
 450 88 450 88 459 124 c 2,32,-1
 462 137 l 1,33,34
 493 131 493 131 504 116 c 2,35,-1
 508 110 l 1,36,37
 488 60 488 60 482 0 c 1,38,-1
 107 0 l 1,39,-1
 12 -7 l 1,40,41
 12 16 12 16 22 36 c 1,42,43
 58 47 58 47 86 69 c 1,44,45
 112 292 112 292 131 626 c 1,46,-1
 56 644 l 1,47,48
 56 667 56 667 66 687 c 1,49,50
 130 680 130 680 170 680 c 2,51,-1
 537 680 l 1,0,1
384 890 m 1,52,53
 417 884 417 884 454 865 c 1,54,-1
 454 855 l 1,55,56
 391 781 391 781 323 735 c 1,57,-1
 274 754 l 1,58,-1
 274 761 l 1,59,60
 335 817 335 817 384 890 c 1,52,53
EndSplineSet
EndChar

StartChar: Ecircumflex
Encoding: 202 202 138
Width: 574
GlyphClass: 2
Flags: W
LayerCount: 2
Fore
SplineSet
537 680 m 1,0,1
 546 672 546 672 553 655 c 1,2,3
 532 618 532 618 518 565 c 1,4,-1
 514 548 l 1,5,6
 494 539 494 539 465 539 c 1,7,8
 474 579 474 579 474 599 c 128,-1,9
 474 619 474 619 459 625 c 1,10,-1
 216 625 l 1,11,12
 197 461 197 461 190 370 c 1,13,-1
 414 370 l 1,14,15
 430 394 430 394 438 424 c 1,16,17
 445 427 445 427 458 427 c 1,18,-1
 480 423 l 1,19,20
 459 357 459 357 449 254 c 1,21,22
 441 250 441 250 429 250 c 1,23,-1
 412 253 l 1,24,25
 412 293 412 293 404 320 c 1,26,-1
 187 320 l 1,27,28
 178 198 178 198 172 60 c 1,29,-1
 431 60 l 1,30,31
 450 88 450 88 459 124 c 2,32,-1
 462 137 l 1,33,34
 493 131 493 131 504 116 c 2,35,-1
 508 110 l 1,36,37
 488 60 488 60 482 0 c 1,38,-1
 107 0 l 1,39,-1
 12 -7 l 1,40,41
 12 16 12 16 22 36 c 1,42,43
 58 47 58 47 86 69 c 1,44,45
 112 292 112 292 131 626 c 1,46,-1
 56 644 l 1,47,48
 56 667 56 667 66 687 c 1,49,50
 130 680 130 680 170 680 c 2,51,-1
 537 680 l 1,0,1
306 888 m 1,52,-1
 359 915 l 1,53,54
 406 841 406 841 469 777 c 1,55,-1
 469 769 l 1,56,-1
 417 745 l 1,57,58
 363 791 363 791 330 842 c 1,59,60
 290 796 290 796 230 758 c 1,61,-1
 186 769 l 1,62,-1
 186 777 l 1,63,64
 275 841 275 841 306 888 c 1,52,-1
EndSplineSet
EndChar

StartChar: Edieresis
Encoding: 203 203 139
Width: 574
GlyphClass: 2
Flags: W
LayerCount: 2
Fore
SplineSet
537 680 m 1,0,1
 546 672 546 672 553 655 c 1,2,3
 532 618 532 618 518 565 c 1,4,-1
 514 548 l 1,5,6
 494 539 494 539 465 539 c 1,7,8
 474 579 474 579 474 599 c 128,-1,9
 474 619 474 619 459 625 c 1,10,-1
 216 625 l 1,11,12
 197 461 197 461 190 370 c 1,13,-1
 414 370 l 1,14,15
 430 394 430 394 438 424 c 1,16,17
 445 427 445 427 458 427 c 1,18,-1
 480 423 l 1,19,20
 459 357 459 357 449 254 c 1,21,22
 441 250 441 250 429 250 c 1,23,-1
 412 253 l 1,24,25
 412 293 412 293 404 320 c 1,26,-1
 187 320 l 1,27,28
 178 198 178 198 172 60 c 1,29,-1
 431 60 l 1,30,31
 450 88 450 88 459 124 c 2,32,-1
 462 137 l 1,33,34
 493 131 493 131 504 116 c 2,35,-1
 508 110 l 1,36,37
 488 60 488 60 482 0 c 1,38,-1
 107 0 l 1,39,-1
 12 -7 l 1,40,41
 12 16 12 16 22 36 c 1,42,43
 58 47 58 47 86 69 c 1,44,45
 112 292 112 292 131 626 c 1,46,-1
 56 644 l 1,47,48
 56 667 56 667 66 687 c 1,49,50
 130 680 130 680 170 680 c 2,51,-1
 537 680 l 1,0,1
219 846.5 m 128,-1,53
 238 856 238 856 258 856 c 128,-1,54
 278 856 278 856 289.5 847 c 128,-1,55
 301 838 301 838 301 827 c 1,56,-1
 296 791 l 1,57,58
 285 761 285 761 232 761 c 0,59,60
 212 761 212 761 201.5 770 c 128,-1,61
 191 779 191 779 191 791 c 1,62,-1
 195 822 l 1,63,52
 200 837 200 837 219 846.5 c 128,-1,53
417 846.5 m 128,-1,65
 436 856 436 856 456 856 c 128,-1,66
 476 856 476 856 487.5 847 c 128,-1,67
 499 838 499 838 499 827 c 1,68,-1
 494 791 l 1,69,70
 483 761 483 761 430 761 c 0,71,72
 410 761 410 761 399.5 770 c 128,-1,73
 389 779 389 779 389 791 c 1,74,-1
 393 822 l 1,75,64
 398 837 398 837 417 846.5 c 128,-1,65
EndSplineSet
EndChar

StartChar: Igrave
Encoding: 204 204 140
Width: 334
GlyphClass: 2
Flags: W
LayerCount: 2
Fore
SplineSet
272 36 m 1,0,1
 272 13 272 13 262 -7 c 1,2,3
 164 0 164 0 134 0 c 0,4,5
 90 0 90 0 40 -6 c 1,6,-1
 27 -7 l 1,7,8
 27 16 27 16 37 36 c 1,9,10
 75 47 75 47 103 70 c 1,11,12
 129 295 129 295 148 631 c 1,13,-1
 72 644 l 1,14,15
 72 667 72 667 82 687 c 1,16,17
 170 680 170 680 207 680 c 1,18,-1
 317 687 l 1,19,20
 317 664 317 664 307 644 c 1,21,22
 260 636 260 636 232 613 c 1,23,24
 206 396 206 396 188 51 c 1,25,-1
 272 36 l 1,0,1
190 900 m 1,26,27
 237 830 237 830 284 780 c 1,28,-1
 301 761 l 1,29,-1
 301 754 l 1,30,-1
 252 735 l 1,31,32
 222 755 222 755 192 782 c 128,-1,33
 162 809 162 809 148 826 c 2,34,-1
 133 843 l 1,35,-1
 133 853 l 1,36,37
 160 888 160 888 190 900 c 1,26,27
EndSplineSet
EndChar

StartChar: Iacute
Encoding: 205 205 141
Width: 334
GlyphClass: 2
Flags: W
LayerCount: 2
Fore
SplineSet
272 36 m 1,0,1
 272 13 272 13 262 -7 c 1,2,3
 164 0 164 0 134 0 c 0,4,5
 90 0 90 0 40 -6 c 1,6,-1
 27 -7 l 1,7,8
 27 16 27 16 37 36 c 1,9,10
 75 47 75 47 103 70 c 1,11,12
 129 295 129 295 148 631 c 1,13,-1
 72 644 l 1,14,15
 72 667 72 667 82 687 c 1,16,17
 170 680 170 680 207 680 c 1,18,-1
 317 687 l 1,19,20
 317 664 317 664 307 644 c 1,21,22
 260 636 260 636 232 613 c 1,23,24
 206 396 206 396 188 51 c 1,25,-1
 272 36 l 1,0,1
239 890 m 1,26,27
 272 884 272 884 309 865 c 1,28,-1
 309 855 l 1,29,30
 246 781 246 781 178 735 c 1,31,-1
 129 754 l 1,32,-1
 129 761 l 1,33,34
 190 817 190 817 239 890 c 1,26,27
EndSplineSet
EndChar

StartChar: Icircumflex
Encoding: 206 206 142
Width: 334
GlyphClass: 2
Flags: W
LayerCount: 2
Fore
SplineSet
272 36 m 1,0,1
 272 13 272 13 262 -7 c 1,2,3
 164 0 164 0 134 0 c 0,4,5
 90 0 90 0 40 -6 c 1,6,-1
 27 -7 l 1,7,8
 27 16 27 16 37 36 c 1,9,10
 75 47 75 47 103 70 c 1,11,12
 129 295 129 295 148 631 c 1,13,-1
 72 644 l 1,14,15
 72 667 72 667 82 687 c 1,16,17
 170 680 170 680 207 680 c 1,18,-1
 317 687 l 1,19,20
 317 664 317 664 307 644 c 1,21,22
 260 636 260 636 232 613 c 1,23,24
 206 396 206 396 188 51 c 1,25,-1
 272 36 l 1,0,1
182 878 m 1,26,-1
 235 905 l 1,27,28
 282 831 282 831 345 767 c 1,29,-1
 345 759 l 1,30,-1
 293 735 l 1,31,32
 239 781 239 781 206 832 c 1,33,34
 166 786 166 786 106 748 c 1,35,-1
 62 759 l 1,36,-1
 62 767 l 1,37,38
 151 831 151 831 182 878 c 1,26,-1
EndSplineSet
EndChar

StartChar: Idieresis
Encoding: 207 207 143
Width: 334
GlyphClass: 2
Flags: W
LayerCount: 2
Fore
SplineSet
272 36 m 1,0,1
 272 13 272 13 262 -7 c 1,2,3
 164 0 164 0 134 0 c 0,4,5
 90 0 90 0 40 -6 c 1,6,-1
 27 -7 l 1,7,8
 27 16 27 16 37 36 c 1,9,10
 75 47 75 47 103 70 c 1,11,12
 129 295 129 295 148 631 c 1,13,-1
 72 644 l 1,14,15
 72 667 72 667 82 687 c 1,16,17
 170 680 170 680 207 680 c 1,18,-1
 317 687 l 1,19,20
 317 664 317 664 307 644 c 1,21,22
 260 636 260 636 232 613 c 1,23,24
 206 396 206 396 188 51 c 1,25,-1
 272 36 l 1,0,1
81 847.5 m 128,-1,27
 100 857 100 857 120 857 c 128,-1,28
 140 857 140 857 151.5 848 c 128,-1,29
 163 839 163 839 163 828 c 1,30,-1
 158 792 l 1,31,32
 147 762 147 762 94 762 c 0,33,34
 74 762 74 762 63.5 771 c 128,-1,35
 53 780 53 780 53 792 c 1,36,-1
 57 823 l 1,37,26
 62 838 62 838 81 847.5 c 128,-1,27
279 847.5 m 128,-1,39
 298 857 298 857 318 857 c 128,-1,40
 338 857 338 857 349.5 848 c 128,-1,41
 361 839 361 839 361 828 c 1,42,-1
 356 792 l 1,43,44
 345 762 345 762 292 762 c 0,45,46
 272 762 272 762 261.5 771 c 128,-1,47
 251 780 251 780 251 792 c 1,48,-1
 255 823 l 1,49,38
 260 838 260 838 279 847.5 c 128,-1,39
EndSplineSet
EndChar

StartChar: Eth
Encoding: 208 208 144
Width: 657
GlyphClass: 2
Flags: W
LayerCount: 2
Fore
SplineSet
195 680 m 1,0,-1
 370 690 l 1,1,2
 424 690 424 690 469 670 c 128,-1,3
 514 650 514 650 544 618 c 128,-1,4
 574 586 574 586 595 544 c 0,5,6
 634 467 634 467 634 383 c 0,7,8
 634 204 634 204 529 97 c 128,-1,9
 424 -10 424 -10 245 -10 c 0,10,11
 214 -10 214 -10 175.5 -5 c 128,-1,12
 137 0 137 0 123 0 c 2,13,-1
 20 -7 l 1,14,15
 20 16 20 16 30 36 c 1,16,17
 70 48 70 48 98 72 c 1,18,19
 112 200 112 200 121 302 c 1,20,-1
 39 302 l 1,21,22
 34 313 34 313 34 325 c 1,23,-1
 39 359 l 1,24,-1
 125 359 l 1,25,26
 125 360 125 360 142 626 c 1,27,-1
 68 644 l 1,28,29
 68 667 68 667 78 687 c 1,30,31
 158 680 158 680 195 680 c 1,0,-1
352 625 m 2,32,-1
 217 625 l 1,33,34
 200 483 200 483 194 359 c 1,35,36
 233 360 233 360 329 369 c 1,37,-1
 345 355 l 1,38,-1
 332 302 l 1,39,-1
 191 302 l 1,40,-1
 181 60 l 1,41,-1
 374 60 l 1,42,43
 451 90 451 90 502.5 180 c 128,-1,44
 554 270 554 270 554 364.5 c 128,-1,45
 554 459 554 459 497 542 c 128,-1,46
 440 625 440 625 352 625 c 2,32,-1
EndSplineSet
EndChar

StartChar: Ntilde
Encoding: 209 209 145
Width: 672
GlyphClass: 2
Flags: W
LayerCount: 2
Fore
SplineSet
254 36 m 1,0,1
 254 13 254 13 244 -7 c 1,2,3
 154 0 154 0 117 0 c 1,4,-1
 22 -7 l 1,5,6
 22 16 22 16 32 36 c 1,7,8
 71 47 71 47 99 71 c 1,9,10
 117 203 117 203 124 287.5 c 128,-1,11
 131 372 131 372 138.5 471 c 128,-1,12
 146 570 146 570 151 626 c 1,13,-1
 68 644 l 1,14,15
 68 667 68 667 78 687 c 1,16,17
 142 680 142 680 182 680 c 2,18,-1
 236 680 l 1,19,20
 323 503 323 503 414 343 c 128,-1,21
 505 183 505 183 516 163 c 1,22,23
 546 449 546 449 554 626 c 1,24,-1
 469 644 l 1,25,26
 469 667 469 667 479 687 c 1,27,28
 546 680 546 680 580 680 c 0,29,30
 634 680 634 680 689 686 c 1,31,-1
 704 687 l 1,32,33
 704 664 704 664 694 644 c 1,34,35
 648 636 648 636 620 614 c 1,36,37
 584 319 584 319 572 0 c 1,38,-1
 558 -10 l 1,39,-1
 499 0 l 1,40,41
 312 356 312 356 210 537 c 1,42,43
 195 416 195 416 172 53 c 1,44,-1
 254 36 l 1,0,1
532 761 m 1,45,46
 511 754 511 754 482.5 754 c 128,-1,47
 454 754 454 754 401.5 773 c 128,-1,48
 349 792 349 792 339 792 c 2,49,-1
 316 792 l 1,50,51
 305 780 305 780 297 761 c 1,52,-1
 260 761 l 1,53,-1
 253 769 l 1,54,-1
 270 857 l 1,55,56
 291 864 291 864 318 864 c 128,-1,57
 345 864 345 864 398.5 845 c 128,-1,58
 452 826 452 826 463 826 c 2,59,-1
 486 826 l 1,60,61
 497 838 497 838 505 857 c 1,62,-1
 542 857 l 1,63,-1
 549 849 l 1,64,-1
 532 761 l 1,45,46
EndSplineSet
EndChar

StartChar: Ograve
Encoding: 210 210 146
Width: 687
GlyphClass: 2
Flags: W
LayerCount: 2
Fore
SplineSet
38 241 m 0,0,1
 38 381 38 381 100 495 c 0,2,3
 168 620 168 620 287 668 c 0,4,5
 352 695 352 695 428 695 c 0,6,7
 534 695 534 695 595.5 621.5 c 128,-1,8
 657 548 657 548 657 435 c 0,9,10
 657 261 657 261 562 126 c 0,11,12
 516 60 516 60 439.5 20 c 128,-1,13
 363 -20 363 -20 262 -20 c 128,-1,14
 161 -20 161 -20 99.5 54 c 128,-1,15
 38 128 38 128 38 241 c 0,0,1
168 487.5 m 128,-1,17
 122 395 122 395 122 301.5 c 128,-1,18
 122 208 122 208 157.5 142.5 c 128,-1,19
 193 77 193 77 261 60 c 1,20,-1
 400 60 l 1,21,22
 484 105 484 105 528.5 194 c 128,-1,23
 573 283 573 283 573 376 c 128,-1,24
 573 469 573 469 538.5 536 c 128,-1,25
 504 603 504 603 438 625 c 1,26,-1
 298 625 l 1,27,16
 214 580 214 580 168 487.5 c 128,-1,17
375 900 m 1,28,29
 422 830 422 830 468 780 c 2,30,-1
 486 761 l 1,31,-1
 486 754 l 1,32,-1
 437 735 l 1,33,34
 407 755 407 755 377 782 c 128,-1,35
 347 809 347 809 332 826 c 2,36,-1
 318 843 l 1,37,-1
 318 853 l 1,38,39
 345 888 345 888 375 900 c 1,28,29
EndSplineSet
EndChar

StartChar: Oacute
Encoding: 211 211 147
Width: 687
GlyphClass: 2
Flags: W
LayerCount: 2
Fore
SplineSet
38 241 m 0,0,1
 38 381 38 381 100 495 c 0,2,3
 168 620 168 620 287 668 c 0,4,5
 352 695 352 695 428 695 c 0,6,7
 534 695 534 695 595.5 621.5 c 128,-1,8
 657 548 657 548 657 435 c 0,9,10
 657 261 657 261 562 126 c 0,11,12
 516 60 516 60 439.5 20 c 128,-1,13
 363 -20 363 -20 262 -20 c 128,-1,14
 161 -20 161 -20 99.5 54 c 128,-1,15
 38 128 38 128 38 241 c 0,0,1
168 487.5 m 128,-1,17
 122 395 122 395 122 301.5 c 128,-1,18
 122 208 122 208 157.5 142.5 c 128,-1,19
 193 77 193 77 261 60 c 1,20,-1
 400 60 l 1,21,22
 484 105 484 105 528.5 194 c 128,-1,23
 573 283 573 283 573 376 c 128,-1,24
 573 469 573 469 538.5 536 c 128,-1,25
 504 603 504 603 438 625 c 1,26,-1
 298 625 l 1,27,16
 214 580 214 580 168 487.5 c 128,-1,17
435 890 m 1,28,29
 468 884 468 884 505 865 c 1,30,-1
 505 855 l 1,31,32
 442 781 442 781 374 735 c 1,33,-1
 325 754 l 1,34,-1
 325 761 l 1,35,36
 386 817 386 817 435 890 c 1,28,29
EndSplineSet
EndChar

StartChar: Ocircumflex
Encoding: 212 212 148
Width: 687
GlyphClass: 2
Flags: W
LayerCount: 2
Fore
SplineSet
38 241 m 0,0,1
 38 381 38 381 100 495 c 0,2,3
 168 620 168 620 287 668 c 0,4,5
 352 695 352 695 428 695 c 0,6,7
 534 695 534 695 595.5 621.5 c 128,-1,8
 657 548 657 548 657 435 c 0,9,10
 657 261 657 261 562 126 c 0,11,12
 516 60 516 60 439.5 20 c 128,-1,13
 363 -20 363 -20 262 -20 c 128,-1,14
 161 -20 161 -20 99.5 54 c 128,-1,15
 38 128 38 128 38 241 c 0,0,1
168 487.5 m 128,-1,17
 122 395 122 395 122 301.5 c 128,-1,18
 122 208 122 208 157.5 142.5 c 128,-1,19
 193 77 193 77 261 60 c 1,20,-1
 400 60 l 1,21,22
 484 105 484 105 528.5 194 c 128,-1,23
 573 283 573 283 573 376 c 128,-1,24
 573 469 573 469 538.5 536 c 128,-1,25
 504 603 504 603 438 625 c 1,26,-1
 298 625 l 1,27,16
 214 580 214 580 168 487.5 c 128,-1,17
375 878 m 1,28,-1
 428 905 l 1,29,30
 475 831 475 831 538 767 c 1,31,-1
 538 759 l 1,32,-1
 486 735 l 1,33,34
 432 781 432 781 399 832 c 1,35,36
 359 786 359 786 299 748 c 1,37,-1
 255 759 l 1,38,-1
 255 767 l 1,39,40
 344 831 344 831 375 878 c 1,28,-1
EndSplineSet
EndChar

StartChar: Otilde
Encoding: 213 213 149
Width: 687
GlyphClass: 2
Flags: W
LayerCount: 2
Fore
SplineSet
38 241 m 0,0,1
 38 381 38 381 100 495 c 0,2,3
 168 620 168 620 287 668 c 0,4,5
 352 695 352 695 428 695 c 0,6,7
 534 695 534 695 595.5 621.5 c 128,-1,8
 657 548 657 548 657 435 c 0,9,10
 657 261 657 261 562 126 c 0,11,12
 516 60 516 60 439.5 20 c 128,-1,13
 363 -20 363 -20 262 -20 c 128,-1,14
 161 -20 161 -20 99.5 54 c 128,-1,15
 38 128 38 128 38 241 c 0,0,1
168 487.5 m 128,-1,17
 122 395 122 395 122 301.5 c 128,-1,18
 122 208 122 208 157.5 142.5 c 128,-1,19
 193 77 193 77 261 60 c 1,20,-1
 400 60 l 1,21,22
 484 105 484 105 528.5 194 c 128,-1,23
 573 283 573 283 573 376 c 128,-1,24
 573 469 573 469 538.5 536 c 128,-1,25
 504 603 504 603 438 625 c 1,26,-1
 298 625 l 1,27,16
 214 580 214 580 168 487.5 c 128,-1,17
533 760 m 1,28,29
 512 753 512 753 483.5 753 c 128,-1,30
 455 753 455 753 402.5 772 c 128,-1,31
 350 791 350 791 340 791 c 2,32,-1
 317 791 l 1,33,34
 306 779 306 779 298 760 c 1,35,-1
 261 760 l 1,36,-1
 254 768 l 1,37,-1
 271 856 l 1,38,39
 292 863 292 863 319 863 c 128,-1,40
 346 863 346 863 399.5 844 c 128,-1,41
 453 825 453 825 464 825 c 2,42,-1
 487 825 l 1,43,44
 498 837 498 837 506 856 c 1,45,-1
 543 856 l 1,46,-1
 550 848 l 1,47,-1
 533 760 l 1,28,29
EndSplineSet
EndChar

StartChar: Odieresis
Encoding: 214 214 150
Width: 687
GlyphClass: 2
Flags: W
LayerCount: 2
Fore
SplineSet
38 241 m 0,0,1
 38 381 38 381 100 495 c 0,2,3
 168 620 168 620 287 668 c 0,4,5
 352 695 352 695 428 695 c 0,6,7
 534 695 534 695 595.5 621.5 c 128,-1,8
 657 548 657 548 657 435 c 0,9,10
 657 261 657 261 562 126 c 0,11,12
 516 60 516 60 439.5 20 c 128,-1,13
 363 -20 363 -20 262 -20 c 128,-1,14
 161 -20 161 -20 99.5 54 c 128,-1,15
 38 128 38 128 38 241 c 0,0,1
168 487.5 m 128,-1,17
 122 395 122 395 122 301.5 c 128,-1,18
 122 208 122 208 157.5 142.5 c 128,-1,19
 193 77 193 77 261 60 c 1,20,-1
 400 60 l 1,21,22
 484 105 484 105 528.5 194 c 128,-1,23
 573 283 573 283 573 376 c 128,-1,24
 573 469 573 469 538.5 536 c 128,-1,25
 504 603 504 603 438 625 c 1,26,-1
 298 625 l 1,27,16
 214 580 214 580 168 487.5 c 128,-1,17
279 848.5 m 128,-1,29
 298 858 298 858 318 858 c 128,-1,30
 338 858 338 858 349.5 849 c 128,-1,31
 361 840 361 840 361 829 c 1,32,-1
 356 793 l 1,33,34
 345 763 345 763 292 763 c 0,35,36
 272 763 272 763 261.5 772 c 128,-1,37
 251 781 251 781 251 793 c 1,38,-1
 255 824 l 1,39,28
 260 839 260 839 279 848.5 c 128,-1,29
477 848.5 m 128,-1,41
 496 858 496 858 516 858 c 128,-1,42
 536 858 536 858 547.5 849 c 128,-1,43
 559 840 559 840 559 829 c 1,44,-1
 554 793 l 1,45,46
 543 763 543 763 490 763 c 0,47,48
 470 763 470 763 459.5 772 c 128,-1,49
 449 781 449 781 449 793 c 1,50,-1
 453 824 l 1,51,40
 458 839 458 839 477 848.5 c 128,-1,41
EndSplineSet
EndChar

StartChar: multiply
Encoding: 215 215 151
Width: 520
GlyphClass: 2
Flags: W
LayerCount: 2
Fore
SplineSet
381 184 m 1,0,-1
 253 316 l 1,1,-1
 107 183 l 1,2,3
 94 190 94 190 86 199 c 1,4,-1
 75 219 l 1,5,-1
 218 352 l 1,6,-1
 104 470 l 1,7,-1
 104 480 l 1,8,9
 122 510 122 510 150 529 c 1,10,-1
 273 402 l 1,11,-1
 410 529 l 1,12,13
 436 516 436 516 443 490 c 1,14,-1
 307 366 l 1,15,-1
 427 243 l 1,16,-1
 427 233 l 1,17,18
 413 207 413 207 381 184 c 1,0,-1
EndSplineSet
EndChar

StartChar: Oslash
Encoding: 216 216 152
Width: 687
GlyphClass: 2
Flags: W
LayerCount: 2
Fore
SplineSet
267 -20 m 1,0,-1
 244 -19 l 1,1,-1
 228 -66 l 1,2,3
 210 -71 210 -71 193 -71 c 1,4,-1
 163 -66 l 1,5,-1
 186 -7 l 1,6,7
 116 18 116 18 77 85 c 128,-1,8
 38 152 38 152 38 238.5 c 128,-1,9
 38 325 38 325 62.5 404 c 128,-1,10
 87 483 87 483 134.5 549 c 128,-1,11
 182 615 182 615 260 655 c 128,-1,12
 338 695 338 695 435 695 c 1,13,-1
 452 743 l 1,14,-1
 531 758 l 1,15,-1
 535 742 l 1,16,17
 524 718 524 718 509 681 c 1,18,19
 579 656 579 656 618 589.5 c 128,-1,20
 657 523 657 523 657 436.5 c 128,-1,21
 657 350 657 350 632.5 270.5 c 128,-1,22
 608 191 608 191 562 125.5 c 128,-1,23
 516 60 516 60 439.5 20 c 128,-1,24
 363 -20 363 -20 267 -20 c 1,0,-1
573 385 m 0,25,26
 573 454 573 454 548.5 513.5 c 128,-1,27
 524 573 524 573 477 605 c 1,28,29
 389 384 389 384 272 60 c 1,30,-1
 400 60 l 1,31,32
 484 105 484 105 528.5 194 c 128,-1,33
 573 283 573 283 573 385 c 0,25,26
122 292 m 0,34,35
 122 223 122 223 146.5 165 c 128,-1,36
 171 107 171 107 218 78 c 1,37,38
 291 278 291 278 411 625 c 1,39,-1
 298 625 l 1,40,41
 214 580 214 580 168 487.5 c 128,-1,42
 122 395 122 395 122 292 c 0,34,35
EndSplineSet
EndChar

StartChar: Ugrave
Encoding: 217 217 153
Width: 703
GlyphClass: 2
Flags: W
LayerCount: 2
Fore
SplineSet
461 638 m 1,0,1
 461 661 461 661 473 681 c 1,2,3
 545 674 545 674 582 674 c 1,4,-1
 679 681 l 1,5,6
 679 658 679 658 669 638 c 1,7,8
 630 634 630 634 598 601 c 1,9,10
 575 308 575 308 560 220.5 c 128,-1,11
 545 133 545 133 529.5 95.5 c 128,-1,12
 514 58 514 58 483 31.5 c 128,-1,13
 452 5 452 5 405.5 -5 c 128,-1,14
 359 -15 359 -15 285 -15 c 0,15,16
 189 -15 189 -15 137 33 c 128,-1,17
 85 81 85 81 85 140.5 c 128,-1,18
 85 200 85 200 97.5 363.5 c 128,-1,19
 110 527 110 527 115 630 c 1,20,-1
 35 644 l 1,21,22
 35 667 35 667 45 687 c 1,23,24
 138 680 138 680 168 680 c 0,25,26
 212 680 212 680 266 686 c 1,27,-1
 280 687 l 1,28,29
 280 664 280 664 270 644 c 1,30,31
 224 636 224 636 195 614 c 1,32,33
 169 406 169 406 169 172 c 0,34,35
 169 123 169 123 208.5 91.5 c 128,-1,36
 248 60 248 60 298 60 c 2,37,-1
 433 60 l 1,38,39
 480 89 480 89 497 169 c 128,-1,40
 514 249 514 249 525 359.5 c 128,-1,41
 536 470 536 470 538 544 c 2,42,-1
 541 618 l 1,43,-1
 461 638 l 1,0,1
356 900 m 1,44,45
 403 830 403 830 450 780 c 1,46,-1
 467 761 l 1,47,-1
 467 754 l 1,48,-1
 418 735 l 1,49,50
 388 755 388 755 358 782 c 128,-1,51
 328 809 328 809 314 826 c 2,52,-1
 299 843 l 1,53,-1
 299 853 l 1,54,55
 326 888 326 888 356 900 c 1,44,45
EndSplineSet
EndChar

StartChar: Uacute
Encoding: 218 218 154
Width: 703
GlyphClass: 2
Flags: W
LayerCount: 2
Fore
SplineSet
461 638 m 1,0,1
 461 661 461 661 473 681 c 1,2,3
 545 674 545 674 582 674 c 1,4,-1
 679 681 l 1,5,6
 679 658 679 658 669 638 c 1,7,8
 630 634 630 634 598 601 c 1,9,10
 575 308 575 308 560 220.5 c 128,-1,11
 545 133 545 133 529.5 95.5 c 128,-1,12
 514 58 514 58 483 31.5 c 128,-1,13
 452 5 452 5 405.5 -5 c 128,-1,14
 359 -15 359 -15 285 -15 c 0,15,16
 189 -15 189 -15 137 33 c 128,-1,17
 85 81 85 81 85 140.5 c 128,-1,18
 85 200 85 200 97.5 363.5 c 128,-1,19
 110 527 110 527 115 630 c 1,20,-1
 35 644 l 1,21,22
 35 667 35 667 45 687 c 1,23,24
 138 680 138 680 168 680 c 0,25,26
 212 680 212 680 266 686 c 1,27,-1
 280 687 l 1,28,29
 280 664 280 664 270 644 c 1,30,31
 224 636 224 636 195 614 c 1,32,33
 169 406 169 406 169 172 c 0,34,35
 169 123 169 123 208.5 91.5 c 128,-1,36
 248 60 248 60 298 60 c 2,37,-1
 433 60 l 1,38,39
 480 89 480 89 497 169 c 128,-1,40
 514 249 514 249 525 359.5 c 128,-1,41
 536 470 536 470 538 544 c 2,42,-1
 541 618 l 1,43,-1
 461 638 l 1,0,1
423 890 m 1,44,45
 456 884 456 884 493 865 c 1,46,-1
 493 855 l 1,47,48
 430 781 430 781 362 735 c 1,49,-1
 313 754 l 1,50,-1
 313 761 l 1,51,52
 374 817 374 817 423 890 c 1,44,45
EndSplineSet
EndChar

StartChar: Ucircumflex
Encoding: 219 219 155
Width: 703
GlyphClass: 2
Flags: W
LayerCount: 2
Fore
SplineSet
461 638 m 1,0,1
 461 661 461 661 473 681 c 1,2,3
 545 674 545 674 582 674 c 1,4,-1
 679 681 l 1,5,6
 679 658 679 658 669 638 c 1,7,8
 630 634 630 634 598 601 c 1,9,10
 575 308 575 308 560 220.5 c 128,-1,11
 545 133 545 133 529.5 95.5 c 128,-1,12
 514 58 514 58 483 31.5 c 128,-1,13
 452 5 452 5 405.5 -5 c 128,-1,14
 359 -15 359 -15 285 -15 c 0,15,16
 189 -15 189 -15 137 33 c 128,-1,17
 85 81 85 81 85 140.5 c 128,-1,18
 85 200 85 200 97.5 363.5 c 128,-1,19
 110 527 110 527 115 630 c 1,20,-1
 35 644 l 1,21,22
 35 667 35 667 45 687 c 1,23,24
 138 680 138 680 168 680 c 0,25,26
 212 680 212 680 266 686 c 1,27,-1
 280 687 l 1,28,29
 280 664 280 664 270 644 c 1,30,31
 224 636 224 636 195 614 c 1,32,33
 169 406 169 406 169 172 c 0,34,35
 169 123 169 123 208.5 91.5 c 128,-1,36
 248 60 248 60 298 60 c 2,37,-1
 433 60 l 1,38,39
 480 89 480 89 497 169 c 128,-1,40
 514 249 514 249 525 359.5 c 128,-1,41
 536 470 536 470 538 544 c 2,42,-1
 541 618 l 1,43,-1
 461 638 l 1,0,1
353 878 m 1,44,-1
 406 905 l 1,45,46
 453 831 453 831 516 767 c 1,47,-1
 516 759 l 1,48,-1
 464 735 l 1,49,50
 410 781 410 781 377 832 c 1,51,52
 337 786 337 786 277 748 c 1,53,-1
 233 759 l 1,54,-1
 233 767 l 1,55,56
 322 831 322 831 353 878 c 1,44,-1
EndSplineSet
EndChar

StartChar: Udieresis
Encoding: 220 220 156
Width: 703
GlyphClass: 2
Flags: W
LayerCount: 2
Fore
SplineSet
461 638 m 1,0,1
 461 661 461 661 473 681 c 1,2,3
 545 674 545 674 582 674 c 1,4,-1
 679 681 l 1,5,6
 679 658 679 658 669 638 c 1,7,8
 630 634 630 634 598 601 c 1,9,10
 575 308 575 308 560 220.5 c 128,-1,11
 545 133 545 133 529.5 95.5 c 128,-1,12
 514 58 514 58 483 31.5 c 128,-1,13
 452 5 452 5 405.5 -5 c 128,-1,14
 359 -15 359 -15 285 -15 c 0,15,16
 189 -15 189 -15 137 33 c 128,-1,17
 85 81 85 81 85 140.5 c 128,-1,18
 85 200 85 200 97.5 363.5 c 128,-1,19
 110 527 110 527 115 630 c 1,20,-1
 35 644 l 1,21,22
 35 667 35 667 45 687 c 1,23,24
 138 680 138 680 168 680 c 0,25,26
 212 680 212 680 266 686 c 1,27,-1
 280 687 l 1,28,29
 280 664 280 664 270 644 c 1,30,31
 224 636 224 636 195 614 c 1,32,33
 169 406 169 406 169 172 c 0,34,35
 169 123 169 123 208.5 91.5 c 128,-1,36
 248 60 248 60 298 60 c 2,37,-1
 433 60 l 1,38,39
 480 89 480 89 497 169 c 128,-1,40
 514 249 514 249 525 359.5 c 128,-1,41
 536 470 536 470 538 544 c 2,42,-1
 541 618 l 1,43,-1
 461 638 l 1,0,1
246 847.5 m 128,-1,45
 265 857 265 857 285 857 c 128,-1,46
 305 857 305 857 316.5 848 c 128,-1,47
 328 839 328 839 328 828 c 1,48,-1
 323 792 l 1,49,50
 312 762 312 762 259 762 c 0,51,52
 239 762 239 762 228.5 771 c 128,-1,53
 218 780 218 780 218 792 c 1,54,-1
 222 823 l 1,55,44
 227 838 227 838 246 847.5 c 128,-1,45
444 847.5 m 128,-1,57
 463 857 463 857 483 857 c 128,-1,58
 503 857 503 857 514.5 848 c 128,-1,59
 526 839 526 839 526 828 c 1,60,-1
 521 792 l 1,61,62
 510 762 510 762 457 762 c 0,63,64
 437 762 437 762 426.5 771 c 128,-1,65
 416 780 416 780 416 792 c 1,66,-1
 420 823 l 1,67,56
 425 838 425 838 444 847.5 c 128,-1,57
EndSplineSet
EndChar

StartChar: Yacute
Encoding: 221 221 157
Width: 543
GlyphClass: 2
Flags: W
LayerCount: 2
Fore
SplineSet
-5 -217 m 1,0,1
 -5 -193 -5 -193 4 -175 c 1,2,-1
 295 -175 l 1,3,4
 340 -153 340 -153 374 -34 c 0,5,6
 396 41 396 41 406 173 c 1,7,-1
 396 179 l 1,8,9
 368 114 368 114 307 54 c 0,10,11
 275 23 275 23 230.5 4 c 128,-1,12
 186 -15 186 -15 144 -15 c 128,-1,13
 102 -15 102 -15 76.5 -10.5 c 128,-1,14
 51 -6 51 -6 40 0 c 0,15,16
 15 13 15 13 14 22 c 2,17,-1
 13 27 l 1,18,19
 18 72 18 72 28 153.5 c 128,-1,20
 38 235 38 235 43 277.5 c 128,-1,21
 48 320 48 320 54 384 c 1,22,23
 68 511 68 511 73 625 c 1,24,-1
 -1 625 l 1,25,26
 -1 648 -1 648 9 668 c 1,27,28
 71 676 71 676 125 700 c 1,29,30
 139 700 139 700 150 687.5 c 128,-1,31
 161 675 161 675 161 655 c 1,32,33
 117 376 117 376 98 60 c 1,34,-1
 187 60 l 2,35,36
 234 60 234 60 303.5 131.5 c 128,-1,37
 373 203 373 203 407 278 c 1,38,39
 437 532 437 532 457 666 c 1,40,41
 507 681 507 681 552 681 c 1,42,43
 533 604 533 604 523.5 533.5 c 128,-1,44
 514 463 514 463 499 330.5 c 128,-1,45
 484 198 484 198 479.5 160 c 128,-1,46
 475 122 475 122 466 60.5 c 128,-1,47
 457 -1 457 -1 450 -27 c 128,-1,48
 443 -53 443 -53 431 -95 c 128,-1,49
 419 -137 419 -137 405.5 -153 c 128,-1,50
 392 -169 392 -169 373 -192.5 c 128,-1,51
 354 -216 354 -216 330 -224 c 0,52,53
 267 -245 267 -245 214 -245 c 0,54,55
 113 -245 113 -245 24 -224 c 2,56,-1
 -5 -217 l 1,0,1
373 890 m 1,57,58
 406 884 406 884 443 865 c 1,59,-1
 443 855 l 1,60,61
 380 781 380 781 312 735 c 1,62,-1
 263 754 l 1,63,-1
 263 761 l 1,64,65
 324 817 324 817 373 890 c 1,57,58
EndSplineSet
EndChar

StartChar: Thorn
Encoding: 222 222 158
Width: 580
GlyphClass: 2
Flags: W
LayerCount: 2
Fore
SplineSet
52 644 m 1,0,1
 52 667 52 667 62 687 c 1,2,3
 155 680 155 680 186 680 c 0,4,5
 229 680 229 680 282 686 c 1,6,-1
 297 687 l 1,7,8
 297 664 297 664 287 644 c 1,9,10
 240 636 240 636 212 613 c 1,11,-1
 206 563 l 1,12,-1
 345 579 l 1,13,14
 432 579 432 579 484 539.5 c 128,-1,15
 536 500 536 500 536 412 c 0,16,17
 536 299 536 299 451.5 234.5 c 128,-1,18
 367 170 367 170 249 170 c 2,19,-1
 174 170 l 1,20,-1
 168 51 l 1,21,-1
 252 36 l 1,22,23
 252 13 252 13 242 -7 c 1,24,25
 139 0 139 0 109 0 c 0,26,27
 65 0 65 0 20 -6 c 1,28,-1
 7 -7 l 1,29,30
 7 16 7 16 17 36 c 1,31,32
 55 47 55 47 83 70 c 1,33,34
 109 295 109 295 128 631 c 1,35,-1
 52 644 l 1,0,1
420.5 279.5 m 128,-1,37
 458 325 458 325 458 378 c 128,-1,38
 458 431 458 431 436 468 c 128,-1,39
 414 505 414 505 373 514 c 1,40,-1
 201 514 l 1,41,42
 187 385 187 385 177 221 c 1,43,-1
 315 221 l 1,44,36
 383 234 383 234 420.5 279.5 c 128,-1,37
EndSplineSet
EndChar

StartChar: germandbls
Encoding: 223 223 159
Width: 488
GlyphClass: 2
Flags: W
LayerCount: 2
Fore
SplineSet
174 -10 m 1,0,1
 176 34 176 34 189 60 c 1,2,-1
 284 60 l 1,3,4
 371 107 371 107 371 214 c 0,5,6
 371 256 371 256 350 287.5 c 128,-1,7
 329 319 329 319 296 323 c 1,8,-1
 225 323 l 1,9,-1
 218 333 l 1,10,-1
 226 397 l 1,11,12
 339 462 339 462 339 554 c 0,13,14
 339 607 339 607 305 625 c 1,15,-1
 239 625 l 1,16,17
 188 594 188 594 180 524 c 0,18,19
 161 366 161 366 148 203 c 128,-1,20
 135 40 135 40 127 -15 c 1,21,22
 84 -26 84 -26 52 -30 c 1,23,-1
 33 -30 l 1,24,25
 49 37 49 37 58 101.5 c 128,-1,26
 67 166 67 166 81 323.5 c 128,-1,27
 95 481 95 481 95 485 c 0,28,29
 103 560 103 560 142 610 c 1,30,31
 208 698 208 698 309 698 c 0,32,33
 361 698 361 698 388.5 671.5 c 128,-1,34
 416 645 416 645 416 591.5 c 128,-1,35
 416 538 416 538 383 486 c 128,-1,36
 350 434 350 434 298 397 c 1,37,38
 366 397 366 397 407 360 c 128,-1,39
 448 323 448 323 448 255 c 0,40,41
 448 167 448 167 398 97 c 128,-1,42
 348 27 348 27 261 -10 c 1,43,-1
 174 -10 l 1,0,1
EndSplineSet
EndChar

StartChar: agrave
Encoding: 224 224 160
Width: 546
GlyphClass: 2
Flags: W
LayerCount: 2
Fore
SplineSet
509 60 m 1,0,1
 509 37 509 37 499 17 c 1,2,3
 432 9 432 9 378 -15 c 1,4,5
 363 -15 363 -15 352.5 -4 c 128,-1,6
 342 7 342 7 342 30 c 1,7,-1
 361 173 l 1,8,-1
 351 179 l 1,9,10
 314 89 314 89 276 39.5 c 128,-1,11
 238 -10 238 -10 176 -10 c 128,-1,12
 114 -10 114 -10 72 35.5 c 128,-1,13
 30 81 30 81 30 159 c 0,14,15
 30 288 30 288 107 384 c 128,-1,16
 184 480 184 480 298 480 c 0,17,18
 335 480 335 480 382 451 c 1,19,20
 384 469 384 469 386 480 c 1,21,22
 436 495 436 495 481 495 c 1,23,24
 462 418 462 418 449.5 329 c 128,-1,25
 437 240 437 240 425 60 c 1,26,-1
 509 60 l 1,0,1
106 187 m 0,27,28
 106 143 106 143 126 107.5 c 128,-1,29
 146 72 146 72 171 60 c 1,30,-1
 219 60 l 1,31,32
 277 71 277 71 360 270 c 1,33,34
 364 312 364 312 376 410 c 1,35,-1
 216 410 l 1,36,37
 177 403 177 403 141.5 332.5 c 128,-1,38
 106 262 106 262 106 187 c 0,27,28
249 760 m 1,39,40
 293 696 293 696 353 621 c 2,41,-1
 373 596 l 1,42,-1
 373 589 l 1,43,-1
 324 570 l 1,44,45
 296 590 296 590 263 624 c 128,-1,46
 230 658 230 658 211 682 c 2,47,-1
 192 705 l 1,48,-1
 192 715 l 1,49,50
 217 747 217 747 249 760 c 1,39,40
EndSplineSet
EndChar

StartChar: aacute
Encoding: 225 225 161
Width: 546
GlyphClass: 2
Flags: W
LayerCount: 2
Fore
SplineSet
509 60 m 1,0,1
 509 37 509 37 499 17 c 1,2,3
 432 9 432 9 378 -15 c 1,4,5
 363 -15 363 -15 352.5 -4 c 128,-1,6
 342 7 342 7 342 30 c 1,7,-1
 361 173 l 1,8,-1
 351 179 l 1,9,10
 314 89 314 89 276 39.5 c 128,-1,11
 238 -10 238 -10 176 -10 c 128,-1,12
 114 -10 114 -10 72 35.5 c 128,-1,13
 30 81 30 81 30 159 c 0,14,15
 30 288 30 288 107 384 c 128,-1,16
 184 480 184 480 298 480 c 0,17,18
 335 480 335 480 382 451 c 1,19,20
 384 469 384 469 386 480 c 1,21,22
 436 495 436 495 481 495 c 1,23,24
 462 418 462 418 449.5 329 c 128,-1,25
 437 240 437 240 425 60 c 1,26,-1
 509 60 l 1,0,1
106 187 m 0,27,28
 106 143 106 143 126 107.5 c 128,-1,29
 146 72 146 72 171 60 c 1,30,-1
 219 60 l 1,31,32
 277 71 277 71 360 270 c 1,33,34
 364 312 364 312 376 410 c 1,35,-1
 216 410 l 1,36,37
 177 403 177 403 141.5 332.5 c 128,-1,38
 106 262 106 262 106 187 c 0,27,28
379 740 m 1,39,40
 412 734 412 734 449 715 c 1,41,-1
 449 705 l 1,42,43
 375 616 375 616 307 570 c 1,44,-1
 258 589 l 1,45,-1
 258 596 l 1,46,47
 330 667 330 667 379 740 c 1,39,40
EndSplineSet
EndChar

StartChar: acircumflex
Encoding: 226 226 162
Width: 546
GlyphClass: 2
Flags: W
LayerCount: 2
Fore
SplineSet
509 60 m 1,0,1
 509 37 509 37 499 17 c 1,2,3
 432 9 432 9 378 -15 c 1,4,5
 363 -15 363 -15 352.5 -4 c 128,-1,6
 342 7 342 7 342 30 c 1,7,-1
 361 173 l 1,8,-1
 351 179 l 1,9,10
 314 89 314 89 276 39.5 c 128,-1,11
 238 -10 238 -10 176 -10 c 128,-1,12
 114 -10 114 -10 72 35.5 c 128,-1,13
 30 81 30 81 30 159 c 0,14,15
 30 288 30 288 107 384 c 128,-1,16
 184 480 184 480 298 480 c 0,17,18
 335 480 335 480 382 451 c 1,19,20
 384 469 384 469 386 480 c 1,21,22
 436 495 436 495 481 495 c 1,23,24
 462 418 462 418 449.5 329 c 128,-1,25
 437 240 437 240 425 60 c 1,26,-1
 509 60 l 1,0,1
106 187 m 0,27,28
 106 143 106 143 126 107.5 c 128,-1,29
 146 72 146 72 171 60 c 1,30,-1
 219 60 l 1,31,32
 277 71 277 71 360 270 c 1,33,34
 364 312 364 312 376 410 c 1,35,-1
 216 410 l 1,36,37
 177 403 177 403 141.5 332.5 c 128,-1,38
 106 262 106 262 106 187 c 0,27,28
296 713 m 1,39,-1
 349 740 l 1,40,41
 396 666 396 666 459 602 c 1,42,-1
 459 594 l 1,43,-1
 407 570 l 1,44,45
 353 616 353 616 320 667 c 1,46,47
 280 621 280 621 220 583 c 1,48,-1
 176 594 l 1,49,-1
 176 602 l 1,50,51
 265 666 265 666 296 713 c 1,39,-1
EndSplineSet
EndChar

StartChar: atilde
Encoding: 227 227 163
Width: 546
GlyphClass: 2
Flags: W
LayerCount: 2
Fore
SplineSet
509 60 m 1,0,1
 509 37 509 37 499 17 c 1,2,3
 432 9 432 9 378 -15 c 1,4,5
 363 -15 363 -15 352.5 -4 c 128,-1,6
 342 7 342 7 342 30 c 1,7,-1
 361 173 l 1,8,-1
 351 179 l 1,9,10
 314 89 314 89 276 39.5 c 128,-1,11
 238 -10 238 -10 176 -10 c 128,-1,12
 114 -10 114 -10 72 35.5 c 128,-1,13
 30 81 30 81 30 159 c 0,14,15
 30 288 30 288 107 384 c 128,-1,16
 184 480 184 480 298 480 c 0,17,18
 335 480 335 480 382 451 c 1,19,20
 384 469 384 469 386 480 c 1,21,22
 436 495 436 495 481 495 c 1,23,24
 462 418 462 418 449.5 329 c 128,-1,25
 437 240 437 240 425 60 c 1,26,-1
 509 60 l 1,0,1
106 187 m 0,27,28
 106 143 106 143 126 107.5 c 128,-1,29
 146 72 146 72 171 60 c 1,30,-1
 219 60 l 1,31,32
 277 71 277 71 360 270 c 1,33,34
 364 312 364 312 376 410 c 1,35,-1
 216 410 l 1,36,37
 177 403 177 403 141.5 332.5 c 128,-1,38
 106 262 106 262 106 187 c 0,27,28
442 587 m 1,39,40
 421 580 421 580 392.5 580 c 128,-1,41
 364 580 364 580 311.5 599 c 128,-1,42
 259 618 259 618 249 618 c 2,43,-1
 226 618 l 1,44,45
 215 606 215 606 207 587 c 1,46,-1
 170 587 l 1,47,-1
 163 595 l 1,48,-1
 180 683 l 1,49,50
 201 690 201 690 228 690 c 128,-1,51
 255 690 255 690 308.5 671 c 128,-1,52
 362 652 362 652 373 652 c 2,53,-1
 396 652 l 1,54,55
 407 664 407 664 415 683 c 1,56,-1
 452 683 l 1,57,-1
 459 675 l 1,58,-1
 442 587 l 1,39,40
EndSplineSet
EndChar

StartChar: adieresis
Encoding: 228 228 164
Width: 546
GlyphClass: 2
Flags: W
LayerCount: 2
Fore
SplineSet
509 60 m 1,0,1
 509 37 509 37 499 17 c 1,2,3
 432 9 432 9 378 -15 c 1,4,5
 363 -15 363 -15 352.5 -4 c 128,-1,6
 342 7 342 7 342 30 c 1,7,-1
 361 173 l 1,8,-1
 351 179 l 1,9,10
 314 89 314 89 276 39.5 c 128,-1,11
 238 -10 238 -10 176 -10 c 128,-1,12
 114 -10 114 -10 72 35.5 c 128,-1,13
 30 81 30 81 30 159 c 0,14,15
 30 288 30 288 107 384 c 128,-1,16
 184 480 184 480 298 480 c 0,17,18
 335 480 335 480 382 451 c 1,19,20
 384 469 384 469 386 480 c 1,21,22
 436 495 436 495 481 495 c 1,23,24
 462 418 462 418 449.5 329 c 128,-1,25
 437 240 437 240 425 60 c 1,26,-1
 509 60 l 1,0,1
106 187 m 0,27,28
 106 143 106 143 126 107.5 c 128,-1,29
 146 72 146 72 171 60 c 1,30,-1
 219 60 l 1,31,32
 277 71 277 71 360 270 c 1,33,34
 364 312 364 312 376 410 c 1,35,-1
 216 410 l 1,36,37
 177 403 177 403 141.5 332.5 c 128,-1,38
 106 262 106 262 106 187 c 0,27,28
189 671.5 m 128,-1,40
 208 681 208 681 228 681 c 128,-1,41
 248 681 248 681 259.5 672 c 128,-1,42
 271 663 271 663 271 652 c 1,43,-1
 266 616 l 1,44,45
 255 586 255 586 202 586 c 0,46,47
 182 586 182 586 171.5 595 c 128,-1,48
 161 604 161 604 161 616 c 1,49,-1
 165 647 l 1,50,39
 170 662 170 662 189 671.5 c 128,-1,40
387 671.5 m 128,-1,52
 406 681 406 681 426 681 c 128,-1,53
 446 681 446 681 457.5 672 c 128,-1,54
 469 663 469 663 469 652 c 1,55,-1
 464 616 l 1,56,57
 453 586 453 586 400 586 c 0,58,59
 380 586 380 586 369.5 595 c 128,-1,60
 359 604 359 604 359 616 c 1,61,-1
 363 647 l 1,62,51
 368 662 368 662 387 671.5 c 128,-1,52
EndSplineSet
EndChar

StartChar: aring
Encoding: 229 229 165
Width: 546
GlyphClass: 2
Flags: W
LayerCount: 2
Fore
SplineSet
509 60 m 1,0,1
 509 37 509 37 499 17 c 1,2,3
 432 9 432 9 378 -15 c 1,4,5
 363 -15 363 -15 352.5 -4 c 128,-1,6
 342 7 342 7 342 30 c 1,7,-1
 361 173 l 1,8,-1
 351 179 l 1,9,10
 314 89 314 89 276 39.5 c 128,-1,11
 238 -10 238 -10 176 -10 c 128,-1,12
 114 -10 114 -10 72 35.5 c 128,-1,13
 30 81 30 81 30 159 c 0,14,15
 30 288 30 288 107 384 c 128,-1,16
 184 480 184 480 298 480 c 0,17,18
 335 480 335 480 382 451 c 1,19,20
 384 469 384 469 386 480 c 1,21,22
 436 495 436 495 481 495 c 1,23,24
 462 418 462 418 449.5 329 c 128,-1,25
 437 240 437 240 425 60 c 1,26,-1
 509 60 l 1,0,1
106 187 m 0,27,28
 106 143 106 143 126 107.5 c 128,-1,29
 146 72 146 72 171 60 c 1,30,-1
 219 60 l 1,31,32
 277 71 277 71 360 270 c 1,33,34
 364 312 364 312 376 410 c 1,35,-1
 216 410 l 1,36,37
 177 403 177 403 141.5 332.5 c 128,-1,38
 106 262 106 262 106 187 c 0,27,28
271 686.5 m 128,-1,40
 294 715 294 715 328.5 715 c 128,-1,41
 363 715 363 715 381.5 699.5 c 128,-1,42
 400 684 400 684 400 650.5 c 128,-1,43
 400 617 400 617 377 588.5 c 128,-1,44
 354 560 354 560 319 560 c 0,45,46
 248 560 248 560 248 621 c 0,47,39
 248 658 248 658 271 686.5 c 128,-1,40
336 672 m 1,48,-1
 317 672 l 1,49,50
 308 670 308 670 300 659.5 c 128,-1,51
 292 649 292 649 291.5 628.5 c 128,-1,52
 291 608 291 608 310 604 c 1,53,-1
 329 604 l 1,54,55
 338 606 338 606 346 616.5 c 128,-1,56
 354 627 354 627 354.5 647.5 c 128,-1,57
 355 668 355 668 336 672 c 1,48,-1
EndSplineSet
EndChar

StartChar: ae
Encoding: 230 230 166
Width: 760
GlyphClass: 2
Flags: W
LayerCount: 2
Fore
SplineSet
680 60 m 1,0,1
 680 37 680 37 670 17 c 1,2,3
 544 -10 544 -10 498 -10 c 0,4,5
 417 -10 417 -10 382.5 30.5 c 128,-1,6
 348 71 348 71 346 167 c 1,7,8
 311 83 311 83 273.5 36.5 c 128,-1,9
 236 -10 236 -10 175 -10 c 128,-1,10
 114 -10 114 -10 72 35.5 c 128,-1,11
 30 81 30 81 30 159 c 0,12,13
 30 288 30 288 107 384 c 128,-1,14
 184 480 184 480 298 480 c 0,15,16
 335 480 335 480 382 451 c 1,17,18
 384 469 384 469 386 480 c 1,19,20
 436 495 436 495 481 495 c 1,21,22
 472 461 472 461 466 430 c 1,23,24
 529 480 529 480 607 480 c 0,25,26
 656 480 656 480 679 455 c 128,-1,27
 702 430 702 430 702 394 c 0,28,29
 702 214 702 214 420 208 c 1,30,31
 420 68 420 68 482 60 c 1,32,-1
 680 60 l 1,0,1
106 187 m 0,33,34
 106 143 106 143 126 107.5 c 128,-1,35
 146 72 146 72 171 60 c 1,36,-1
 219 60 l 1,37,38
 246 65 246 65 279 112.5 c 128,-1,39
 312 160 312 160 329 197.5 c 128,-1,40
 346 235 346 235 360 270 c 1,41,-1
 376 410 l 1,42,-1
 216 410 l 1,43,44
 177 403 177 403 141.5 332.5 c 128,-1,45
 106 262 106 262 106 187 c 0,33,34
632 369 m 0,46,47
 632 402 632 402 604 410 c 1,48,-1
 512 410 l 1,49,50
 478 397 478 397 453.5 350.5 c 128,-1,51
 429 304 429 304 422 247 c 1,52,53
 537 251 537 251 584.5 282.5 c 128,-1,54
 632 314 632 314 632 369 c 0,46,47
EndSplineSet
EndChar

StartChar: ccedilla
Encoding: 231 231 167
Width: 437
GlyphClass: 2
Flags: W
LayerCount: 2
Fore
SplineSet
137 -190 m 1,0,1
 143 -172 143 -172 157 -152 c 1,2,3
 192 -152 192 -152 209 -138.5 c 128,-1,4
 226 -125 226 -125 226 -107 c 128,-1,5
 226 -89 226 -89 215 -81 c 1,6,-1
 173 -81 l 1,7,-1
 167 -72 l 1,8,-1
 188 -9 l 1,9,10
 109 -6 109 -6 69 38 c 128,-1,11
 29 82 29 82 29 166 c 128,-1,12
 29 250 29 250 58.5 318 c 128,-1,13
 88 386 88 386 149 433 c 128,-1,14
 210 480 210 480 289 480 c 0,15,16
 327 480 327 480 358.5 466 c 128,-1,17
 390 452 390 452 404 440 c 1,18,19
 383 403 383 403 370 350 c 1,20,-1
 365 333 l 1,21,22
 345 324 345 324 316 324 c 1,23,24
 325 364 325 364 325 384 c 128,-1,25
 325 404 325 404 310 410 c 1,26,-1
 205 410 l 1,27,28
 164 394 164 394 133.5 334.5 c 128,-1,29
 103 275 103 275 103 208 c 0,30,31
 103 130 103 130 132 96 c 0,32,33
 157 67 157 67 178 62 c 2,34,-1
 186 60 l 1,35,-1
 364 60 l 1,36,37
 364 37 364 37 354 17 c 1,38,39
 279 -2 279 -2 228 -8 c 1,40,-1
 223 -34 l 1,41,-1
 256 -34 l 1,42,43
 284 -50 284 -50 284 -84 c 0,44,45
 284 -132 284 -132 242.5 -160.5 c 128,-1,46
 201 -189 201 -189 137 -190 c 1,0,1
EndSplineSet
EndChar

StartChar: egrave
Encoding: 232 232 168
Width: 446
GlyphClass: 2
Flags: W
LayerCount: 2
Fore
SplineSet
381 60 m 1,0,1
 381 37 381 37 371 17 c 1,2,3
 265 -10 265 -10 219 -10 c 0,4,5
 47 -10 47 -10 47 177 c 0,6,7
 47 246 47 246 77 314.5 c 128,-1,8
 107 383 107 383 168.5 431.5 c 128,-1,9
 230 480 230 480 308 480 c 0,10,11
 357 480 357 480 380 455 c 128,-1,12
 403 430 403 430 403 394 c 0,13,14
 403 214 403 214 121 208 c 1,15,16
 121 71 121 71 203 60 c 1,17,-1
 381 60 l 1,0,1
333 369 m 0,18,19
 333 402 333 402 305 410 c 1,20,-1
 213 410 l 1,21,22
 180 397 180 397 156 352.5 c 128,-1,23
 132 308 132 308 124 252 c 1,24,25
 239 256 239 256 286 285.5 c 128,-1,26
 333 315 333 315 333 369 c 0,18,19
238 760 m 1,27,28
 282 696 282 696 342 621 c 2,29,-1
 362 596 l 1,30,-1
 362 589 l 1,31,-1
 313 570 l 1,32,33
 285 590 285 590 252 624 c 128,-1,34
 219 658 219 658 200 682 c 2,35,-1
 181 705 l 1,36,-1
 181 715 l 1,37,38
 206 747 206 747 238 760 c 1,27,28
EndSplineSet
EndChar

StartChar: eacute
Encoding: 233 233 169
Width: 446
GlyphClass: 2
Flags: W
LayerCount: 2
Fore
SplineSet
381 60 m 1,0,1
 381 37 381 37 371 17 c 1,2,3
 265 -10 265 -10 219 -10 c 0,4,5
 47 -10 47 -10 47 177 c 0,6,7
 47 246 47 246 77 314.5 c 128,-1,8
 107 383 107 383 168.5 431.5 c 128,-1,9
 230 480 230 480 308 480 c 0,10,11
 357 480 357 480 380 455 c 128,-1,12
 403 430 403 430 403 394 c 0,13,14
 403 214 403 214 121 208 c 1,15,16
 121 71 121 71 203 60 c 1,17,-1
 381 60 l 1,0,1
333 369 m 0,18,19
 333 402 333 402 305 410 c 1,20,-1
 213 410 l 1,21,22
 180 397 180 397 156 352.5 c 128,-1,23
 132 308 132 308 124 252 c 1,24,25
 239 256 239 256 286 285.5 c 128,-1,26
 333 315 333 315 333 369 c 0,18,19
354 740 m 1,27,28
 387 734 387 734 424 715 c 1,29,-1
 424 705 l 1,30,31
 350 616 350 616 282 570 c 1,32,-1
 233 589 l 1,33,-1
 233 596 l 1,34,35
 305 667 305 667 354 740 c 1,27,28
EndSplineSet
EndChar

StartChar: ecircumflex
Encoding: 234 234 170
Width: 446
GlyphClass: 2
Flags: W
LayerCount: 2
Fore
SplineSet
381 60 m 1,0,1
 381 37 381 37 371 17 c 1,2,3
 265 -10 265 -10 219 -10 c 0,4,5
 47 -10 47 -10 47 177 c 0,6,7
 47 246 47 246 77 314.5 c 128,-1,8
 107 383 107 383 168.5 431.5 c 128,-1,9
 230 480 230 480 308 480 c 0,10,11
 357 480 357 480 380 455 c 128,-1,12
 403 430 403 430 403 394 c 0,13,14
 403 214 403 214 121 208 c 1,15,16
 121 71 121 71 203 60 c 1,17,-1
 381 60 l 1,0,1
333 369 m 0,18,19
 333 402 333 402 305 410 c 1,20,-1
 213 410 l 1,21,22
 180 397 180 397 156 352.5 c 128,-1,23
 132 308 132 308 124 252 c 1,24,25
 239 256 239 256 286 285.5 c 128,-1,26
 333 315 333 315 333 369 c 0,18,19
277 713 m 1,27,-1
 330 740 l 1,28,29
 377 666 377 666 440 602 c 1,30,-1
 440 594 l 1,31,-1
 388 570 l 1,32,33
 334 616 334 616 301 667 c 1,34,35
 261 621 261 621 201 583 c 1,36,-1
 157 594 l 1,37,-1
 157 602 l 1,38,39
 246 666 246 666 277 713 c 1,27,-1
EndSplineSet
EndChar

StartChar: edieresis
Encoding: 235 235 171
Width: 446
GlyphClass: 2
Flags: W
LayerCount: 2
Fore
SplineSet
381 60 m 1,0,1
 381 37 381 37 371 17 c 1,2,3
 265 -10 265 -10 219 -10 c 0,4,5
 47 -10 47 -10 47 177 c 0,6,7
 47 246 47 246 77 314.5 c 128,-1,8
 107 383 107 383 168.5 431.5 c 128,-1,9
 230 480 230 480 308 480 c 0,10,11
 357 480 357 480 380 455 c 128,-1,12
 403 430 403 430 403 394 c 0,13,14
 403 214 403 214 121 208 c 1,15,16
 121 71 121 71 203 60 c 1,17,-1
 381 60 l 1,0,1
333 369 m 0,18,19
 333 402 333 402 305 410 c 1,20,-1
 213 410 l 1,21,22
 180 397 180 397 156 352.5 c 128,-1,23
 132 308 132 308 124 252 c 1,24,25
 239 256 239 256 286 285.5 c 128,-1,26
 333 315 333 315 333 369 c 0,18,19
176 671.5 m 128,-1,28
 195 681 195 681 215 681 c 128,-1,29
 235 681 235 681 246.5 672 c 128,-1,30
 258 663 258 663 258 652 c 1,31,-1
 253 616 l 1,32,33
 242 586 242 586 189 586 c 0,34,35
 169 586 169 586 158.5 595 c 128,-1,36
 148 604 148 604 148 616 c 1,37,-1
 152 647 l 1,38,27
 157 662 157 662 176 671.5 c 128,-1,28
374 671.5 m 128,-1,40
 393 681 393 681 413 681 c 128,-1,41
 433 681 433 681 444.5 672 c 128,-1,42
 456 663 456 663 456 652 c 1,43,-1
 451 616 l 1,44,45
 440 586 440 586 387 586 c 0,46,47
 367 586 367 586 356.5 595 c 128,-1,48
 346 604 346 604 346 616 c 1,49,-1
 350 647 l 1,50,39
 355 662 355 662 374 671.5 c 128,-1,40
EndSplineSet
EndChar

StartChar: igrave
Encoding: 236 236 172
Width: 287
GlyphClass: 2
Flags: W
LayerCount: 2
Fore
SplineSet
33 410 m 1,0,1
 33 433 33 433 43 453 c 1,2,3
 100 461 100 461 154 485 c 1,4,5
 168 485 168 485 179 472.5 c 128,-1,6
 190 460 190 460 190 440 c 1,7,8
 167 245 167 245 159 60 c 1,9,-1
 239 60 l 1,10,11
 239 37 239 37 229 17 c 1,12,13
 162 9 162 9 108 -15 c 1,14,15
 93 -15 93 -15 82.5 -4 c 128,-1,16
 72 7 72 7 72 30 c 1,17,18
 94 170 94 170 110 410 c 1,19,-1
 33 410 l 1,0,1
110 760 m 1,20,21
 154 696 154 696 214 621 c 2,22,-1
 234 596 l 1,23,-1
 234 589 l 1,24,-1
 185 570 l 1,25,26
 157 590 157 590 124 624 c 128,-1,27
 91 658 91 658 72 682 c 2,28,-1
 53 705 l 1,29,-1
 53 715 l 1,30,31
 78 747 78 747 110 760 c 1,20,21
EndSplineSet
EndChar

StartChar: iacute
Encoding: 237 237 173
Width: 287
GlyphClass: 2
Flags: W
LayerCount: 2
Fore
SplineSet
33 410 m 1,0,1
 33 433 33 433 43 453 c 1,2,3
 100 461 100 461 154 485 c 1,4,5
 168 485 168 485 179 472.5 c 128,-1,6
 190 460 190 460 190 440 c 1,7,8
 167 245 167 245 159 60 c 1,9,-1
 239 60 l 1,10,11
 239 37 239 37 229 17 c 1,12,13
 162 9 162 9 108 -15 c 1,14,15
 93 -15 93 -15 82.5 -4 c 128,-1,16
 72 7 72 7 72 30 c 1,17,18
 94 170 94 170 110 410 c 1,19,-1
 33 410 l 1,0,1
229 740 m 1,20,21
 262 734 262 734 299 715 c 1,22,-1
 299 705 l 1,23,24
 225 616 225 616 157 570 c 1,25,-1
 108 589 l 1,26,-1
 108 596 l 1,27,28
 180 667 180 667 229 740 c 1,20,21
EndSplineSet
EndChar

StartChar: icircumflex
Encoding: 238 238 174
Width: 287
GlyphClass: 2
Flags: W
LayerCount: 2
Fore
SplineSet
33 410 m 1,0,1
 33 433 33 433 43 453 c 1,2,3
 100 461 100 461 154 485 c 1,4,5
 168 485 168 485 179 472.5 c 128,-1,6
 190 460 190 460 190 440 c 1,7,8
 167 245 167 245 159 60 c 1,9,-1
 239 60 l 1,10,11
 239 37 239 37 229 17 c 1,12,13
 162 9 162 9 108 -15 c 1,14,15
 93 -15 93 -15 82.5 -4 c 128,-1,16
 72 7 72 7 72 30 c 1,17,18
 94 170 94 170 110 410 c 1,19,-1
 33 410 l 1,0,1
145 713 m 1,20,-1
 198 740 l 1,21,22
 245 666 245 666 308 602 c 1,23,-1
 308 594 l 1,24,-1
 256 570 l 1,25,26
 202 616 202 616 169 667 c 1,27,28
 129 621 129 621 69 583 c 1,29,-1
 25 594 l 1,30,-1
 25 602 l 1,31,32
 114 666 114 666 145 713 c 1,20,-1
EndSplineSet
EndChar

StartChar: idieresis
Encoding: 239 239 175
Width: 287
GlyphClass: 2
Flags: W
LayerCount: 2
Fore
SplineSet
33 410 m 1,0,1
 33 433 33 433 43 453 c 1,2,3
 100 461 100 461 154 485 c 1,4,5
 168 485 168 485 179 472.5 c 128,-1,6
 190 460 190 460 190 440 c 1,7,8
 167 245 167 245 159 60 c 1,9,-1
 239 60 l 1,10,11
 239 37 239 37 229 17 c 1,12,13
 162 9 162 9 108 -15 c 1,14,15
 93 -15 93 -15 82.5 -4 c 128,-1,16
 72 7 72 7 72 30 c 1,17,18
 94 170 94 170 110 410 c 1,19,-1
 33 410 l 1,0,1
42 671.5 m 128,-1,21
 61 681 61 681 81 681 c 128,-1,22
 101 681 101 681 112.5 672 c 128,-1,23
 124 663 124 663 124 652 c 1,24,-1
 119 616 l 1,25,26
 108 586 108 586 55 586 c 0,27,28
 35 586 35 586 24.5 595 c 128,-1,29
 14 604 14 604 14 616 c 1,30,-1
 18 647 l 1,31,20
 23 662 23 662 42 671.5 c 128,-1,21
240 671.5 m 128,-1,33
 259 681 259 681 279 681 c 128,-1,34
 299 681 299 681 310.5 672 c 128,-1,35
 322 663 322 663 322 652 c 1,36,-1
 317 616 l 1,37,38
 306 586 306 586 253 586 c 0,39,40
 233 586 233 586 222.5 595 c 128,-1,41
 212 604 212 604 212 616 c 1,42,-1
 216 647 l 1,43,32
 221 662 221 662 240 671.5 c 128,-1,33
EndSplineSet
EndChar

StartChar: eth
Encoding: 240 240 176
Width: 516
GlyphClass: 2
Flags: W
LayerCount: 2
Fore
SplineSet
466 395 m 0,0,1
 466 178 466 178 396 80 c 0,2,3
 368 41 368 41 320 15.5 c 128,-1,4
 272 -10 272 -10 207 -10 c 0,5,6
 120 -10 120 -10 75.5 34.5 c 128,-1,7
 31 79 31 79 31 176 c 0,8,9
 31 246 31 246 59.5 314 c 128,-1,10
 88 382 88 382 148.5 431 c 128,-1,11
 209 480 209 480 288.5 480 c 128,-1,12
 368 480 368 480 405 441 c 1,13,14
 405 537 405 537 365 603 c 1,15,-1
 305 558 l 1,16,17
 291 568 291 568 284 578 c 1,18,-1
 271 605 l 1,19,-1
 329 647 l 1,20,21
 313 663 313 663 283 680 c 1,22,-1
 283 690 l 1,23,-1
 337 741 l 1,24,25
 367 719 367 719 388 695 c 1,26,27
 416 720 416 720 430 732 c 1,28,-1
 449 732 l 1,29,-1
 481 690 l 1,30,-1
 422 646 l 1,31,32
 466 561 466 561 466 395 c 0,0,1
178 62 m 2,33,-1
 186 60 l 1,34,-1
 282 60 l 1,35,36
 324 76 324 76 356 137 c 128,-1,37
 388 198 388 198 388 262 c 0,38,39
 388 341 388 341 360 374 c 0,40,41
 335 403 335 403 316 408 c 2,42,-1
 308 410 l 1,43,-1
 212 410 l 1,44,45
 170 394 170 394 138 333 c 128,-1,46
 106 272 106 272 106 200.5 c 128,-1,47
 106 129 106 129 132.5 98 c 128,-1,48
 159 67 159 67 178 62 c 2,33,-1
EndSplineSet
EndChar

StartChar: ntilde
Encoding: 241 241 177
Width: 614
GlyphClass: 2
Flags: W
LayerCount: 2
Fore
SplineSet
55 410 m 1,0,1
 55 433 55 433 65 453 c 1,2,3
 122 461 122 461 176 485 c 1,4,5
 190 485 190 485 201 472.5 c 128,-1,6
 212 460 212 460 212 440 c 1,7,-1
 193 297 l 1,8,-1
 203 291 l 1,9,10
 234 362 234 362 295 421 c 128,-1,11
 356 480 356 480 433 480 c 0,12,13
 470 480 470 480 492 470 c 128,-1,14
 514 460 514 460 518 450 c 2,15,-1
 521 440 l 1,16,17
 498 247 498 247 490 60 c 1,18,-1
 570 60 l 1,19,20
 570 37 570 37 560 17 c 1,21,22
 493 9 493 9 439 -15 c 1,23,24
 424 -15 424 -15 413.5 -4 c 128,-1,25
 403 7 403 7 403 30 c 1,26,27
 425 170 425 170 441 410 c 1,28,-1
 380 410 l 2,29,30
 340 410 340 410 285 347.5 c 128,-1,31
 230 285 230 285 196 210 c 1,32,33
 186 86 186 86 173 0 c 1,34,35
 124 -15 124 -15 79 -15 c 1,36,37
 95 52 95 52 107 142 c 128,-1,38
 119 232 119 232 128 410 c 1,39,-1
 55 410 l 1,0,1
496 587 m 1,40,41
 475 580 475 580 446.5 580 c 128,-1,42
 418 580 418 580 365.5 599 c 128,-1,43
 313 618 313 618 303 618 c 2,44,-1
 280 618 l 1,45,46
 269 606 269 606 261 587 c 1,47,-1
 224 587 l 1,48,-1
 217 595 l 1,49,-1
 234 683 l 1,50,51
 255 690 255 690 282 690 c 128,-1,52
 309 690 309 690 362.5 671 c 128,-1,53
 416 652 416 652 427 652 c 2,54,-1
 450 652 l 1,55,56
 461 664 461 664 469 683 c 1,57,-1
 506 683 l 1,58,-1
 513 675 l 1,59,-1
 496 587 l 1,40,41
EndSplineSet
EndChar

StartChar: ograve
Encoding: 242 242 178
Width: 490
GlyphClass: 2
Flags: W
LayerCount: 2
Fore
SplineSet
178 62 m 2,0,-1
 186 60 l 1,1,-1
 282 60 l 1,2,3
 324 76 324 76 356 137 c 128,-1,4
 388 198 388 198 388 262 c 0,5,6
 388 341 388 341 360 374 c 0,7,8
 335 403 335 403 316 408 c 2,9,-1
 308 410 l 1,10,-1
 212 410 l 1,11,12
 170 394 170 394 138 333 c 128,-1,13
 106 272 106 272 106 200.5 c 128,-1,14
 106 129 106 129 132.5 98 c 128,-1,15
 159 67 159 67 178 62 c 2,0,-1
345.5 39 m 128,-1,17
 285 -10 285 -10 202 -10 c 0,18,19
 31 -10 31 -10 31 176 c 0,20,21
 31 246 31 246 59.5 314 c 128,-1,22
 88 382 88 382 148.5 431 c 128,-1,23
 209 480 209 480 292 480 c 0,24,25
 463 480 463 480 463 294 c 0,26,27
 463 224 463 224 434.5 156 c 128,-1,16
 406 88 406 88 345.5 39 c 128,-1,17
254 760 m 1,28,29
 298 696 298 696 358 621 c 2,30,-1
 378 596 l 1,31,-1
 378 589 l 1,32,-1
 329 570 l 1,33,34
 301 590 301 590 268 624 c 128,-1,35
 235 658 235 658 216 682 c 2,36,-1
 197 705 l 1,37,-1
 197 715 l 1,38,39
 222 747 222 747 254 760 c 1,28,29
EndSplineSet
EndChar

StartChar: oacute
Encoding: 243 243 179
Width: 490
GlyphClass: 2
Flags: W
LayerCount: 2
Fore
SplineSet
178 62 m 2,0,-1
 186 60 l 1,1,-1
 282 60 l 1,2,3
 324 76 324 76 356 137 c 128,-1,4
 388 198 388 198 388 262 c 0,5,6
 388 341 388 341 360 374 c 0,7,8
 335 403 335 403 316 408 c 2,9,-1
 308 410 l 1,10,-1
 212 410 l 1,11,12
 170 394 170 394 138 333 c 128,-1,13
 106 272 106 272 106 200.5 c 128,-1,14
 106 129 106 129 132.5 98 c 128,-1,15
 159 67 159 67 178 62 c 2,0,-1
345.5 39 m 128,-1,17
 285 -10 285 -10 202 -10 c 0,18,19
 31 -10 31 -10 31 176 c 0,20,21
 31 246 31 246 59.5 314 c 128,-1,22
 88 382 88 382 148.5 431 c 128,-1,23
 209 480 209 480 292 480 c 0,24,25
 463 480 463 480 463 294 c 0,26,27
 463 224 463 224 434.5 156 c 128,-1,16
 406 88 406 88 345.5 39 c 128,-1,17
357 740 m 1,28,29
 390 734 390 734 427 715 c 1,30,-1
 427 705 l 1,31,32
 353 616 353 616 285 570 c 1,33,-1
 236 589 l 1,34,-1
 236 596 l 1,35,36
 308 667 308 667 357 740 c 1,28,29
EndSplineSet
EndChar

StartChar: ocircumflex
Encoding: 244 244 180
Width: 490
GlyphClass: 2
Flags: W
LayerCount: 2
Fore
SplineSet
178 62 m 2,0,-1
 186 60 l 1,1,-1
 282 60 l 1,2,3
 324 76 324 76 356 137 c 128,-1,4
 388 198 388 198 388 262 c 0,5,6
 388 341 388 341 360 374 c 0,7,8
 335 403 335 403 316 408 c 2,9,-1
 308 410 l 1,10,-1
 212 410 l 1,11,12
 170 394 170 394 138 333 c 128,-1,13
 106 272 106 272 106 200.5 c 128,-1,14
 106 129 106 129 132.5 98 c 128,-1,15
 159 67 159 67 178 62 c 2,0,-1
345.5 39 m 128,-1,17
 285 -10 285 -10 202 -10 c 0,18,19
 31 -10 31 -10 31 176 c 0,20,21
 31 246 31 246 59.5 314 c 128,-1,22
 88 382 88 382 148.5 431 c 128,-1,23
 209 480 209 480 292 480 c 0,24,25
 463 480 463 480 463 294 c 0,26,27
 463 224 463 224 434.5 156 c 128,-1,16
 406 88 406 88 345.5 39 c 128,-1,17
272 713 m 1,28,-1
 325 740 l 1,29,30
 372 666 372 666 435 602 c 1,31,-1
 435 594 l 1,32,-1
 383 570 l 1,33,34
 329 616 329 616 296 667 c 1,35,36
 256 621 256 621 196 583 c 1,37,-1
 152 594 l 1,38,-1
 152 602 l 1,39,40
 241 666 241 666 272 713 c 1,28,-1
EndSplineSet
EndChar

StartChar: otilde
Encoding: 245 245 181
Width: 490
GlyphClass: 2
Flags: W
LayerCount: 2
Fore
SplineSet
178 62 m 2,0,-1
 186 60 l 1,1,-1
 282 60 l 1,2,3
 324 76 324 76 356 137 c 128,-1,4
 388 198 388 198 388 262 c 0,5,6
 388 341 388 341 360 374 c 0,7,8
 335 403 335 403 316 408 c 2,9,-1
 308 410 l 1,10,-1
 212 410 l 1,11,12
 170 394 170 394 138 333 c 128,-1,13
 106 272 106 272 106 200.5 c 128,-1,14
 106 129 106 129 132.5 98 c 128,-1,15
 159 67 159 67 178 62 c 2,0,-1
345.5 39 m 128,-1,17
 285 -10 285 -10 202 -10 c 0,18,19
 31 -10 31 -10 31 176 c 0,20,21
 31 246 31 246 59.5 314 c 128,-1,22
 88 382 88 382 148.5 431 c 128,-1,23
 209 480 209 480 292 480 c 0,24,25
 463 480 463 480 463 294 c 0,26,27
 463 224 463 224 434.5 156 c 128,-1,16
 406 88 406 88 345.5 39 c 128,-1,17
425 587 m 1,28,29
 404 580 404 580 375.5 580 c 128,-1,30
 347 580 347 580 294.5 599 c 128,-1,31
 242 618 242 618 232 618 c 2,32,-1
 209 618 l 1,33,34
 198 606 198 606 190 587 c 1,35,-1
 153 587 l 1,36,-1
 146 595 l 1,37,-1
 163 683 l 1,38,39
 184 690 184 690 211 690 c 128,-1,40
 238 690 238 690 291.5 671 c 128,-1,41
 345 652 345 652 356 652 c 2,42,-1
 379 652 l 1,43,44
 390 664 390 664 398 683 c 1,45,-1
 435 683 l 1,46,-1
 442 675 l 1,47,-1
 425 587 l 1,28,29
EndSplineSet
EndChar

StartChar: odieresis
Encoding: 246 246 182
Width: 490
GlyphClass: 2
Flags: W
LayerCount: 2
Fore
SplineSet
178 62 m 2,0,-1
 186 60 l 1,1,-1
 282 60 l 1,2,3
 324 76 324 76 356 137 c 128,-1,4
 388 198 388 198 388 262 c 0,5,6
 388 341 388 341 360 374 c 0,7,8
 335 403 335 403 316 408 c 2,9,-1
 308 410 l 1,10,-1
 212 410 l 1,11,12
 170 394 170 394 138 333 c 128,-1,13
 106 272 106 272 106 200.5 c 128,-1,14
 106 129 106 129 132.5 98 c 128,-1,15
 159 67 159 67 178 62 c 2,0,-1
345.5 39 m 128,-1,17
 285 -10 285 -10 202 -10 c 0,18,19
 31 -10 31 -10 31 176 c 0,20,21
 31 246 31 246 59.5 314 c 128,-1,22
 88 382 88 382 148.5 431 c 128,-1,23
 209 480 209 480 292 480 c 0,24,25
 463 480 463 480 463 294 c 0,26,27
 463 224 463 224 434.5 156 c 128,-1,16
 406 88 406 88 345.5 39 c 128,-1,17
180 671.5 m 128,-1,29
 199 681 199 681 219 681 c 128,-1,30
 239 681 239 681 250.5 672 c 128,-1,31
 262 663 262 663 262 652 c 1,32,-1
 257 616 l 1,33,34
 246 586 246 586 193 586 c 0,35,36
 173 586 173 586 162.5 595 c 128,-1,37
 152 604 152 604 152 616 c 1,38,-1
 156 647 l 1,39,28
 161 662 161 662 180 671.5 c 128,-1,29
378 671.5 m 128,-1,41
 397 681 397 681 417 681 c 128,-1,42
 437 681 437 681 448.5 672 c 128,-1,43
 460 663 460 663 460 652 c 1,44,-1
 455 616 l 1,45,46
 444 586 444 586 391 586 c 0,47,48
 371 586 371 586 360.5 595 c 128,-1,49
 350 604 350 604 350 616 c 1,50,-1
 354 647 l 1,51,40
 359 662 359 662 378 671.5 c 128,-1,41
EndSplineSet
EndChar

StartChar: divide
Encoding: 247 247 183
Width: 512
GlyphClass: 2
Flags: W
LayerCount: 2
Fore
SplineSet
167 347 m 2,0,1
 305 347 305 347 416 357 c 1,2,-1
 432 343 l 1,3,-1
 419 280 l 1,4,-1
 76 280 l 1,5,6
 71 301 71 301 71 313 c 1,7,-1
 76 347 l 1,8,-1
 167 347 l 2,0,1
203 200.5 m 128,-1,10
 222 210 222 210 242 210 c 128,-1,11
 262 210 262 210 273.5 201 c 128,-1,12
 285 192 285 192 285 181 c 1,13,-1
 280 145 l 1,14,15
 269 115 269 115 216 115 c 0,16,17
 196 115 196 115 185.5 124 c 128,-1,18
 175 133 175 133 175 145 c 1,19,-1
 179 176 l 1,20,9
 184 191 184 191 203 200.5 c 128,-1,10
235 505.5 m 128,-1,22
 254 515 254 515 274 515 c 128,-1,23
 294 515 294 515 305.5 506 c 128,-1,24
 317 497 317 497 317 486 c 1,25,-1
 312 450 l 1,26,27
 301 420 301 420 248 420 c 0,28,29
 228 420 228 420 217.5 429 c 128,-1,30
 207 438 207 438 207 450 c 1,31,-1
 211 481 l 1,32,21
 216 496 216 496 235 505.5 c 128,-1,22
EndSplineSet
EndChar

StartChar: oslash
Encoding: 248 248 184
Width: 494
GlyphClass: 2
Flags: W
LayerCount: 2
Fore
SplineSet
31 176 m 0,0,1
 31 246 31 246 59.5 314 c 128,-1,2
 88 382 88 382 148.5 431 c 128,-1,3
 209 480 209 480 287 480 c 0,4,5
 305 480 305 480 313 479 c 1,6,-1
 327 516 l 1,7,-1
 396 532 l 1,8,-1
 400 516 l 1,9,-1
 376 464 l 1,10,11
 463 425 463 425 463 294 c 0,12,13
 463 224 463 224 434.5 156 c 128,-1,14
 406 88 406 88 345.5 39 c 128,-1,15
 285 -10 285 -10 207 -10 c 0,16,17
 190 -10 190 -10 183 -9 c 1,18,19
 179 -20 179 -20 170 -45 c 1,20,21
 167 -50 167 -50 134 -50 c 1,22,-1
 107 -45 l 1,23,-1
 127 2 l 1,24,25
 31 36 31 36 31 176 c 0,0,1
106 208 m 0,26,27
 106 110 106 110 156 73 c 1,28,29
 223 240 223 240 288 410 c 1,30,-1
 212 410 l 1,31,32
 170 394 170 394 138 333 c 128,-1,33
 106 272 106 272 106 208 c 0,26,27
388 262 m 0,34,35
 388 351 388 351 344 391 c 1,36,37
 279 239 279 239 209 60 c 1,38,-1
 282 60 l 1,39,40
 324 76 324 76 356 137 c 128,-1,41
 388 198 388 198 388 262 c 0,34,35
EndSplineSet
EndChar

StartChar: ugrave
Encoding: 249 249 185
Width: 607
GlyphClass: 2
Flags: W
LayerCount: 2
Fore
SplineSet
562 60 m 1,0,1
 562 37 562 37 552 17 c 1,2,3
 485 9 485 9 431 -15 c 1,4,5
 416 -15 416 -15 405.5 -4 c 128,-1,6
 395 7 395 7 395 30 c 1,7,-1
 414 173 l 1,8,-1
 404 179 l 1,9,10
 373 108 373 108 312 49 c 128,-1,11
 251 -10 251 -10 174 -10 c 0,12,13
 137 -10 137 -10 115 0 c 128,-1,14
 93 10 93 10 90 20 c 2,15,-1
 86 30 l 1,16,17
 108 227 108 227 116 410 c 1,18,-1
 47 410 l 1,19,20
 47 433 47 433 57 453 c 1,21,22
 114 461 114 461 168 485 c 1,23,24
 182 485 182 485 193 472.5 c 128,-1,25
 204 460 204 460 204 440 c 1,26,27
 182 300 182 300 166 60 c 1,28,-1
 227 60 l 2,29,30
 268 60 268 60 324 125 c 128,-1,31
 380 190 380 190 412 265 c 1,32,33
 426 393 426 393 439 480 c 1,34,35
 489 495 489 495 534 495 c 1,36,37
 515 418 515 418 502.5 329 c 128,-1,38
 490 240 490 240 478 60 c 1,39,-1
 562 60 l 1,0,1
284 760 m 1,40,41
 328 696 328 696 388 621 c 2,42,-1
 408 596 l 1,43,-1
 408 589 l 1,44,-1
 359 570 l 1,45,46
 331 590 331 590 298 624 c 128,-1,47
 265 658 265 658 246 682 c 2,48,-1
 227 705 l 1,49,-1
 227 715 l 1,50,51
 252 747 252 747 284 760 c 1,40,41
EndSplineSet
EndChar

StartChar: uacute
Encoding: 250 250 186
Width: 607
GlyphClass: 2
Flags: W
LayerCount: 2
Fore
SplineSet
562 60 m 1,0,1
 562 37 562 37 552 17 c 1,2,3
 485 9 485 9 431 -15 c 1,4,5
 416 -15 416 -15 405.5 -4 c 128,-1,6
 395 7 395 7 395 30 c 1,7,-1
 414 173 l 1,8,-1
 404 179 l 1,9,10
 373 108 373 108 312 49 c 128,-1,11
 251 -10 251 -10 174 -10 c 0,12,13
 137 -10 137 -10 115 0 c 128,-1,14
 93 10 93 10 90 20 c 2,15,-1
 86 30 l 1,16,17
 108 227 108 227 116 410 c 1,18,-1
 47 410 l 1,19,20
 47 433 47 433 57 453 c 1,21,22
 114 461 114 461 168 485 c 1,23,24
 182 485 182 485 193 472.5 c 128,-1,25
 204 460 204 460 204 440 c 1,26,27
 182 300 182 300 166 60 c 1,28,-1
 227 60 l 2,29,30
 268 60 268 60 324 125 c 128,-1,31
 380 190 380 190 412 265 c 1,32,33
 426 393 426 393 439 480 c 1,34,35
 489 495 489 495 534 495 c 1,36,37
 515 418 515 418 502.5 329 c 128,-1,38
 490 240 490 240 478 60 c 1,39,-1
 562 60 l 1,0,1
397 740 m 1,40,41
 430 734 430 734 467 715 c 1,42,-1
 467 705 l 1,43,44
 393 616 393 616 325 570 c 1,45,-1
 276 589 l 1,46,-1
 276 596 l 1,47,48
 348 667 348 667 397 740 c 1,40,41
EndSplineSet
EndChar

StartChar: ucircumflex
Encoding: 251 251 187
Width: 607
GlyphClass: 2
Flags: W
LayerCount: 2
Fore
SplineSet
562 60 m 1,0,1
 562 37 562 37 552 17 c 1,2,3
 485 9 485 9 431 -15 c 1,4,5
 416 -15 416 -15 405.5 -4 c 128,-1,6
 395 7 395 7 395 30 c 1,7,-1
 414 173 l 1,8,-1
 404 179 l 1,9,10
 373 108 373 108 312 49 c 128,-1,11
 251 -10 251 -10 174 -10 c 0,12,13
 137 -10 137 -10 115 0 c 128,-1,14
 93 10 93 10 90 20 c 2,15,-1
 86 30 l 1,16,17
 108 227 108 227 116 410 c 1,18,-1
 47 410 l 1,19,20
 47 433 47 433 57 453 c 1,21,22
 114 461 114 461 168 485 c 1,23,24
 182 485 182 485 193 472.5 c 128,-1,25
 204 460 204 460 204 440 c 1,26,27
 182 300 182 300 166 60 c 1,28,-1
 227 60 l 2,29,30
 268 60 268 60 324 125 c 128,-1,31
 380 190 380 190 412 265 c 1,32,33
 426 393 426 393 439 480 c 1,34,35
 489 495 489 495 534 495 c 1,36,37
 515 418 515 418 502.5 329 c 128,-1,38
 490 240 490 240 478 60 c 1,39,-1
 562 60 l 1,0,1
306 713 m 1,40,-1
 359 740 l 1,41,42
 406 666 406 666 469 602 c 1,43,-1
 469 594 l 1,44,-1
 417 570 l 1,45,46
 363 616 363 616 330 667 c 1,47,48
 290 621 290 621 230 583 c 1,49,-1
 186 594 l 1,50,-1
 186 602 l 1,51,52
 275 666 275 666 306 713 c 1,40,-1
EndSplineSet
EndChar

StartChar: udieresis
Encoding: 252 252 188
Width: 607
GlyphClass: 2
Flags: W
LayerCount: 2
Fore
SplineSet
562 60 m 1,0,1
 562 37 562 37 552 17 c 1,2,3
 485 9 485 9 431 -15 c 1,4,5
 416 -15 416 -15 405.5 -4 c 128,-1,6
 395 7 395 7 395 30 c 1,7,-1
 414 173 l 1,8,-1
 404 179 l 1,9,10
 373 108 373 108 312 49 c 128,-1,11
 251 -10 251 -10 174 -10 c 0,12,13
 137 -10 137 -10 115 0 c 128,-1,14
 93 10 93 10 90 20 c 2,15,-1
 86 30 l 1,16,17
 108 227 108 227 116 410 c 1,18,-1
 47 410 l 1,19,20
 47 433 47 433 57 453 c 1,21,22
 114 461 114 461 168 485 c 1,23,24
 182 485 182 485 193 472.5 c 128,-1,25
 204 460 204 460 204 440 c 1,26,27
 182 300 182 300 166 60 c 1,28,-1
 227 60 l 2,29,30
 268 60 268 60 324 125 c 128,-1,31
 380 190 380 190 412 265 c 1,32,33
 426 393 426 393 439 480 c 1,34,35
 489 495 489 495 534 495 c 1,36,37
 515 418 515 418 502.5 329 c 128,-1,38
 490 240 490 240 478 60 c 1,39,-1
 562 60 l 1,0,1
217 671.5 m 128,-1,41
 236 681 236 681 256 681 c 128,-1,42
 276 681 276 681 287.5 672 c 128,-1,43
 299 663 299 663 299 652 c 1,44,-1
 294 616 l 1,45,46
 283 586 283 586 230 586 c 0,47,48
 210 586 210 586 199.5 595 c 128,-1,49
 189 604 189 604 189 616 c 1,50,-1
 193 647 l 1,51,40
 198 662 198 662 217 671.5 c 128,-1,41
415 671.5 m 128,-1,53
 434 681 434 681 454 681 c 128,-1,54
 474 681 474 681 485.5 672 c 128,-1,55
 497 663 497 663 497 652 c 1,56,-1
 492 616 l 1,57,58
 481 586 481 586 428 586 c 0,59,60
 408 586 408 586 397.5 595 c 128,-1,61
 387 604 387 604 387 616 c 1,62,-1
 391 647 l 1,63,52
 396 662 396 662 415 671.5 c 128,-1,53
EndSplineSet
EndChar

StartChar: yacute
Encoding: 253 253 189
Width: 571
GlyphClass: 2
Flags: W
LayerCount: 2
Fore
SplineSet
58 -217 m 1,0,1
 58 -198 58 -198 67 -175 c 1,2,-1
 295 -175 l 1,3,4
 340 -153 340 -153 374 -34 c 0,5,6
 396 41 396 41 406 173 c 1,7,-1
 396 179 l 1,8,9
 365 108 365 108 304 49 c 128,-1,10
 243 -10 243 -10 166 -10 c 0,11,12
 129 -10 129 -10 107 0 c 128,-1,13
 85 10 85 10 82 20 c 2,14,-1
 78 30 l 1,15,16
 101 234 101 234 111 410 c 1,17,-1
 42 410 l 1,18,19
 42 433 42 433 52 453 c 1,20,21
 109 461 109 461 163 485 c 1,22,23
 177 485 177 485 188 472.5 c 128,-1,24
 199 460 199 460 199 440 c 1,25,26
 174 300 174 300 158 60 c 1,27,-1
 219 60 l 2,28,29
 260 60 260 60 316 125 c 128,-1,30
 372 190 372 190 404 265 c 1,31,32
 418 393 418 393 431 480 c 1,33,34
 481 495 481 495 526 495 c 1,35,36
 507 418 507 418 501 375.5 c 128,-1,37
 495 333 495 333 487.5 260 c 128,-1,38
 480 187 480 187 475 139.5 c 128,-1,39
 470 92 470 92 461 33.5 c 128,-1,40
 452 -25 452 -25 441 -61.5 c 128,-1,41
 430 -98 430 -98 410 -136.5 c 128,-1,42
 390 -175 390 -175 364 -196 c 0,43,44
 304 -245 304 -245 207 -245 c 0,45,46
 166 -245 166 -245 85 -224 c 2,47,-1
 58 -217 l 1,0,1
387 740 m 1,48,49
 420 734 420 734 457 715 c 1,50,-1
 457 705 l 1,51,52
 383 616 383 616 315 570 c 1,53,-1
 266 589 l 1,54,-1
 266 596 l 1,55,56
 338 667 338 667 387 740 c 1,48,49
EndSplineSet
EndChar

StartChar: thorn
Encoding: 254 254 190
Width: 424
GlyphClass: 2
Flags: W
LayerCount: 2
Fore
SplineSet
-9 715 m 1,0,1
 -9 738 -9 738 1 758 c 1,2,3
 58 766 58 766 112 790 c 1,4,5
 126 790 126 790 137 778.5 c 128,-1,6
 148 767 148 767 148 745 c 1,7,-1
 103 297 l 1,8,-1
 113 291 l 1,9,10
 150 381 150 381 188 430.5 c 128,-1,11
 226 480 226 480 288 480 c 128,-1,12
 350 480 350 480 392 434.5 c 128,-1,13
 434 389 434 389 434 311 c 0,14,15
 434 182 434 182 357 86 c 128,-1,16
 280 -10 280 -10 166 -10 c 0,17,18
 128 -10 128 -10 85 3 c 1,19,-1
 67 -195 l 1,20,-1
 145 -212 l 1,21,22
 145 -235 145 -235 135 -255 c 1,23,24
 55 -245 55 -245 28 -245 c 0,25,26
 -19 -245 -19 -245 -78 -252 c 1,27,-1
 -97 -255 l 1,28,29
 -97 -232 -97 -232 -87 -212 c 1,30,31
 -49 -203 -49 -203 -21 -185 c 1,32,33
 29 108 29 108 64 715 c 1,34,-1
 -9 715 l 1,0,1
358 283 m 0,35,36
 358 327 358 327 338 362.5 c 128,-1,37
 318 398 318 398 293 410 c 1,38,-1
 245 410 l 1,39,40
 203 402 203 402 158 316 c 0,41,42
 129 261 129 261 104 201 c 1,43,-1
 91 60 l 1,44,-1
 248 60 l 1,45,46
 287 67 287 67 322.5 137.5 c 128,-1,47
 358 208 358 208 358 283 c 0,35,36
EndSplineSet
EndChar

StartChar: ydieresis
Encoding: 255 255 191
Width: 571
GlyphClass: 2
Flags: W
LayerCount: 2
Fore
SplineSet
58 -217 m 1,0,1
 58 -198 58 -198 67 -175 c 1,2,-1
 295 -175 l 1,3,4
 340 -153 340 -153 374 -34 c 0,5,6
 396 41 396 41 406 173 c 1,7,-1
 396 179 l 1,8,9
 365 108 365 108 304 49 c 128,-1,10
 243 -10 243 -10 166 -10 c 0,11,12
 129 -10 129 -10 107 0 c 128,-1,13
 85 10 85 10 82 20 c 2,14,-1
 78 30 l 1,15,16
 101 234 101 234 111 410 c 1,17,-1
 42 410 l 1,18,19
 42 433 42 433 52 453 c 1,20,21
 109 461 109 461 163 485 c 1,22,23
 177 485 177 485 188 472.5 c 128,-1,24
 199 460 199 460 199 440 c 1,25,26
 174 300 174 300 158 60 c 1,27,-1
 219 60 l 2,28,29
 260 60 260 60 316 125 c 128,-1,30
 372 190 372 190 404 265 c 1,31,32
 418 393 418 393 431 480 c 1,33,34
 481 495 481 495 526 495 c 1,35,36
 507 418 507 418 501 375.5 c 128,-1,37
 495 333 495 333 487.5 260 c 128,-1,38
 480 187 480 187 475 139.5 c 128,-1,39
 470 92 470 92 461 33.5 c 128,-1,40
 452 -25 452 -25 441 -61.5 c 128,-1,41
 430 -98 430 -98 410 -136.5 c 128,-1,42
 390 -175 390 -175 364 -196 c 0,43,44
 304 -245 304 -245 207 -245 c 0,45,46
 166 -245 166 -245 85 -224 c 2,47,-1
 58 -217 l 1,0,1
204 671.5 m 128,-1,49
 223 681 223 681 243 681 c 128,-1,50
 263 681 263 681 274.5 672 c 128,-1,51
 286 663 286 663 286 652 c 1,52,-1
 281 616 l 1,53,54
 270 586 270 586 217 586 c 0,55,56
 197 586 197 586 186.5 595 c 128,-1,57
 176 604 176 604 176 616 c 1,58,-1
 180 647 l 1,59,48
 185 662 185 662 204 671.5 c 128,-1,49
402 671.5 m 128,-1,61
 421 681 421 681 441 681 c 128,-1,62
 461 681 461 681 472.5 672 c 128,-1,63
 484 663 484 663 484 652 c 1,64,-1
 479 616 l 1,65,66
 468 586 468 586 415 586 c 0,67,68
 395 586 395 586 384.5 595 c 128,-1,69
 374 604 374 604 374 616 c 1,70,-1
 378 647 l 1,71,60
 383 662 383 662 402 671.5 c 128,-1,61
EndSplineSet
EndChar

StartChar: Aogonek
Encoding: 260 260 192
Width: 672
GlyphClass: 2
Flags: W
LayerCount: 2
Fore
SplineSet
682 31 m 1,0,1
 682 8 682 8 672 -12 c 1,2,3
 632 -9 632 -9 594 -7 c 1,4,5
 526 -63 526 -63 526 -111 c 128,-1,6
 526 -159 526 -159 554 -170 c 1,7,-1
 649 -170 l 1,8,9
 649 -193 649 -193 639 -213 c 1,10,11
 558 -245 558 -245 531.5 -245 c 128,-1,12
 505 -245 505 -245 479.5 -223 c 128,-1,13
 454 -201 454 -201 454 -152 c 0,14,15
 454 -78 454 -78 532 -5 c 1,16,-1
 427 -12 l 1,17,18
 427 11 427 11 437 31 c 1,19,20
 466 38 466 38 492 51 c 1,21,22
 461 210 461 210 456 232 c 1,23,24
 339 235 339 235 301.5 235 c 128,-1,25
 264 235 264 235 214 231 c 1,26,-1
 126 51 l 1,27,-1
 212 31 l 1,28,29
 212 8 212 8 202 -12 c 1,30,31
 122 -5 122 -5 85 -5 c 1,32,-1
 -10 -12 l 1,33,34
 -10 11 -10 11 0 31 c 1,35,36
 32 40 32 40 59 59 c 1,37,38
 246 389 246 389 358 637 c 1,39,-1
 350 669 l 1,40,41
 393 690 393 690 442 690 c 1,42,43
 536 265 536 265 599 46 c 1,44,-1
 682 31 l 1,0,1
239 283 m 1,45,46
 286 280 286 280 335.5 280 c 128,-1,47
 385 280 385 280 445 282 c 1,48,49
 433 339 433 339 379 556 c 1,50,51
 326 459 326 459 239 283 c 1,45,46
EndSplineSet
EndChar

StartChar: aogonek
Encoding: 261 261 193
Width: 546
GlyphClass: 2
Flags: W
LayerCount: 2
Fore
SplineSet
509 60 m 1,0,1
 509 37 509 37 499 17 c 1,2,3
 398 -50 398 -50 398 -112 c 0,4,5
 398 -159 398 -159 426 -170 c 1,6,-1
 521 -170 l 1,7,8
 521 -193 521 -193 511 -213 c 1,9,10
 430 -245 430 -245 403.5 -245 c 128,-1,11
 377 -245 377 -245 351.5 -223 c 128,-1,12
 326 -201 326 -201 326 -152 c 0,13,14
 326 -76 326 -76 406 -4 c 1,15,16
 396 -7 396 -7 378 -15 c 1,17,18
 363 -15 363 -15 352.5 -4 c 128,-1,19
 342 7 342 7 342 30 c 1,20,-1
 361 173 l 1,21,-1
 351 179 l 1,22,23
 314 89 314 89 276 39.5 c 128,-1,24
 238 -10 238 -10 176 -10 c 128,-1,25
 114 -10 114 -10 72 35.5 c 128,-1,26
 30 81 30 81 30 159 c 0,27,28
 30 288 30 288 107 384 c 128,-1,29
 184 480 184 480 298 480 c 0,30,31
 335 480 335 480 382 451 c 1,32,33
 384 469 384 469 386 480 c 1,34,35
 436 495 436 495 481 495 c 1,36,37
 462 418 462 418 449.5 329 c 128,-1,38
 437 240 437 240 425 60 c 1,39,-1
 509 60 l 1,0,1
106 187 m 0,40,41
 106 143 106 143 126 107.5 c 128,-1,42
 146 72 146 72 171 60 c 1,43,-1
 219 60 l 1,44,45
 277 71 277 71 360 270 c 1,46,47
 364 312 364 312 376 410 c 1,48,-1
 216 410 l 1,49,50
 177 403 177 403 141.5 332.5 c 128,-1,51
 106 262 106 262 106 187 c 0,40,41
EndSplineSet
EndChar

StartChar: Cacute
Encoding: 262 262 194
Width: 582
GlyphClass: 2
Flags: W
LayerCount: 2
Fore
SplineSet
147 487.5 m 128,-1,1
 101 395 101 395 101 301.5 c 128,-1,2
 101 208 101 208 136.5 142.5 c 128,-1,3
 172 77 172 77 240 60 c 1,4,-1
 479 60 l 1,5,6
 479 37 479 37 469 17 c 1,7,8
 328 -20 328 -20 246 -20 c 0,9,10
 140 -20 140 -20 78.5 54 c 128,-1,11
 17 128 17 128 17 241 c 0,12,13
 17 380 17 380 80 496 c 0,14,15
 148 621 148 621 268 670 c 0,16,17
 332 696 332 696 394.5 696 c 128,-1,18
 457 696 457 696 496.5 677.5 c 128,-1,19
 536 659 536 659 548 635 c 1,20,21
 527 597 527 597 514 536 c 1,22,-1
 509 516 l 1,23,24
 484 507 484 507 455 507 c 1,25,26
 463 529 463 529 463 558 c 0,27,28
 463 607 463 607 437 625 c 1,29,-1
 277 625 l 1,30,0
 193 580 193 580 147 487.5 c 128,-1,1
429 890 m 1,31,32
 462 884 462 884 499 865 c 1,33,-1
 499 855 l 1,34,35
 436 781 436 781 368 735 c 1,36,-1
 319 754 l 1,37,-1
 319 761 l 1,38,39
 380 817 380 817 429 890 c 1,31,32
EndSplineSet
EndChar

StartChar: cacute
Encoding: 263 263 195
Width: 437
GlyphClass: 2
Flags: W
LayerCount: 2
Fore
SplineSet
364 60 m 1,0,1
 364 37 364 37 354 17 c 1,2,3
 248 -10 248 -10 202 -10 c 0,4,5
 116 -10 116 -10 72.5 34.5 c 128,-1,6
 29 79 29 79 29 164.5 c 128,-1,7
 29 250 29 250 58.5 318 c 128,-1,8
 88 386 88 386 149 433 c 128,-1,9
 210 480 210 480 289 480 c 0,10,11
 327 480 327 480 358.5 466 c 128,-1,12
 390 452 390 452 404 440 c 1,13,14
 383 403 383 403 370 350 c 1,15,-1
 365 333 l 1,16,17
 345 324 345 324 316 324 c 1,18,19
 325 364 325 364 325 384 c 128,-1,20
 325 404 325 404 310 410 c 1,21,-1
 205 410 l 1,22,23
 164 394 164 394 133.5 334.5 c 128,-1,24
 103 275 103 275 103 208 c 0,25,26
 103 130 103 130 132 96 c 0,27,28
 157 67 157 67 178 62 c 2,29,-1
 186 60 l 1,30,-1
 364 60 l 1,0,1
356 740 m 1,31,32
 389 734 389 734 426 715 c 1,33,-1
 426 705 l 1,34,35
 352 616 352 616 284 570 c 1,36,-1
 235 589 l 1,37,-1
 235 596 l 1,38,39
 307 667 307 667 356 740 c 1,31,32
EndSplineSet
EndChar

StartChar: Eogonek
Encoding: 280 280 196
Width: 574
GlyphClass: 2
Flags: W
LayerCount: 2
Fore
SplineSet
537 680 m 1,0,1
 546 672 546 672 553 655 c 1,2,3
 532 618 532 618 518 565 c 1,4,-1
 514 548 l 1,5,6
 494 539 494 539 465 539 c 1,7,8
 474 579 474 579 474 599 c 128,-1,9
 474 619 474 619 459 625 c 1,10,-1
 216 625 l 1,11,12
 197 461 197 461 190 370 c 1,13,-1
 414 370 l 1,14,15
 430 394 430 394 438 424 c 1,16,17
 445 427 445 427 458 427 c 1,18,-1
 480 423 l 1,19,20
 459 357 459 357 449 254 c 1,21,22
 441 250 441 250 429 250 c 1,23,-1
 412 253 l 1,24,25
 412 293 412 293 404 320 c 1,26,-1
 187 320 l 1,27,28
 178 198 178 198 172 60 c 1,29,-1
 431 60 l 1,30,31
 450 88 450 88 459 124 c 2,32,-1
 462 137 l 1,33,34
 493 131 493 131 504 116 c 2,35,-1
 508 110 l 1,36,37
 488 60 488 60 482 0 c 1,38,-1
 458 0 l 1,39,40
 381 -59 381 -59 381 -109 c 128,-1,41
 381 -159 381 -159 409 -170 c 1,42,-1
 504 -170 l 1,43,44
 504 -193 504 -193 494 -213 c 1,45,46
 413 -245 413 -245 386.5 -245 c 128,-1,47
 360 -245 360 -245 334.5 -223 c 128,-1,48
 309 -201 309 -201 309 -152 c 0,49,50
 309 -74 309 -74 394 0 c 1,51,-1
 107 0 l 1,52,-1
 12 -7 l 1,53,54
 12 16 12 16 22 36 c 1,55,56
 58 47 58 47 86 69 c 1,57,58
 112 292 112 292 131 626 c 1,59,-1
 56 644 l 1,60,61
 56 667 56 667 66 687 c 1,62,63
 130 680 130 680 170 680 c 2,64,-1
 537 680 l 1,0,1
EndSplineSet
EndChar

StartChar: eogonek
Encoding: 281 281 197
Width: 446
GlyphClass: 2
Flags: W
LayerCount: 2
Fore
SplineSet
381 60 m 1,0,1
 381 37 381 37 371 17 c 1,2,3
 270 -50 270 -50 270 -112 c 0,4,5
 270 -159 270 -159 298 -170 c 1,6,-1
 393 -170 l 1,7,8
 393 -193 393 -193 383 -213 c 1,9,10
 302 -245 302 -245 275.5 -245 c 128,-1,11
 249 -245 249 -245 223.5 -223 c 128,-1,12
 198 -201 198 -201 198 -152 c 0,13,14
 198 -76 198 -76 279 -3 c 1,15,16
 239 -10 239 -10 219 -10 c 0,17,18
 47 -10 47 -10 47 177 c 0,19,20
 47 246 47 246 77 314.5 c 128,-1,21
 107 383 107 383 168.5 431.5 c 128,-1,22
 230 480 230 480 308 480 c 0,23,24
 357 480 357 480 380 455 c 128,-1,25
 403 430 403 430 403 394 c 0,26,27
 403 214 403 214 121 208 c 1,28,29
 121 71 121 71 203 60 c 1,30,-1
 381 60 l 1,0,1
333 369 m 0,31,32
 333 402 333 402 305 410 c 1,33,-1
 213 410 l 1,34,35
 180 397 180 397 156 352.5 c 128,-1,36
 132 308 132 308 124 252 c 1,37,38
 239 256 239 256 286 285.5 c 128,-1,39
 333 315 333 315 333 369 c 0,31,32
EndSplineSet
EndChar

StartChar: hbar
Encoding: 295 295 198
Width: 597
GlyphClass: 2
Flags: W
LayerCount: 2
Fore
SplineSet
46 575 m 1,0,1
 46 610 46 610 55 632 c 1,2,-1
 124 632 l 1,3,4
 127 688 127 688 130 715 c 1,5,-1
 57 715 l 1,6,7
 57 738 57 738 67 758 c 1,8,9
 124 766 124 766 178 790 c 1,10,11
 192 790 192 790 203 777.5 c 128,-1,12
 214 765 214 765 214 745 c 1,13,-1
 203 633 l 1,14,15
 232 635 232 635 281 642 c 1,16,-1
 297 628 l 1,17,-1
 284 575 l 1,18,-1
 197 575 l 1,19,-1
 169 297 l 1,20,-1
 179 291 l 1,21,22
 210 362 210 362 271 421 c 128,-1,23
 332 480 332 480 409 480 c 0,24,25
 446 480 446 480 468 470 c 128,-1,26
 490 460 490 460 494 450 c 2,27,-1
 497 440 l 1,28,29
 471 219 471 219 466 60 c 1,30,-1
 546 60 l 1,31,32
 546 37 546 37 536 17 c 1,33,34
 469 9 469 9 415 -15 c 1,35,36
 400 -15 400 -15 389.5 -4 c 128,-1,37
 379 7 379 7 379 30 c 1,38,39
 401 170 401 170 417 410 c 1,40,-1
 356 410 l 2,41,42
 316 410 316 410 261 347.5 c 128,-1,43
 206 285 206 285 172 210 c 1,44,45
 162 86 162 86 149 0 c 1,46,47
 100 -15 100 -15 55 -15 c 1,48,49
 71 52 71 52 82 134 c 128,-1,50
 93 216 93 216 120 575 c 1,51,-1
 46 575 l 1,0,1
EndSplineSet
EndChar

StartChar: Itilde
Encoding: 296 296 199
Width: 334
GlyphClass: 2
Flags: W
LayerCount: 2
Fore
SplineSet
272 36 m 1,0,1
 272 13 272 13 262 -7 c 1,2,3
 164 0 164 0 134 0 c 0,4,5
 90 0 90 0 40 -6 c 1,6,-1
 27 -7 l 1,7,8
 27 16 27 16 37 36 c 1,9,10
 75 47 75 47 103 70 c 1,11,12
 129 295 129 295 148 631 c 1,13,-1
 72 644 l 1,14,15
 72 667 72 667 82 687 c 1,16,17
 170 680 170 680 207 680 c 1,18,-1
 317 687 l 1,19,20
 317 664 317 664 307 644 c 1,21,22
 260 636 260 636 232 613 c 1,23,24
 206 396 206 396 188 51 c 1,25,-1
 272 36 l 1,0,1
336 761 m 1,26,27
 315 754 315 754 286.5 754 c 128,-1,28
 258 754 258 754 205.5 773 c 128,-1,29
 153 792 153 792 143 792 c 2,30,-1
 120 792 l 1,31,32
 109 780 109 780 101 761 c 1,33,-1
 64 761 l 1,34,-1
 57 769 l 1,35,-1
 74 857 l 1,36,37
 95 864 95 864 122 864 c 128,-1,38
 149 864 149 864 202.5 845 c 128,-1,39
 256 826 256 826 267 826 c 2,40,-1
 290 826 l 1,41,42
 301 838 301 838 309 857 c 1,43,-1
 346 857 l 1,44,-1
 353 849 l 1,45,-1
 336 761 l 1,26,27
EndSplineSet
EndChar

StartChar: itilde
Encoding: 297 297 200
Width: 287
GlyphClass: 2
Flags: W
LayerCount: 2
Fore
SplineSet
33 410 m 1,0,1
 33 433 33 433 43 453 c 1,2,3
 100 461 100 461 154 485 c 1,4,5
 168 485 168 485 179 472.5 c 128,-1,6
 190 460 190 460 190 440 c 1,7,8
 167 245 167 245 159 60 c 1,9,-1
 239 60 l 1,10,11
 239 37 239 37 229 17 c 1,12,13
 162 9 162 9 108 -15 c 1,14,15
 93 -15 93 -15 82.5 -4 c 128,-1,16
 72 7 72 7 72 30 c 1,17,18
 94 170 94 170 110 410 c 1,19,-1
 33 410 l 1,0,1
291 587 m 1,20,21
 270 580 270 580 241.5 580 c 128,-1,22
 213 580 213 580 160.5 599 c 128,-1,23
 108 618 108 618 98 618 c 2,24,-1
 75 618 l 1,25,26
 64 606 64 606 56 587 c 1,27,-1
 19 587 l 1,28,-1
 12 595 l 1,29,-1
 29 683 l 1,30,31
 50 690 50 690 77 690 c 128,-1,32
 104 690 104 690 157.5 671 c 128,-1,33
 211 652 211 652 222 652 c 2,34,-1
 245 652 l 1,35,36
 256 664 256 664 264 683 c 1,37,-1
 301 683 l 1,38,-1
 308 675 l 1,39,-1
 291 587 l 1,20,21
EndSplineSet
EndChar

StartChar: dotlessi
Encoding: 305 305 201
Width: 287
GlyphClass: 2
Flags: W
LayerCount: 2
Fore
SplineSet
33 410 m 1,0,1
 33 433 33 433 43 453 c 1,2,3
 100 461 100 461 154 485 c 1,4,5
 168 485 168 485 179 472.5 c 128,-1,6
 190 460 190 460 190 440 c 1,7,8
 167 245 167 245 159 60 c 1,9,-1
 239 60 l 1,10,11
 239 37 239 37 229 17 c 1,12,13
 162 9 162 9 108 -15 c 1,14,15
 93 -15 93 -15 82.5 -4 c 128,-1,16
 72 7 72 7 72 30 c 1,17,18
 94 170 94 170 110 410 c 1,19,-1
 33 410 l 1,0,1
EndSplineSet
EndChar

StartChar: IJ
Encoding: 306 306 202
Width: 629
GlyphClass: 2
Flags: W
LayerCount: 2
Fore
SplineSet
272 36 m 1,0,1
 272 13 272 13 262 -7 c 1,2,3
 164 0 164 0 134 0 c 0,4,5
 90 0 90 0 40 -6 c 1,6,-1
 27 -7 l 1,7,8
 27 16 27 16 37 36 c 1,9,10
 75 47 75 47 103 70 c 1,11,12
 129 295 129 295 148 631 c 1,13,-1
 72 644 l 1,14,15
 72 667 72 667 82 687 c 1,16,17
 170 680 170 680 207 680 c 1,18,-1
 317 687 l 1,19,20
 317 664 317 664 307 644 c 1,21,22
 260 636 260 636 232 613 c 1,23,24
 206 396 206 396 188 51 c 1,25,-1
 272 36 l 1,0,1
438 644 m 1,26,27
 438 667 438 667 448 687 c 1,28,29
 541 680 541 680 578 680 c 1,30,-1
 683 687 l 1,31,32
 683 664 683 664 673 644 c 1,33,34
 624 635 624 635 595 611 c 1,35,36
 580 506 580 506 571.5 346 c 128,-1,37
 563 186 563 186 551.5 98.5 c 128,-1,38
 540 11 540 11 513 -55.5 c 128,-1,39
 486 -122 486 -122 454 -163 c 0,40,41
 392 -240 392 -240 355 -260 c 1,42,-1
 346 -260 l 1,43,44
 334 -245 334 -245 334 -217 c 1,45,46
 384 -170 384 -170 423 -90 c 128,-1,47
 462 -10 462 -10 473.5 75.5 c 128,-1,48
 485 161 485 161 491 241.5 c 128,-1,49
 497 322 497 322 503.5 454.5 c 128,-1,50
 510 587 510 587 513 631 c 1,51,-1
 438 644 l 1,26,27
EndSplineSet
EndChar

StartChar: ij
Encoding: 307 307 203
Width: 530
GlyphClass: 2
Flags: W
LayerCount: 2
Fore
SplineSet
58 -217 m 1,0,1
 58 -198 58 -198 67 -175 c 1,2,-1
 295 -175 l 1,3,4
 340 -153 340 -153 374 -34 c 0,5,6
 396 41 396 41 406 173 c 1,7,-1
 396 179 l 1,8,9
 365 108 365 108 304 49 c 128,-1,10
 243 -10 243 -10 166 -10 c 0,11,12
 129 -10 129 -10 107 0 c 128,-1,13
 85 10 85 10 82 20 c 2,14,-1
 78 30 l 1,15,16
 101 234 101 234 111 410 c 1,17,-1
 42 410 l 1,18,19
 42 433 42 433 52 453 c 1,20,21
 109 461 109 461 163 485 c 1,22,23
 177 485 177 485 188 472.5 c 128,-1,24
 199 460 199 460 199 440 c 1,25,26
 174 300 174 300 158 60 c 1,27,-1
 219 60 l 2,28,29
 260 60 260 60 316 125 c 128,-1,30
 372 190 372 190 404 265 c 1,31,32
 418 393 418 393 431 480 c 1,33,34
 481 495 481 495 526 495 c 1,35,36
 507 418 507 418 501 375.5 c 128,-1,37
 495 333 495 333 487.5 260 c 128,-1,38
 480 187 480 187 475 139.5 c 128,-1,39
 470 92 470 92 461 33.5 c 128,-1,40
 452 -25 452 -25 441 -61.5 c 128,-1,41
 430 -98 430 -98 410 -136.5 c 128,-1,42
 390 -175 390 -175 364 -196 c 0,43,44
 304 -245 304 -245 207 -245 c 0,45,46
 166 -245 166 -245 85 -224 c 2,47,-1
 58 -217 l 1,0,1
467 671.5 m 128,-1,49
 486 681 486 681 506 681 c 128,-1,50
 526 681 526 681 537.5 672 c 128,-1,51
 549 663 549 663 549 652 c 1,52,-1
 544 616 l 1,53,54
 533 586 533 586 480 586 c 0,55,56
 460 586 460 586 449.5 595 c 128,-1,57
 439 604 439 604 439 616 c 1,58,-1
 443 647 l 1,59,48
 448 662 448 662 467 671.5 c 128,-1,49
151 671.5 m 128,-1,61
 170 681 170 681 190 681 c 128,-1,62
 210 681 210 681 221.5 672 c 128,-1,63
 233 663 233 663 233 652 c 1,64,-1
 228 616 l 1,65,66
 217 586 217 586 164 586 c 0,67,68
 144 586 144 586 133.5 595 c 128,-1,69
 123 604 123 604 123 616 c 1,70,-1
 127 647 l 1,71,60
 132 662 132 662 151 671.5 c 128,-1,61
EndSplineSet
EndChar

